
<svg xmlns="http://www.w3.org/2000/svg" version="1.1" xmlns:xlink="http://www.w3.org/1999/xlink" preserveAspectRatio="none" x="0px" y="0px" width="50px" height="29px" viewBox="0 0 50 29">
<defs>
<g id="hand_0_Layer0_0_FILL">
<path fill="#000000" stroke="none" d="
M 21.2 -8.2
Q 19.7 -8.7 18.85 -8.85 17.5 -9.3 16.6 -9.8 15.9 -10.2 14.8 -11.2 13.55 -12.3 13 -12.7 11.5 -13.8 8.45 -14.4 4.45 -15.15 -1.15 -14.9 -13.65 -14.4 -19.75 -9.25 -21.15 -8.15 -23.55 -5.45 -24.55 -4.35 -24.85 -3.55 -25.3 -2.75 -25.35 -0.95 -25.45 1.5 -25.35 2.75 -25.1 4.75 -24.3 6.2 -23.6 7.45 -21.05 9.45 -18.4 11.5 -16.95 12.35 -14.65 13.85 -12.5 14.4 -10.35 14.95 -6.4 14.95 -1.6 14.95 0.45 14.8 4.3 14.65 7.25 13.95 8.15 13.75 9.9 13.25 11.5 12.85 12.65 12.7 13.25 12.6 15.2 12.45 16.8 12.35 17.75 12.1 20.95 11.25 21.65 9 22.05 7.7 22.15 7.5 22.45 7 23.25 6.5 24.2 5.8 24.5 5.5 25.35 4.5 25.35 2.05
L 25.4 -2.65
Q 25.4 -4.5 25.05 -5.4 24.2 -7.3 21.2 -8.2 Z"/>
</g>
</defs>

<g transform="matrix( 1, 0, 0, 1, 25.4,14.95) ">
<g transform="matrix( 1, 0, 0, 1, 0,0) ">
<use xlink:href="#hand_0_Layer0_0_FILL"/>
</g>
</g>
</svg>
