
<svg xmlns="http://www.w3.org/2000/svg" version="1.1" xmlns:xlink="http://www.w3.org/1999/xlink" preserveAspectRatio="none" x="0px" y="0px" width="843px" height="228px" viewBox="0 0 843 228">
<defs>
<linearGradient id="Gradient_1" gradientUnits="userSpaceOnUse" x1="20.6875" y1="149.97500000000002" x2="-19.6875" y2="-146.875" spreadMethod="pad">
<stop  offset="0%" stop-color="#324761"/>

<stop  offset="100%" stop-color="#5A7BB1"/>
</linearGradient>

<linearGradient id="Gradient_2" gradientUnits="userSpaceOnUse" x1="20.2875" y1="-178.675" x2="-13.287500000000001" y2="194.375" spreadMethod="pad">
<stop  offset="0%" stop-color="#FFFFFF"/>

<stop  offset="100%" stop-color="#BEC6D8"/>
</linearGradient>

<filter id="Filter_1" x="-20%" y="-20%" width="140%" height="140%" color-interpolation-filters="sRGB">
<feFlood flood-color="#FFFFFF" flood-opacity="0.4980392156862745" in="SourceGraphic" result="result1"/>

<feComposite in2="SourceGraphic" in="result1" operator="in" result="result2"/>

<feGaussianBlur in="result2" stdDeviation="1.3333333333333333,1.3333333333333333" result="result3"/>

<feFlood flood-color="#000000" flood-opacity="0.09803921568627451" in="SourceGraphic" result="result4"/>

<feComposite in2="SourceGraphic" in="result4" operator="in" result="result5"/>

<feGaussianBlur in="result5" stdDeviation="1.3333333333333333,1.3333333333333333" result="result6"/>

<feOffset dx="2.8284271247461903" dy="2.8284271247461903" in="result3" result="result7"/>

<feOffset dx="-2.8284271247461903" dy="-2.8284271247461903" in="result3" result="result8"/>

<feOffset dx="-2.8284271247461903" dy="-2.8284271247461903" in="result6" result="result9"/>

<feOffset dx="2.8284271247461903" dy="2.8284271247461903" in="result6" result="result10"/>

<feColorMatrix in="SourceGraphic" type="matrix" values="0 0 0 0 255 0 0 0 0 255 0 0 0 0 255 0 0 0 255 0" result="result11"/>

<feFlood flood-color="#000000" flood-opacity="0" in="SourceGraphic" result="result12"/>

<feComposite in2="result8" in="result7" operator="arithmetic" k1="0" k2="-1" k3="1" k4="0" result="result13"/>

<feComposite in2="result10" in="result9" operator="arithmetic" k1="0" k2="-1" k3="1" k4="0" result="result14"/>

<feComposite in2="result12" in="result13" operator="xor" result="result15"/>

<feComposite in2="result15" in="result14" operator="xor" result="result16"/>

<feComposite in2="result11" in="result16" operator="in" result="result17"/>

<feBlend mode="normal" in2="SourceGraphic" in="result17" result="result18"/>
</filter>

<g id="Mask_5_MASK_0_FILL">
<path fill="#FFFFFF" stroke="none" d="
M -419.65 -110.3
L -419.65 107.3 416.2 107.3 416.2 -110.3 -419.65 -110.3 Z"/>
</g>

<g id="Layer5_0_FILL">
<path fill="url(#Gradient_1)" stroke="none" d="
M -442.05 -138.55
L -442.05 141.75 443.05 141.75 443.05 -138.55 -442.05 -138.55 Z"/>
</g>

<g id="Layer4_0_FILL">
<path fill="#000000" stroke="none" d="
M 101.1 -91.25
Q 89.0416015625 -76.7240234375 85.65 -63.15 83.496484375 -54.7380859375 84.35 -46.25 85.2681640625 -37.141796875 89.55 -29.45 92.803515625 -23.6515625 100.45 -15.35 91.0953125 -8.485546875 85.35 -3.85 77.11015625 2.8755859375 70.8 9.1 55.4123046875 24.5328125 48.9 41.2 45.3921875 50.26875 45.35 58.05 45.349609375 68.00546875 50.35 75.6 54.1142578125 81.2921875 61.45 86.45
L 61.45 86.45
Q 70.584375 92.849609375 80.5 95.95 89.6552734375 98.9447265625 101.2 99.7 108.1291015625 100.1380859375 121.05 99.85 119.2216796875 104.1763671875 118.45 106.55 117.050390625 110.766796875 116.9 114.45 116.68984375 118.9423828125 118.3 123
L 118.3 122.95
Q 120.033203125 127.46640625 123.55 130.15 127.6435546875 133.437890625 134.1 134.05 149.557421875 135.611328125 164.45 122 165.257421875 125.9572265625 166.1 128.25 167.5685546875 132.2001953125 170.1 134.55 176.46015625 140.468359375 188.5 137.1
L 188.5 137.15
Q 188.9333984375 137.0455078125 189.25 136.9 189.6673828125 136.8966796875 190.05 136.85
L 190.1 136.85
Q 191.330078125 136.5640625 192.2 135.75
L 192.25 135.75
Q 193.3544921875 134.7171875 194.5 132
L 202.35 113.2
Q 204.0478515625 109.21875 204.85 107.6
L 204.85 107.6
Q 206.2775390625 104.559765625 207.9 102.5 210.3224609375 99.243359375 216.4 94.45
L 216.4 94.45
Q 223.2599609375 88.9525390625 226.95 86.25 232.9109375 81.9302734375 238.25 79.25 243.711328125 76.5109375 255.1 72.55 266.7611328125 68.5607421875 272.1 65.9 282.588671875 60.7259765625 292.85 51.1 300.159375 44.2568359375 309.95 32.25 310.4470703125 31.7279296875 310.7 31.65 310.838671875 31.631640625 310.95 31.65 311.0517578125 32.8064453125 311.8 34 311.76796875 34.184765625 311.7 34.35 311.636328125 34.508203125 311.65 34.65 311.7064453125 34.8263671875 311.8 34.9 311.95546875 35.034765625 312.1 35.05
L 312.55 35.05
Q 313.1001953125 35.794140625 314.05 36.6
L 314.05 36.6
Q 314.6623046875 37.1748046875 315.75 38.15 320.2708984375 42.2810546875 324.3 49.5 326.713671875 53.690234375 331.2 62.25
L 331.2 62.3
Q 334.1322265625 67.50703125 340.6 76.85
L 340.55 76.85
Q 342.54296875 79.7671875 343.95 80.85 348.0208984375 83.853125 355 81.4 355.819140625 82.3400390625 357.35 82.7 358.34140625 82.9873046875 360.25 83.3 361.4705078125 83.56484375 365.65 85.5 369.1185546875 87.1392578125 371.25 86.75
L 371.3 86.75
Q 372.0859375 86.587890625 373.5 85.95
L 373.5 85.95
Q 374.7958984375 85.3408203125 375.45 85.2 376.284375 85.058203125 378.55 85.15
L 378.6 85.15
Q 379.0546875 85.150390625 387.75 84.85 393.1046875 84.6072265625 396.6 85.85 397.778125 86.2763671875 400.05 87.15
L 400.1 87.15
Q 402.2982421875 87.879296875 403.8 87.55 403.9623046875 87.506640625 404.05 87.35 404.1841796875 87.2576171875 404.2 87.1 404.382421875 85.1716796875 404.4 83.35 416.6884765625 79.8251953125 428.05 71.15 438.287890625 63.32265625 448.5 50.75 459.5435546875 37.29609375 464.1 25.6 470.3294921875 10.2359375 467.6 -4.8 466.13671875 -12.7134765625 462.1 -20.5 458.1693359375 -27.9783203125 452.3 -34.6 441.6158203125 -46.7478515625 425.1 -55.4 415.4205078125 -60.4732421875 407.2 -62.45 398.0640625 -64.646875 383.95 -64.25 365.10546875 -63.683984375 361.15 -63.8 358.2966796875 -79.2357421875 347.85 -93.85 337.8490234375 -107.758984375 323.2 -118
L 323.25 -118
Q 298.1091796875 -135.6712890625 260.7 -141.9 237.6740234375 -145.7560546875 215.25 -144.65 192.3591796875 -143.49453125 171.75 -137.2 150.6322265625 -130.7583984375 132.7 -119.2 114.516015625 -107.3828125 101.1 -91.25
M 89.45 -58.6
Q 91.4833984375 -68.115625 98.15 -78.55 111.119921875 -98.588671875 133.45 -113.55 160.848828125 -131.768359375 195.15 -137.9 229.551171875 -144.0818359375 264.75 -137 299.4296875 -130.07890625 323 -112.35 336.4755859375 -102.3041015625 345.5 -89 355.1126953125 -74.9595703125 357.75 -60.25 357.7892578125 -60.0857421875 357.9 -60 358.0537109375 -59.8615234375 358.2 -59.85 364.2376953125 -59.39765625 378.6 -60.05 391.4626953125 -60.6451171875 398.85 -59.6 410.4501953125 -57.959375 422.1 -51.95 433.0591796875 -46.27890625 442.75 -37.4 450.45390625 -30.323046875 455.5 -22.75 461.2177734375 -14.212109375 463.15 -5.7 465.8203125 6.417578125 461.15 19.5 457.8951171875 28.9689453125 449.3 41 439.0857421875 55.2021484375 428.3 64.3 415.64375 75.0716796875 401.5 79.4
L 399.8 79.4
Q 399.664453125 79.400390625 399.55 79.45 399.421875 79.5490234375 399.35 79.65 399.287109375 79.80546875 399.3 79.95
L 399.45 81.9
Q 397.5259765625 82.037890625 394.15 80.95 389.878515625 79.58359375 388 79.7 387.0357421875 79.7533203125 385.5 80.15 383.683203125 80.6546875 383.3 80.7
L 383.25 80.7
Q 381.8037109375 80.9435546875 378.25 80.8 374.8755859375 80.65 373.1 81.1
L 373.1 81.1
Q 371.3330078125 81.7083984375 370.45 81.9 368.9775390625 82.221875 367.95 81.8 367.3951171875 81.55546875 366.3 80.6 365.125390625 79.644140625 364.3 79.35
L 364.3 79.35
Q 363.6150390625 79.0833984375 361.9 79.25
L 361.9 79.25
Q 360.604296875 79.332421875 359.9 79.05 359.3404296875 78.8451171875 358.5 78.1
L 358.55 78.1
Q 357.534765625 77.1748046875 357.05 76.9
L 357 76.9
Q 355.38203125 76.0291015625 352.35 77.15 349.65859375 78.248828125 348.35 78 347.32578125 77.7748046875 346.25 76.75 345.520703125 76.023828125 344.45 74.45 337.230859375 64.0435546875 334.05 58.25
L 334.05 58.25
Q 329.8359375 50.00859375 327.5 46 323.541015625 38.91875 319.2 34.9 316.955859375 32.8427734375 316.85 32.75 316.4890625 32.3869140625 316.2 32 316.188671875 31.8119140625 316.15 31.6
L 316.15 31.65
Q 315.9359375 29.8814453125 314.8 28.35 313.79140625 26.8603515625 312 26.05 310.275390625 25.2369140625 308.55 25.4 308.4443359375 25.416796875 308.35 25.45 308.2611328125 25.5212890625 308.2 25.6 298.176953125 38.8169921875 289.75 46.85 278.759765625 57.3845703125 267 62.9 262.2013671875 65.189453125 251 68.95
L 250.95 68.95
Q 240.339453125 72.638671875 235 75.3 229.4892578125 78.06953125 223.3 82.55
L 223.3 82.55
Q 219.60390625 85.14609375 212.45 90.9 206.016796875 96.1576171875 203.5 99.5 201.1587890625 102.5865234375 199.15 107.45
L 199.15 107.45
Q 197.025390625 113.1740234375 195.9 115.95 193.1625 122.96796875 189.35 129.85 189.0509765625 130.001953125 188.8 130.25 188.75703125 130.296484375 188.7 130.35 187.5455078125 132.2734375 185.4 133.35 183.2912109375 134.4435546875 180.8 134.35 178.3888671875 134.2466796875 176 132.95 173.5900390625 131.659765625 171.95 129.6 170.2955078125 127.3556640625 169.1 123.65 168.022265625 119.2509765625 167.3 117.1 167.2890625 116.969921875 167.2 116.85 167.103125 116.797265625 166.95 116.75 164.18984375 116.0611328125 161.3 117.8 160.026953125 118.58046875 156.85 121.4 150.619140625 127.1458984375 142 129.1 137.1041015625 130.240234375 132.6 129.4 127.4763671875 128.3919921875 124.45 124.95 122.6453125 122.8978515625 121.8 120.1 121.0548828125 117.4974609375 121.3 114.75
L 121.3 114.7
Q 121.6025390625 110.463671875 124.4 104.9 125.7201171875 102.2775390625 126.15 100.9
L 126.15 100.85
Q 126.8732421875 98.425390625 126.15 96.35 126.1296875 96.2171875 126 96.1 125.9279296875 96.030078125 125.8 96 123.0060546875 95.4951171875 119.4 95.55
L 119.35 95.55
Q 118.803125 95.6001953125 113.25 95.85 100.3533203125 96.353125 88.6 93.55 75.56015625 90.435546875 65.3 83.45
L 65.3 83.5
Q 59.1998046875 79.294921875 55.25 74.3
L 55.25 74.25
Q 50.6892578125 68.59609375 49.75 62.65 48.8716796875 57.169140625 51.3 49.5 56.8515625 31.90625 71.35 16.15
L 71.35 16.1
Q 81.8001953125 4.709765625 101.15 -9.25 103.0470703125 -10.636328125 103.8 -11.65
L 103.85 -11.65
Q 105.1955078125 -13.231640625 105.15 -15
L 105.15 -15.05
Q 105.2009765625 -16.8482421875 103.7 -18.85 103.00546875 -19.9013671875 100.85 -22.05 94.284765625 -28.680078125 91.3 -36
L 91.3 -36
Q 86.8734375 -46.4615234375 89.45 -58.6 Z"/>

<path fill="#795548" stroke="none" d="
M 98.15 -78.55
Q 91.4833984375 -68.115625 89.45 -58.6 86.8734375 -46.4615234375 91.3 -36
L 91.3 -36
Q 94.284765625 -28.680078125 100.85 -22.05 103.00546875 -19.9013671875 103.7 -18.85 105.2009765625 -16.8482421875 105.15 -15.05
L 105.15 -15
Q 105.1955078125 -13.231640625 103.85 -11.65
L 103.8 -11.65
Q 103.0470703125 -10.636328125 101.15 -9.25 81.8001953125 4.709765625 71.35 16.1
L 71.35 16.15
Q 56.8515625 31.90625 51.3 49.5 48.8716796875 57.169140625 49.75 62.65 50.6892578125 68.59609375 55.25 74.25
L 55.25 74.3
Q 59.1998046875 79.294921875 65.3 83.5
L 65.3 83.45
Q 75.56015625 90.435546875 88.6 93.55 100.3533203125 96.353125 113.25 95.85 118.803125 95.6001953125 119.35 95.55
L 119.4 95.55
Q 123.0060546875 95.4951171875 125.8 96 125.9279296875 96.030078125 126 96.1 126.1296875 96.2171875 126.15 96.35 126.8732421875 98.425390625 126.15 100.85
L 126.15 100.9
Q 125.7201171875 102.2775390625 124.4 104.9 121.6025390625 110.463671875 121.3 114.7
L 121.3 114.75
Q 121.0548828125 117.4974609375 121.8 120.1 122.6453125 122.8978515625 124.45 124.95 127.4763671875 128.3919921875 132.6 129.4 137.1041015625 130.240234375 142 129.1 150.619140625 127.1458984375 156.85 121.4 160.026953125 118.58046875 161.3 117.8 164.18984375 116.0611328125 166.95 116.75 167.103125 116.797265625 167.2 116.85 167.2890625 116.969921875 167.3 117.1 168.022265625 119.2509765625 169.1 123.65 170.2955078125 127.3556640625 171.95 129.6 173.5900390625 131.659765625 176 132.95 178.3888671875 134.2466796875 180.8 134.35 183.2912109375 134.4435546875 185.4 133.35 187.5455078125 132.2734375 188.7 130.35 188.75703125 130.296484375 188.8 130.25 189.0509765625 130.001953125 189.35 129.85 193.1625 122.96796875 195.9 115.95 197.025390625 113.1740234375 199.15 107.45
L 199.15 107.45
Q 201.1587890625 102.5865234375 203.5 99.5 206.016796875 96.1576171875 212.45 90.9 219.60390625 85.14609375 223.3 82.55
L 223.3 82.55
Q 229.4892578125 78.06953125 235 75.3 240.339453125 72.638671875 250.95 68.95
L 251 68.95
Q 262.2013671875 65.189453125 267 62.9 278.759765625 57.3845703125 289.75 46.85 298.176953125 38.8169921875 308.2 25.6 308.2611328125 25.5212890625 308.35 25.45 308.4443359375 25.416796875 308.55 25.4 310.275390625 25.2369140625 312 26.05 313.79140625 26.8603515625 314.8 28.35 315.9359375 29.8814453125 316.15 31.65
L 316.15 31.6
Q 316.188671875 31.8119140625 316.2 32 316.4890625 32.3869140625 316.85 32.75 316.955859375 32.8427734375 319.2 34.9 323.541015625 38.91875 327.5 46 329.8359375 50.00859375 334.05 58.25
L 334.05 58.25
Q 337.230859375 64.0435546875 344.45 74.45 345.520703125 76.023828125 346.25 76.75 347.32578125 77.7748046875 348.35 78 349.65859375 78.248828125 352.35 77.15 355.38203125 76.0291015625 357 76.9
L 357.05 76.9
Q 357.534765625 77.1748046875 358.55 78.1
L 358.5 78.1
Q 359.3404296875 78.8451171875 359.9 79.05 360.604296875 79.332421875 361.9 79.25
L 361.9 79.25
Q 363.6150390625 79.0833984375 364.3 79.35
L 364.3 79.35
Q 365.125390625 79.644140625 366.3 80.6 367.3951171875 81.55546875 367.95 81.8 368.9775390625 82.221875 370.45 81.9 371.3330078125 81.7083984375 373.1 81.1
L 373.1 81.1
Q 374.8755859375 80.65 378.25 80.8 381.8037109375 80.9435546875 383.25 80.7
L 383.3 80.7
Q 383.683203125 80.6546875 385.5 80.15 387.0357421875 79.7533203125 388 79.7 389.878515625 79.58359375 394.15 80.95 397.5259765625 82.037890625 399.45 81.9
L 399.3 79.95
Q 399.287109375 79.80546875 399.35 79.65 399.421875 79.5490234375 399.55 79.45 399.664453125 79.400390625 399.8 79.4
L 401.5 79.4
Q 415.64375 75.0716796875 428.3 64.3 439.0857421875 55.2021484375 449.3 41 457.8951171875 28.9689453125 461.15 19.5 465.8203125 6.417578125 463.15 -5.7 461.2177734375 -14.212109375 455.5 -22.75 450.45390625 -30.323046875 442.75 -37.4 433.0591796875 -46.27890625 422.1 -51.95 410.4501953125 -57.959375 398.85 -59.6 391.4626953125 -60.6451171875 378.6 -60.05 364.2376953125 -59.39765625 358.2 -59.85 358.0537109375 -59.8615234375 357.9 -60 357.7892578125 -60.0857421875 357.75 -60.25 355.1126953125 -74.9595703125 345.5 -89 336.4755859375 -102.3041015625 323 -112.35 299.4296875 -130.07890625 264.75 -137 229.551171875 -144.0818359375 195.15 -137.9 160.848828125 -131.768359375 133.45 -113.55 111.119921875 -98.588671875 98.15 -78.55 Z"/>
</g>

<g id="Layer3_0_FILL">
<path fill="#795548" stroke="none" d="
M 180.1 -15.75
Q 178.9185546875 -16.359765625 178.15 -16.8 177.709765625 -15.2705078125 176.65 -14.1 175.1296875 -12.3548828125 171.3 -10.75 163.141796875 -7.3501953125 153.95 -6.05 160.4466796875 -4.57265625 171.45 -3.55 171.5431640625 -3.5400390625 171.6 -3.5 171.7546875 -3.5 171.9 -3.5 172.14296875 -3.501953125 172.45 -3.5 172.5216796875 -3.4984375 172.6 -3.5 177.024609375 -3.401953125 181.35 -3.85 190.2087890625 -4.69453125 203.55 -8.55
L 203.55 -8.55
Q 221.0966796875 -13.5408203125 225.5 -14.5 229.4646484375 -15.222265625 230.65 -13.25 231.8525390625 -11.6330078125 230.4 -8.85 228.8291015625 -5.8408203125 228.4 -4.25
L 228.4 -4.2
Q 227.6361328125 -1.5787109375 228.45 0.55 229.7783203125 4.087890625 234.35 6 239.9955078125 8.3841796875 248.75 7.3 258.5326171875 6.001171875 271.3 0.85 278.6142578125 -2.01328125 293 -8.1
L 293 -8.15
Q 296.275390625 -9.2798828125 297.4 -7.45
L 297.45 -7.4
Q 297.8091796875 -6.774609375 297.75 -5.25
L 297.75 -5.25
Q 297.76640625 -1.226171875 300.3 2.75 302.7677734375 6.63125 306.6 9
L 306.6 9
Q 310.284375 11.2720703125 314.85 12.1 318.9767578125 12.8384765625 323.3 12.3 329.773828125 11.5052734375 338.7 7.25 340.30625 6.4595703125 340.2 5.55 340.1783203125 5.449609375 340.2 5.35 340.23046875 5.241796875 340.3 5.15 341.299609375 3.6599609375 343.5 4.85
L 343.5 4.85
Q 344.366015625 5.35390625 344.8 6 344.9720703125 6.009765625 345.1 6.1 345.22578125 6.184375 345.25 6.3 346.025 8.4376953125 346.65 10.35 347.9908203125 14.7412109375 348.55 18.2 349.6708984375 24.82421875 348.5 30 347.3775390625 34.92890625 343.05 41.15 339.4443359375 46.4443359375 331.4 55.75 323.2939453125 65.2443359375 319.8 70.2 316.1134765625 75.4912109375 315.05 79.55 313.4412109375 85.37109375 316.1 90.25
L 316.1 90.25
Q 318.2095703125 94.364453125 323.85 97.95 334.8271484375 105.206640625 348.55 106.95 351.2419921875 107.272265625 352.35 107.9 353.384375 108.494140625 353.9 109.5
L 353.85 109.5
Q 354.4943359375 110.6099609375 354.15 111.6 354.140625 111.7166015625 354.05 111.8 353.953125 111.8912109375 353.8 111.9 346.4529296875 113.8033203125 340.9 119 335.63828125 123.87890625 333.3 130.6 333.3037109375 130.651171875 333.25 130.7 333.108203125 130.9916015625 333 131.3
L 333 131.35
Q 332.312109375 133.4498046875 332.25 135.15 332.298046875 136.2447265625 332.6 137.15
L 332.6 137.2
Q 333.8431640625 140.7123046875 338.65 143.05 348.7421875 148.012890625 363.15 144.9 379.4599609375 141.4333984375 389.8 132 395.3501953125 127.0408203125 398.8 120.5 402.3078125 113.7580078125 403.1 106.25 404.090234375 96.8888671875 400.65 84.95 400.5703125 84.6126953125 400.45 84.25 398.6955078125 82.8146484375 397.6 80.75 396.3 78.05 396.05 74.55 395.85 71.95 396.4 68.25 397.75 60.3 398.25 56.25 399.25 49.25 399 44.1 398.65 33.2 392.95 22.85 389.95 17.55 386.1 13.65 381.8 9.3 376.85 7.35 372.15 5.5 366.1 5.9 360.15 -2.3 352.75 -8.45 344.65 -15.1 331 -21.85 307.3 -33.6 288.9 -35.6 285.15 -35.95 283.25 -36.15 280.05 -36.45 277.7 -37 275.8 -37.45 272.95 -38.45 268.3 -40.1 268.15 -40.15 258.55 -43.3 248 -43.35 238.1 -43.45 228.25 -40.85 212.65 -36.8 193.6 -24.9 186.4 -20.4 180.1 -15.75 Z"/>

<path fill="#000000" stroke="none" d="
M 142.5 -6.9
Q 142.7533203125 -5.8765625 143.55 -5.2
L 143.55 -5.2
Q 144.562890625 -4.213671875 146.75 -3.5 153.7314453125 -1.1625 161.3 -0.2 158.86328125 2.336328125 156.6 4.9 139.673828125 24.840234375 135.85 47.9 133.7861328125 60.4994140625 135.95 73.2 138.223046875 86.568359375 144.8 98.05 155.0228515625 115.80234375 174.6 128.55 193.301953125 140.6765625 217.25 145.9 237.144140625 150.1568359375 261.45 149.65 299.6583984375 148.8125 328.15 137.3 328.666796875 140.396875 330.55 142.75 332.9642578125 145.8595703125 338.4 147.85 348.331640625 151.36796875 361.8 149.5 378.9111328125 147.028125 390.4 138.3 396.674609375 133.546484375 400.8 127.2 405.1287109375 120.6431640625 406.75 113.1 409.1697265625 101.40234375 405 86.25
L 405 86.25
Q 404.375 84.1 403.65 81.9 403.6251953125 81.748046875 403.5 81.65 403.3787109375 81.5564453125 403.2 81.55
L 400.25 81.4
Q 400.1119140625 81.3869140625 399.95 81.45 399.83359375 81.56796875 399.75 81.7 399.7224609375 81.887109375 399.75 82.05 400.1203125 83.1626953125 400.45 84.25 400.5703125 84.6126953125 400.65 84.95 404.090234375 96.8888671875 403.1 106.25 402.3078125 113.7580078125 398.8 120.5 395.3501953125 127.0408203125 389.8 132 379.4599609375 141.4333984375 363.15 144.9 348.7421875 148.012890625 338.65 143.05 333.8431640625 140.7123046875 332.6 137.2
L 332.6 137.15
Q 332.298046875 136.2447265625 332.25 135.15 332.312109375 133.4498046875 333 131.35
L 333 131.3
Q 333.108203125 130.9916015625 333.25 130.7 333.3037109375 130.651171875 333.3 130.6 335.63828125 123.87890625 340.9 119 346.4529296875 113.8033203125 353.8 111.9 353.953125 111.8912109375 354.05 111.8 354.140625 111.7166015625 354.15 111.6 354.4943359375 110.6099609375 353.85 109.5
L 353.9 109.5
Q 353.384375 108.494140625 352.35 107.9 351.2419921875 107.272265625 348.55 106.95 334.8271484375 105.206640625 323.85 97.95 318.2095703125 94.364453125 316.1 90.25
L 316.1 90.25
Q 313.4412109375 85.37109375 315.05 79.55 316.1134765625 75.4912109375 319.8 70.2 323.2939453125 65.2443359375 331.4 55.75 339.4443359375 46.4443359375 343.05 41.15 347.3775390625 34.92890625 348.5 30 349.6708984375 24.82421875 348.55 18.2 347.9908203125 14.7412109375 346.65 10.35 346.025 8.4376953125 345.25 6.3 345.22578125 6.184375 345.1 6.1 344.9720703125 6.009765625 344.8 6 344.366015625 5.35390625 343.5 4.85
L 343.5 4.85
Q 341.299609375 3.6599609375 340.3 5.15 340.23046875 5.241796875 340.2 5.35 340.1783203125 5.449609375 340.2 5.55 340.30625 6.4595703125 338.7 7.25 329.773828125 11.5052734375 323.3 12.3 318.9767578125 12.8384765625 314.85 12.1 310.284375 11.2720703125 306.6 9
L 306.6 9
Q 302.7677734375 6.63125 300.3 2.75 297.76640625 -1.226171875 297.75 -5.25
L 297.75 -5.25
Q 297.8091796875 -6.774609375 297.45 -7.4
L 297.4 -7.45
Q 296.275390625 -9.2798828125 293 -8.15
L 293 -8.1
Q 278.6142578125 -2.01328125 271.3 0.85 258.5326171875 6.001171875 248.75 7.3 239.9955078125 8.3841796875 234.35 6 229.7783203125 4.087890625 228.45 0.55 227.6361328125 -1.5787109375 228.4 -4.2
L 228.4 -4.25
Q 228.8291015625 -5.8408203125 230.4 -8.85 231.8525390625 -11.6330078125 230.65 -13.25 229.4646484375 -15.222265625 225.5 -14.5 221.0966796875 -13.5408203125 203.55 -8.55
L 203.55 -8.55
Q 190.2087890625 -4.69453125 181.35 -3.85 177.024609375 -3.401953125 172.6 -3.5 172.5216796875 -3.4984375 172.45 -3.5 172.14296875 -3.501953125 171.9 -3.5 171.7546875 -3.5 171.6 -3.5 171.5431640625 -3.5400390625 171.45 -3.55 160.4466796875 -4.57265625 153.95 -6.05 163.141796875 -7.3501953125 171.3 -10.75 175.1296875 -12.3548828125 176.65 -14.1 177.709765625 -15.2705078125 178.15 -16.8 178.1599609375 -16.8203125 178.15 -16.9 178.196484375 -16.9376953125 178.2 -17 178.2 -17.034765625 178.2 -17.1
L 178.2 -17.1
Q 178.6529296875 -18.8349609375 178.05 -20.5 178.0087890625 -20.6373046875 177.85 -20.75 177.6986328125 -20.8212890625 177.5 -20.8 176.03828125 -20.5908203125 174.55 -19.6 174.308203125 -19.5521484375 174.2 -19.35 173.571875 -18.94921875 171.7 -17.5 166.6134765625 -13.455078125 158.4 -11.45 153.2017578125 -10.138671875 143.1 -9.05 142.9775390625 -9.0404296875 142.85 -9 142.765625 -8.8943359375 142.7 -8.8 142.25625 -7.99140625 142.5 -6.9
L 142.5 -6.9
M 225.05 -9.9
Q 223.8232421875 -6.0904296875 223.6 -3.55 223.1359375 0.7220703125 225 3.95 226.9279296875 7.379296875 231.2 9.4 234.6509765625 11.0384765625 239.15 11.5 246.5208984375 12.311328125 254.8 10.8 261.283203125 9.591796875 269.5 6.7 278.821875 3.4083984375 294.1 -3.4 293.661328125 -0.1794921875 295.2 3.4 296.88984375 7.2515625 300.2 10.05 305.8158203125 14.8728515625 315.05 16.15 322.6638671875 17.21484375 330 15.7 336.862890625 14.1998046875 342.5 10.65 342.6265625 10.9798828125 342.7 11.3
L 342.7 11.25
Q 343.17421875 12.8865234375 343.8 14.9
L 343.8 14.85
Q 345.0986328125 19.687890625 345 23.05 344.904296875 26.7388671875 343.25 30.55 341.90625 33.46640625 339.4 37.2
L 339.45 37.2
Q 335.8572265625 42.45390625 329.1 50.25 320.70703125 60.1931640625 318.5 63.1 313.241015625 69.92109375 311.4 74.9 308.7650390625 82.495703125 311.1 89.35 312.7083984375 94.108203125 316.8 98.2 320.45234375 101.958984375 325.4 104.55 329.56796875 106.7158203125 335.05 108.25 337.905078125 109.0923828125 343.65 110.4 338.5318359375 113.191796875 334.7 117.75
L 334.7 117.75
Q 330.492578125 122.96484375 328.75 129.4 328.4001953125 130.7126953125 328.2 131.95 327.3587890625 132.310546875 326.45 132.7 310.5470703125 139.3693359375 292.7 142.55 284.0716796875 144.0990234375 272.9 145 246.6310546875 146.99140625 224.95 143.1 198.7986328125 138.32109375 178.35 125.35 167.6318359375 118.6076171875 159.5 110
L 159.5 110
Q 150.6630859375 100.7583984375 145.7 90.4 139.298046875 77.1302734375 139.2 61.95 139.0564453125 47.691015625 144.35 34.4 151.5037109375 16.655859375 168.35 0.4 177.58671875 0.8892578125 187.65 -0.5 196.5474609375 -1.7599609375 207.15 -4.6 213.3865234375 -6.2568359375 225.05 -9.9
M 222.05 26.85
Q 222.01484375 26.696875 221.85 26.55 221.7478515625 26.4576171875 221.55 26.45
L 184 24.3
Q 183.89375 24.2892578125 183.75 24.35 183.650390625 24.4111328125 183.55 24.5 183.5029296875 24.640234375 183.5 24.75
L 182.45 60.25
Q 182.449609375 60.4224609375 182.5 60.55 182.59765625 60.6779296875 182.7 60.75 182.8423828125 60.813671875 182.95 60.8
L 186.45 60.55
Q 186.66640625 60.537109375 186.8 60.4 186.93828125 60.2634765625 186.95 60.05
L 187.65 39.8 187.45 28.4 221.9 30.15
Q 222.073046875 30.1552734375 222.2 30.05 222.3326171875 30.0044921875 222.4 29.85 222.46875 29.7306640625 222.45 29.55
L 222.05 26.85
M 276.4 72.4
Q 276.296484375 72.306640625 276.1 72.3
L 273.3 72.2
Q 273.1783203125 72.2 273.05 72.25 272.92265625 72.33515625 272.85 72.45 272.7869140625 72.5794921875 272.8 72.7 272.9984375 76.5134765625 271.4 80.4 269.8732421875 84.018359375 267.05 87.05 262.1888671875 92.2873046875 253.85 95.9 242.250390625 101.051171875 230.8 101.05 218.10390625 101.05234375 208.2 94.8 205.5361328125 93.1009765625 204.65 92.7 202.491015625 91.5818359375 200.6 91.7 200.48984375 91.705078125 200.35 91.75 200.2623046875 91.8525390625 200.2 91.95 199.2451171875 93.7775390625 200.7 95.75 201.5396484375 96.91953125 203.45 97.95 214.849609375 104.7404296875 229 105.25 242.27578125 105.608984375 255.25 100.4 265.3548828125 96.4669921875 270.9 90.2 274.193359375 86.558203125 275.7 82.1
L 275.7 82.1
Q 277.3701171875 77.284375 276.6 72.7 276.56484375 72.546484375 276.4 72.4
M 285.05 30.75
Q 285.11640625 30.61796875 285.1 30.45
L 284.65 27.35
Q 284.6259765625 27.199609375 284.5 27.05 284.37265625 26.96015625 284.2 26.95 279.6 26.55 275.05 26.15 263.525 25.24921875 252 25.75
L 251.95 25.75
Q 249.625 25.8005859375 247.3 25.9 247.1880859375 25.900390625 247.05 25.95 246.9576171875 26.0625 246.9 26.2 246.8361328125 26.3322265625 246.85 26.45 247.2498046875 29.3625 247.55 32.25 248.7970703125 43.7625 248.3 55.2 248.1 59.0248046875 247.85 62.8 247.8380859375 62.957421875 247.9 63.05 247.9724609375 63.2005859375 248.1 63.25 248.215234375 63.348828125 248.35 63.35
L 251.25 63.35
Q 251.436328125 63.3505859375 251.55 63.2 251.722265625 63.09296875 251.75 62.9 252 60.85 252.2 58.8 252.9015625 52.525 252.9 46.25 252.9015625 39.9748046875 252.2 33.7 251.98359375 31.8712890625 251.7 30.05
L 270.25 29.8
Q 276.149609375 30.95390625 282.15 31.05 283.35 31.05 284.6 31.05 284.748828125 31.05234375 284.85 30.95 284.99375 30.8896484375 285.05 30.75 Z"/>

<path fill="#FFE0BD" stroke="none" d="
M 223.6 -3.55
Q 223.8232421875 -6.0904296875 225.05 -9.9 213.3865234375 -6.2568359375 207.15 -4.6 196.5474609375 -1.7599609375 187.65 -0.5 177.58671875 0.8892578125 168.35 0.4 151.5037109375 16.655859375 144.35 34.4 139.0564453125 47.691015625 139.2 61.95 139.298046875 77.1302734375 145.7 90.4 150.6630859375 100.7583984375 159.5 110
L 159.5 110
Q 167.6318359375 118.6076171875 178.35 125.35 198.7986328125 138.32109375 224.95 143.1 246.6310546875 146.99140625 272.9 145 284.0716796875 144.0990234375 292.7 142.55 310.5470703125 139.3693359375 326.45 132.7 327.3587890625 132.310546875 328.2 131.95 328.4001953125 130.7126953125 328.75 129.4 330.492578125 122.96484375 334.7 117.75
L 334.7 117.75
Q 338.5318359375 113.191796875 343.65 110.4 337.905078125 109.0923828125 335.05 108.25 329.56796875 106.7158203125 325.4 104.55 320.45234375 101.958984375 316.8 98.2 312.7083984375 94.108203125 311.1 89.35 308.7650390625 82.495703125 311.4 74.9 313.241015625 69.92109375 318.5 63.1 320.70703125 60.1931640625 329.1 50.25 335.8572265625 42.45390625 339.45 37.2
L 339.4 37.2
Q 341.90625 33.46640625 343.25 30.55 344.904296875 26.7388671875 345 23.05 345.0986328125 19.687890625 343.8 14.85
L 343.8 14.9
Q 343.17421875 12.8865234375 342.7 11.25
L 342.7 11.3
Q 342.6265625 10.9798828125 342.5 10.65 336.862890625 14.1998046875 330 15.7 322.6638671875 17.21484375 315.05 16.15 305.8158203125 14.8728515625 300.2 10.05 296.88984375 7.2515625 295.2 3.4 293.661328125 -0.1794921875 294.1 -3.4 278.821875 3.4083984375 269.5 6.7 261.283203125 9.591796875 254.8 10.8 246.5208984375 12.311328125 239.15 11.5 234.6509765625 11.0384765625 231.2 9.4 226.9279296875 7.379296875 225 3.95 223.1359375 0.7220703125 223.6 -3.55
M 285.1 30.45
Q 285.11640625 30.61796875 285.05 30.75 284.99375 30.8896484375 284.85 30.95 284.748828125 31.05234375 284.6 31.05 283.35 31.05 282.15 31.05 276.149609375 30.95390625 270.25 29.8
L 251.7 30.05
Q 251.98359375 31.8712890625 252.2 33.7 252.9015625 39.9748046875 252.9 46.25 252.9015625 52.525 252.2 58.8 252 60.85 251.75 62.9 251.722265625 63.09296875 251.55 63.2 251.436328125 63.3505859375 251.25 63.35
L 248.35 63.35
Q 248.215234375 63.348828125 248.1 63.25 247.9724609375 63.2005859375 247.9 63.05 247.8380859375 62.957421875 247.85 62.8 248.1 59.0248046875 248.3 55.2 248.7970703125 43.7625 247.55 32.25 247.2498046875 29.3625 246.85 26.45 246.8361328125 26.3322265625 246.9 26.2 246.9576171875 26.0625 247.05 25.95 247.1880859375 25.900390625 247.3 25.9 249.625 25.8005859375 251.95 25.75
L 252 25.75
Q 263.525 25.24921875 275.05 26.15 279.6 26.55 284.2 26.95 284.37265625 26.96015625 284.5 27.05 284.6259765625 27.199609375 284.65 27.35
L 285.1 30.45
M 276.1 72.3
Q 276.296484375 72.306640625 276.4 72.4 276.56484375 72.546484375 276.6 72.7 277.3701171875 77.284375 275.7 82.1
L 275.7 82.1
Q 274.193359375 86.558203125 270.9 90.2 265.3548828125 96.4669921875 255.25 100.4 242.27578125 105.608984375 229 105.25 214.849609375 104.7404296875 203.45 97.95 201.5396484375 96.91953125 200.7 95.75 199.2451171875 93.7775390625 200.2 91.95 200.2623046875 91.8525390625 200.35 91.75 200.48984375 91.705078125 200.6 91.7 202.491015625 91.5818359375 204.65 92.7 205.5361328125 93.1009765625 208.2 94.8 218.10390625 101.05234375 230.8 101.05 242.250390625 101.051171875 253.85 95.9 262.1888671875 92.2873046875 267.05 87.05 269.8732421875 84.018359375 271.4 80.4 272.9984375 76.5134765625 272.8 72.7 272.7869140625 72.5794921875 272.85 72.45 272.92265625 72.33515625 273.05 72.25 273.1783203125 72.2 273.3 72.2
L 276.1 72.3
M 221.85 26.55
Q 222.01484375 26.696875 222.05 26.85
L 222.45 29.55
Q 222.46875 29.7306640625 222.4 29.85 222.3326171875 30.0044921875 222.2 30.05 222.073046875 30.1552734375 221.9 30.15
L 187.45 28.4 187.65 39.8 186.95 60.05
Q 186.93828125 60.2634765625 186.8 60.4 186.66640625 60.537109375 186.45 60.55
L 182.95 60.8
Q 182.8423828125 60.813671875 182.7 60.75 182.59765625 60.6779296875 182.5 60.55 182.449609375 60.4224609375 182.45 60.25
L 183.5 24.75
Q 183.5029296875 24.640234375 183.55 24.5 183.650390625 24.4111328125 183.75 24.35 183.89375 24.2892578125 184 24.3
L 221.55 26.45
Q 221.7478515625 26.4576171875 221.85 26.55 Z"/>
</g>

<g id="Layer1_0_FILL">
<path fill="#12274B" stroke="none" d="
M 99.1 -111.95
Q 51.35 -111.25 25.15 -112.15 5.75 -113.05 -4.05 -113.6 -21.35 -114.35 -33.25 -114.35 -47.3 -114.35 -80.4 -112.6 -110.65 -111.3 -127.5 -111.85 -135.45 -112.2 -148.85 -113.35 -164.5 -114.75 -170.15 -115 -192.7 -116.5 -237.3 -114.65 -282.3 -112.7 -304.55 -113 -310.75 -113.15 -321.55 -113.55 -333.85 -114 -338.55 -114.1 -344.95 -114.2 -364.2 -113.7
L -421.95 -110.75 -421.9 -104.5
Q -421.45 -104.55 -421 -104.45 -419.7 -91.25 -420.25 -73.85 -420.65 -61.6 -422.25 -36.75 -423.3 -18 -423.15 5.75 -423.2 18.8 -422.85 48.05
L -421.85 109.45
Q -417 109.85 -410.2 109.8 -406.35 109.6 -398.55 109.2 -383.65 108.5 -357.55 109.6 -328.35 110.9 -316.55 110.75 -310.65 110.6 -296.6 110 -283.8 109.4 -276.65 109.4 -266.7 109.2 -251.35 110.35 -227.15 111.85 -226.15 111.95 -211.15 112.6 -190.6 112.65 -164.8 112.65 -146.85 111.85 -138.85 111.45 -113.1 109.85 -92.1 108.5 -79.3 108.3 -64.1 107.9 -30.7 109.05 25.8 110.85 96.65 111.65 138.95 112.1 224 112.55
L 294.85 112.9
Q 337 113 357.1 112.85 377.6 112.55 421.05 110.7 420.9 109.8 420.75 108.95 421.5 94.35 421.65 90.9 422 80.8 421.7 72.9 421.55 71.45 420.55 51.15 419.85 37.85 420.3 29.3 421.2 19.1 421.3 14.1 421.25 9.55 420.6 2 419.6 -7.1 419.55 -10 418.95 -18.4 420.3 -32.6 421.6 -49.5 421.85 -55.2 421.75 -62.9 420.2 -84.8 419.5 -93.05 418.85 -113.5 414.05 -113.5 414 -113.25
L 401.65 -113.5
Q 389.25 -113.65 383.25 -113.25 378.8 -112.9 371.75 -112 362.9 -110.9 360.2 -110.6 350.25 -109.85 338.3 -109.9 330.15 -110.2 316.35 -110.9 293.5 -112.2 285.65 -112.5 268.3 -113.3 254.9 -112.95 248.75 -112.9 235.95 -112.25 223.55 -111.75 217.15 -111.45 208 -111.4 195.05 -111.6 180.35 -112 173.05 -112.25 150.4 -112.8 99.1 -111.95
M 17.15 -105.15
Q 31.8 -104.55 65 -104.55
L 199.9 -104.7
Q 230.05 -104.9 242.2 -105.15 257.25 -105.6 261.65 -105.7 271.85 -105.9 315.4 -103.35 348.4 -101.5 369 -103.85 373.9 -104.45 383.8 -105.7 392.45 -106.7 398.65 -106.5 400.75 -106.45 405.25 -106.05 409.75 -105.6 411.85 -105.6 412.65 -105.65 413.45 -105.5 412.8 -92.25 413.9 -79.2 414.1 -75.05 415.1 -66.75 415.75 -59.55 415.55 -54.35 415.5 -50.65 414.8 -44.35 413.75 -36.3 413.7 -34.3 412.9 -25.75 413.25 -14 413.35 -7.25 414 6.3 414.1 13.3 414.4 27.25
L 414.6 43.75
Q 415.05 80.55 415.1 104.15 385.8 105.9 358.85 106.4 342.4 106.65 309.75 106.5
L 121.6 105.5
Q 80.15 105.3 57.3 105.05 21.7 104.6 -7.1 103.5 -33.95 102.35 -47.4 102 -70.65 101.3 -87.7 101.75 -98.05 102 -112.85 103 -129.7 104.1 -138 104.6 -184.15 107.2 -222.7 105.35 -240.45 104.3 -249.2 103.85 -265.15 102.85 -275.75 103 -282.45 103.05 -293.95 103.5 -307.35 104 -312.2 104.25 -325.3 104.5 -363.85 102.9 -396.15 101.6 -415.45 103.3 -418 34.25 -416 -34.85 -415.8 -45.15 -415.2 -51.7 -414.05 -62.1 -413.7 -67.15 -413.1 -77.25 -413.9 -89.2 -414.35 -94.65 -415.45 -104.75 -359 -106.1 -330 -105.85 -279.05 -105.85 -238.5 -106.9 -229.5 -107.3 -211.3 -107.75 -195.45 -108.25 -184.2 -107.8 -173.85 -107.5 -150.5 -105.85 -128.75 -104.3 -116.85 -104 -102.35 -103.85 -71.25 -105.55 -41.5 -107.15 -25.6 -107 -17.1 -106.9 -4.25 -106.25 15.95 -105.2 17.15 -105.15 Z"/>
</g>

<g id="Mask_logo_0_1_MASK_0_FILL">
<path fill="#FFFFFF" stroke="none" d="
M -43.85 -49.15
Q -48.45 -46.2 -50.7 -40.85 -53.1 -35.55 -53.95 -24.05 -54.5 -16.05 -53.5 -10.9 -52.5 -5.75 -50.65 -2.85 -48.75 0.05 -42.75 6.5 -36.8 12.85 -35.35 15.6 -33.95 18.3 -34.6 27.2 -34.85 31.2 -35.85 33.25 -36.85 35.3 -38.55 35.3 -40.3 35.3 -40.85 33.7 -41.45 32.05 -41 26.45
L -40.15 14.25 -56.2 14.25 -56.65 20.8
Q -57.5 32.05 -56.45 38.2 -55.35 44.35 -50.7 48.3 -46.1 52.25 -39.15 52.25 -32.85 52.25 -27.8 48.85 -22.8 45.4 -20.75 40.3 -18.75 35.25 -18 24.5 -16.9 9.8 -19.35 3.15 -21.9 -3.45 -32.7 -13.8 -36.45 -17.4 -37.15 -19.95 -37.85 -22.5 -37.5 -27.5 -37.2 -31.4 -36.25 -33.3 -35.3 -35.25 -33.75 -35.25 -32.3 -35.25 -31.85 -33.8 -31.3 -32.4 -31.65 -27.2
L -32.2 -19.75 -16.15 -19.75 -15.85 -23.7
Q -15 -35.65 -16.2 -40.65 -17.35 -45.65 -21.85 -48.9 -26.4 -52.2 -33.1 -52.2 -39.3 -52.2 -43.85 -49.15
M -105.6 -11.05
L -116.4 -11.05 -115 -30.05 -103.45 -30.05 -102 -50.1 -130.85 -50.1 -138.15 50.15 -108.15 50.15 -106.7 30.1 -119.4 30.1 -117.8 8.05 -107 8.05 -105.6 -11.05
M -137.4 -35.9
Q -137.75 -40.45 -139.4 -43.6 -141.1 -46.75 -144.75 -48.45 -148.45 -50.1 -155.55 -50.1
L -172.95 -50.1 -180.25 50.15 -162.95 50.15 -160 9.8 -155.35 9.8
Q -149.7 9.8 -146 7.4 -142.35 5.05 -140.7 0.7 -139.05 -3.7 -138.35 -13.3
L -137.75 -22.05
Q -137.05 -31.45 -137.4 -35.9
M -156.9 -32.95
Q -153.55 -32.95 -152.55 -31.4 -151.6 -29.85 -152 -24.7
L -152.6 -16.5
Q -153 -10.9 -154.05 -9.1 -155.1 -7.35 -157.5 -7.35 -158 -7.35 -158.75 -7.45
L -156.9 -32.95
M -83.55 -50.1
L -95.8 -50.1 -103.1 50.15 -85.8 50.15 -82.5 4.95
Q -78.95 4.95 -78.2 6.85 -77.55 8.8 -78.1 16.85
L -80.55 50.15 -64.5 50.15 -62.55 23.7
Q -61.7 11.55 -61.9 8.9 -62.15 6.2 -63.65 2.95 -65.25 -0.25 -70.2 -2.15 -64.5 -3 -62.25 -7 -60.05 -11.05 -59.2 -22.75 -58.25 -35.55 -60.55 -41.35 -62.85 -47.25 -67.05 -48.7 -71.3 -50.1 -83.55 -50.1
M -79.75 -32.95
Q -76.75 -32.95 -75.7 -31.45 -74.7 -30 -75.05 -25.2
L -75.45 -19.7
Q -75.95 -13.05 -77.2 -11.85 -78.45 -10.65 -81.35 -10.65
L -79.75 -32.95
M -179.55 -50.1
L -196.85 -50.1 -202.25 23.75
Q -202.75 31.25 -203.35 33.3 -204 35.3 -205.6 35.3 -207.05 35.3 -207.4 33.5 -207.75 31.65 -207.25 25.05
L -201.8 -50.1 -219.1 -50.1 -223.4 9.2
Q -224.65 26.2 -224.65 31.5 -224.55 36.8 -222.65 41.55 -220.75 46.3 -216.45 49.3 -212.1 52.25 -206.15 52.25 -200.75 52.25 -196.55 49.8 -192.5 47.25 -189.7 42.4 -186.95 37.5 -186.1 32.95 -185.25 28.3 -184.45 16.9
L -179.55 -50.1
M -255.55 -49.15
Q -260.15 -46.2 -262.4 -40.85 -264.8 -35.55 -265.65 -24.05 -266.2 -16.05 -265.2 -10.9 -264.2 -5.75 -262.35 -2.85 -260.45 0.05 -254.45 6.5 -248.5 12.85 -247.05 15.6 -245.65 18.3 -246.3 27.2 -246.55 31.2 -247.55 33.25 -248.55 35.3 -250.25 35.3 -252 35.3 -252.55 33.7 -253.15 32.05 -252.7 26.45
L -251.85 14.25 -267.9 14.25 -268.35 20.8
Q -269.2 32.05 -268.15 38.2 -267.05 44.35 -262.4 48.3 -257.8 52.25 -250.85 52.25 -244.55 52.25 -239.5 48.85 -234.5 45.4 -232.45 40.3 -230.45 35.25 -229.7 24.5 -228.6 9.8 -231.05 3.15 -233.6 -3.45 -244.4 -13.8 -248.15 -17.4 -248.85 -19.95 -249.55 -22.5 -249.2 -27.5 -248.9 -31.4 -247.95 -33.3 -247 -35.25 -245.45 -35.25 -244 -35.25 -243.55 -33.8 -243 -32.4 -243.35 -27.2
L -243.9 -19.75 -227.85 -19.75 -227.55 -23.7
Q -226.7 -35.65 -227.9 -40.65 -229.05 -45.65 -233.55 -48.9 -238.1 -52.2 -244.8 -52.2 -251 -52.2 -255.55 -49.15
M 240.7 -49.35
Q 236.15 -46.7 233.25 -41.3 230.35 -35.9 229.65 -29.85 228.8 -23.85 227.5 -5.95
L 226.5 7.9
Q 225.25 24.5 225.25 30.25 225.25 36.05 227.2 41.3 229.1 46.5 233.15 49.3 237.2 52.05 243.9 52.05 249.3 52.05 253.55 49.65 257.75 47.25 260.45 42.9 263.05 38.5 263.9 33.35 264.85 28.25 265.6 17.7
L 266.2 9.7
Q 266.85 0.85 266.25 -4.35 265.7 -9.55 262.45 -13.25 259.3 -16.95 254.7 -16.95 251.1 -16.95 248.5 -14.95 245.85 -12.95 244.3 -8.9
L 245.45 -24.9
Q 245.9 -30.55 246.1 -32.4 246.4 -34.25 247.3 -35.4 248.2 -36.6 249.45 -36.6 251 -36.6 251.85 -35.35 252.6 -34.1 252.55 -32.25 252.55 -30.45 252 -23.45
L 268.6 -23.45
Q 269.3 -32.9 267.8 -39.1 266.35 -45.25 262.1 -48.7 257.9 -52.1 250.9 -52.1 245.25 -52.1 240.7 -49.35
M 249.75 7.8
L 248.35 26.55
Q 247.85 33.5 246.6 35.1 245.35 36.65 244.3 36.65 242.5 36.65 241.95 34.6 241.3 32.55 241.75 25.95
L 243.1 7.8
Q 243.5 2.3 244.4 0.45 245.35 -1.5 247.1 -1.5 248.85 -1.5 249.45 0.5 250.15 2.45 249.75 7.8
M 190.15 -47
Q 185.4 -42 184.35 -27.6
L 183.75 -19.1 200.35 -19.1 200.95 -27.3
Q 201.35 -33.05 202.15 -34.8 202.9 -36.6 204.6 -36.6 206.15 -36.6 206.75 -34.95 207.35 -33.25 206.95 -28
L 206.55 -22.4
Q 206.2 -17.55 205.4 -15.25 204.65 -12.95 203.2 -12.25 201.75 -11.6 195.8 -11.6
L 194.75 2.95
Q 199.6 3.1 201.2 3.95 202.85 4.75 203.5 7.4 204.15 10.1 203.75 15.85
L 203.25 22.8
Q 202.55 32.2 201.8 34.4 201.05 36.65 199.1 36.65 197.35 36.65 196.95 34.9 196.55 33.1 197 26.6
L 198.2 10.35 181.6 10.35 181 18.25
Q 180 32.55 181 38.4 182 44.15 186.2 48.15 190.4 52.15 198.3 52.15 205.2 52.15 209.9 48.65 214.6 45.25 216.9 38.65 219.15 32.05 220.05 20.1 221.2 4 219.7 -0.4 218.15 -4.7 214.55 -6.65 218.55 -9.75 220.35 -13.5 222.15 -17.2 222.8 -25.65 223.7 -38.1 219.95 -45.1 216.25 -52.1 204.35 -52.1 194.85 -52.1 190.15 -47
M 150.2 -22.35
L 151.85 -22.35
Q 157.6 -22.35 159.15 -21.1 160.7 -19.95 160.95 -17.6 161.1 -15.25 160.25 -3.6
L 156.35 50.15 172.95 50.15 180.25 -50.1 170.45 -50.1
Q 163.35 -37.95 151.05 -34.05
L 150.2 -22.35
M 118.2 -49.3
Q 113.65 -46.45 110.85 -41.45 108 -36.4 107.1 -30.95 106.2 -25.6 105.45 -14.75
L 103.3 14.55
Q 102.2 29.3 103.3 36.65 104.35 43.95 109 48.1 113.6 52.25 121.2 52.25 128.55 52.25 133.9 47.35 139.2 42.45 141.2 35.95 143.05 29.4 144.2 13.85
L 144.5 9.95 127.25 9.95 126.3 22.6
Q 125.7 30.85 124.95 33.05 124.2 35.3 122.25 35.3 120.25 35.3 119.8 33.05 119.4 30.85 119.95 23.5
L 123.35 -23.05
Q 123.9 -30.65 124.6 -32.95 125.4 -35.25 127.55 -35.25 129.4 -35.25 129.85 -33.4 130.25 -31.45 129.7 -23.85
L 128.45 -6.45 145.7 -6.45 146.35 -16
Q 147.4 -30 146.35 -36.65 145.25 -43.3 140.65 -47.75 135.95 -52.2 128.3 -52.2 122.7 -52.2 118.2 -49.3
M 101.65 -50.1
L 84.35 -50.1 77.05 50.15 94.35 50.15 101.65 -50.1
M 21.9 -49.55
Q 17.85 -52.2 12.5 -52.2 6.9 -52.2 2.45 -49.4 -2 -46.65 -4.8 -41.45 -7.7 -36.25 -8.6 -29.9 -9.55 -23.65 -10.65 -8.55
L -11.9 8.6
Q -13.05 24.1 -13 30.25 -12.95 36.45 -10.75 41.75 -8.55 47 -4.45 49.65 -0.45 52.25 4.9 52.25 10.55 52.25 14.95 49.45 19.4 46.7 22.3 41.5 25.1 36.3 26.05 30.05 27 23.7 28.1 8.6
L 29.35 -8.55
Q 30.45 -24.05 30.4 -30.2 30.4 -36.4 28.2 -41.7 26 -46.95 21.9 -49.55
M 7.8 -24.35
Q 8.35 -32.1 9.2 -33.65 10.05 -35.25 11.4 -35.25 13 -35.25 13.4 -33.25 13.7 -31.35 13.2 -24.35
L 9.8 21.75
Q 9.2 30.6 8.55 32.95 7.9 35.3 6.1 35.3 4.4 35.3 4.1 33.25 3.75 31.2 4.35 22.45
L 7.8 -24.35
M 77.35 -50.1
L 62.9 -50.1 59.6 -4.95 53.2 -50.1 38.75 -50.1 31.45 50.15 45.9 50.15 49.2 4.6 54.9 50.15 70.05 50.15 77.35 -50.1 Z"/>
</g>

<g id="logo_0_Layer1_0_FILL">
<path fill="url(#Gradient_2)" stroke="none" d="
M -275.8 -101.05
L -275.8 116.6 282.95 116.6 282.95 -101.05 -275.8 -101.05 Z"/>
</g>

<path id="Symbol_1_0_Layer1_0_1_STROKES" stroke="#174160" stroke-width="10" stroke-linejoin="round" stroke-linecap="round" fill="none" d="
M 77.3 -50.35
L 70 49.9 54.85 49.9 49.15 4.35 45.85 49.9 31.4 49.9 38.7 -50.35 53.15 -50.35 59.55 -5.2 62.85 -50.35 77.3 -50.35 Z
M 28.05 8.35
Q 26.95 23.45 26 29.8 25.05 36.05 22.25 41.25 19.35 46.45 14.9 49.2 10.5 52 4.85 52 -0.5 52 -4.5 49.4 -8.6 46.75 -10.8 41.5 -13 36.2 -13.05 30 -13.1 23.85 -11.95 8.35
L -10.7 -8.8
Q -9.6 -23.9 -8.65 -30.15 -7.75 -36.5 -4.85 -41.7 -2.05 -46.9 2.4 -49.65 6.85 -52.45 12.45 -52.45 17.8 -52.45 21.85 -49.8 25.95 -47.2 28.15 -41.95 30.35 -36.65 30.35 -30.45 30.4 -24.3 29.3 -8.8
L 28.05 8.35 Z
M 13.15 -24.6
Q 13.65 -31.6 13.35 -33.5 12.95 -35.5 11.35 -35.5 10 -35.5 9.15 -33.9 8.3 -32.35 7.75 -24.6
L 4.3 22.2
Q 3.7 30.95 4.05 33 4.35 35.05 6.05 35.05 7.85 35.05 8.5 32.7 9.15 30.35 9.75 21.5
L 13.15 -24.6 Z
M 101.6 -50.35
L 94.3 49.9 77 49.9 84.3 -50.35 101.6 -50.35 Z
M 145.65 -6.7
L 128.4 -6.7 129.65 -24.1
Q 130.2 -31.7 129.8 -33.65 129.35 -35.5 127.5 -35.5 125.35 -35.5 124.55 -33.2 123.85 -30.9 123.3 -23.3
L 119.9 23.25
Q 119.35 30.6 119.75 32.8 120.2 35.05 122.2 35.05 124.15 35.05 124.9 32.8 125.65 30.6 126.25 22.35
L 127.2 9.7 144.45 9.7 144.15 13.6
Q 143 29.15 141.15 35.7 139.15 42.2 133.85 47.1 128.5 52 121.15 52 113.55 52 108.95 47.85 104.3 43.7 103.25 36.4 102.15 29.05 103.25 14.3
L 105.4 -15
Q 106.15 -25.85 107.05 -31.2 107.95 -36.65 110.8 -41.7 113.6 -46.7 118.15 -49.55 122.65 -52.45 128.25 -52.45 135.9 -52.45 140.6 -48 145.2 -43.55 146.3 -36.9 147.35 -30.25 146.3 -16.25
L 145.65 -6.7 Z
M 180.2 -50.35
L 172.9 49.9 156.3 49.9 160.2 -3.85
Q 161.05 -15.5 160.9 -17.85 160.65 -20.2 159.1 -21.35 157.55 -22.6 151.8 -22.6
L 150.15 -22.6 151 -34.3
Q 163.3 -38.2 170.4 -50.35
L 180.2 -50.35 Z
M 214.5 -6.9
Q 218.1 -4.95 219.65 -0.65 221.15 3.75 220 19.85 219.1 31.8 216.85 38.4 214.55 45 209.85 48.4 205.15 51.9 198.25 51.9 190.35 51.9 186.15 47.9 181.95 43.9 180.95 38.15 179.95 32.3 180.95 18
L 181.55 10.1 198.15 10.1 196.95 26.35
Q 196.5 32.85 196.9 34.65 197.3 36.4 199.05 36.4 201 36.4 201.75 34.15 202.5 31.95 203.2 22.55
L 203.7 15.6
Q 204.1 9.85 203.45 7.15 202.8 4.5 201.15 3.7 199.55 2.85 194.7 2.7
L 195.75 -11.85
Q 201.7 -11.85 203.15 -12.5 204.6 -13.2 205.35 -15.5 206.15 -17.8 206.5 -22.65
L 206.9 -28.25
Q 207.3 -33.5 206.7 -35.2 206.1 -36.85 204.55 -36.85 202.85 -36.85 202.1 -35.05 201.3 -33.3 200.9 -27.55
L 200.3 -19.35 183.7 -19.35 184.3 -27.85
Q 185.35 -42.25 190.1 -47.25 194.8 -52.35 204.3 -52.35 216.2 -52.35 219.9 -45.35 223.65 -38.35 222.75 -25.9 222.1 -17.45 220.3 -13.75 218.5 -10 214.5 -6.9 Z
M 268.55 -23.7
L 251.95 -23.7
Q 252.5 -30.7 252.5 -32.5 252.55 -34.35 251.8 -35.6 250.95 -36.85 249.4 -36.85 248.15 -36.85 247.25 -35.65 246.35 -34.5 246.05 -32.65 245.85 -30.8 245.4 -25.15
L 244.25 -9.15
Q 245.8 -13.2 248.45 -15.2 251.05 -17.2 254.65 -17.2 259.25 -17.2 262.4 -13.5 265.65 -9.8 266.2 -4.6 266.8 0.6 266.15 9.45
L 265.55 17.45
Q 264.8 28 263.85 33.1 263 38.25 260.4 42.65 257.7 47 253.5 49.4 249.25 51.8 243.85 51.8 237.15 51.8 233.1 49.05 229.05 46.25 227.15 41.05 225.2 35.8 225.2 30 225.2 24.25 226.45 7.65
L 227.45 -6.2
Q 228.75 -24.1 229.6 -30.1 230.3 -36.15 233.2 -41.55 236.1 -46.95 240.65 -49.6 245.2 -52.35 250.85 -52.35 257.85 -52.35 262.05 -48.95 266.3 -45.5 267.75 -39.35 269.25 -33.15 268.55 -23.7 Z
M 249.7 7.55
Q 250.1 2.2 249.4 0.25 248.8 -1.75 247.05 -1.75 245.3 -1.75 244.35 0.2 243.45 2.05 243.05 7.55
L 241.7 25.7
Q 241.25 32.3 241.9 34.35 242.45 36.4 244.25 36.4 245.3 36.4 246.55 34.85 247.8 33.25 248.3 26.3
L 249.7 7.55 Z
M -227.9 -20
L -243.95 -20 -243.4 -27.45
Q -243.05 -32.65 -243.6 -34.05 -244.05 -35.5 -245.5 -35.5 -247.05 -35.5 -248 -33.55 -248.95 -31.65 -249.25 -27.75 -249.6 -22.75 -248.9 -20.2 -248.2 -17.65 -244.45 -14.05 -233.65 -3.7 -231.1 2.9 -228.65 9.55 -229.75 24.25 -230.5 35 -232.5 40.05 -234.55 45.15 -239.55 48.6 -244.6 52 -250.9 52 -257.85 52 -262.45 48.05 -267.1 44.1 -268.2 37.95 -269.25 31.8 -268.4 20.55
L -267.95 14 -251.9 14 -252.75 26.2
Q -253.2 31.8 -252.6 33.45 -252.05 35.05 -250.3 35.05 -248.6 35.05 -247.6 33 -246.6 30.95 -246.35 26.95 -245.7 18.05 -247.1 15.35 -248.55 12.6 -254.5 6.25 -260.5 -0.2 -262.4 -3.1 -264.25 -6 -265.25 -11.15 -266.25 -16.3 -265.7 -24.3 -264.85 -35.8 -262.45 -41.1 -260.2 -46.45 -255.6 -49.4 -251.05 -52.45 -244.85 -52.45 -238.15 -52.45 -233.6 -49.15 -229.1 -45.9 -227.95 -40.9 -226.75 -35.9 -227.6 -23.95
L -227.9 -20 Z
M -179.6 -50.35
L -184.5 16.65
Q -185.3 28.05 -186.15 32.7 -187 37.25 -189.75 42.15 -192.55 47 -196.6 49.55 -200.8 52 -206.2 52 -212.15 52 -216.5 49.05 -220.8 46.05 -222.7 41.3 -224.6 36.55 -224.7 31.25 -224.7 25.95 -223.45 8.95
L -219.15 -50.35 -201.85 -50.35 -207.3 24.8
Q -207.8 31.4 -207.45 33.25 -207.1 35.05 -205.65 35.05 -204.05 35.05 -203.4 33.05 -202.8 31 -202.3 23.5
L -196.9 -50.35 -179.6 -50.35 Z
M -95.85 -50.35
L -83.6 -50.35
Q -71.35 -50.35 -67.1 -48.95 -62.9 -47.5 -60.6 -41.6 -58.3 -35.8 -59.25 -23 -60.1 -11.3 -62.3 -7.25 -64.55 -3.25 -70.25 -2.4 -65.3 -0.5 -63.7 2.7 -62.2 5.95 -61.95 8.65 -61.75 11.3 -62.6 23.45
L -64.55 49.9 -80.6 49.9 -78.15 16.6
Q -77.6 8.55 -78.25 6.6 -79 4.7 -82.55 4.7
L -85.85 49.9 -103.15 49.9 -95.85 -50.35 Z
M -173 -50.35
L -155.6 -50.35
Q -148.5 -50.35 -144.8 -48.7 -141.15 -47 -139.45 -43.85 -137.8 -40.7 -137.45 -36.15 -137.1 -31.7 -137.8 -22.3
L -138.4 -13.55
Q -139.1 -3.95 -140.75 0.45 -142.4 4.8 -146.05 7.15 -149.75 9.55 -155.4 9.55
L -160.05 9.55 -163 49.9 -180.3 49.9 -173 -50.35 Z
M -156.95 -33.2
L -158.8 -7.7
Q -158.05 -7.6 -157.55 -7.6 -155.15 -7.6 -154.1 -9.35 -153.05 -11.15 -152.65 -16.75
L -152.05 -24.95
Q -151.65 -30.1 -152.6 -31.65 -153.6 -33.2 -156.95 -33.2 Z
M -130.9 -50.35
L -102.05 -50.35 -103.5 -30.3 -115.05 -30.3 -116.45 -11.3 -105.65 -11.3 -107.05 7.8 -117.85 7.8 -119.45 29.85 -106.75 29.85 -108.2 49.9 -138.2 49.9 -130.9 -50.35 Z
M -16.2 -20
L -32.25 -20 -31.7 -27.45
Q -31.35 -32.65 -31.9 -34.05 -32.35 -35.5 -33.8 -35.5 -35.35 -35.5 -36.3 -33.55 -37.25 -31.65 -37.55 -27.75 -37.9 -22.75 -37.2 -20.2 -36.5 -17.65 -32.75 -14.05 -21.95 -3.7 -19.4 2.9 -16.95 9.55 -18.05 24.25 -18.8 35 -20.8 40.05 -22.85 45.15 -27.85 48.6 -32.9 52 -39.2 52 -46.15 52 -50.75 48.05 -55.4 44.1 -56.5 37.95 -57.55 31.8 -56.7 20.55
L -56.25 14 -40.2 14 -41.05 26.2
Q -41.5 31.8 -40.9 33.45 -40.35 35.05 -38.6 35.05 -36.9 35.05 -35.9 33 -34.9 30.95 -34.65 26.95 -34 18.05 -35.4 15.35 -36.85 12.6 -42.8 6.25 -48.8 -0.2 -50.7 -3.1 -52.55 -6 -53.55 -11.15 -54.55 -16.3 -54 -24.3 -53.15 -35.8 -50.75 -41.1 -48.5 -46.45 -43.9 -49.4 -39.35 -52.45 -33.15 -52.45 -26.45 -52.45 -21.9 -49.15 -17.4 -45.9 -16.25 -40.9 -15.05 -35.9 -15.9 -23.95
L -16.2 -20 Z
M -79.8 -33.2
L -81.4 -10.9
Q -78.5 -10.9 -77.25 -12.1 -76 -13.3 -75.5 -19.95
L -75.1 -25.45
Q -74.75 -30.25 -75.75 -31.7 -76.8 -33.2 -79.8 -33.2 Z"/>
</defs>

<g transform="matrix( 1, 0, 0, 1, 422.15,115.35) ">
<mask id="Mask_Mask_1">
<g transform="matrix( 1, 0, 0, 1, 0,0) ">
<use xlink:href="#Mask_5_MASK_0_FILL"/>
</g>
</mask>

<g mask="url(#Mask_Mask_1)">
<g transform="matrix( 1, 0, 0, 1, 0,0) ">
<use xlink:href="#Layer5_0_FILL"/>
</g>
</g>

<g mask="url(#Mask_Mask_1)">
<g transform="matrix( 1, 0, 0, 1, 0,0) ">
<use xlink:href="#Layer4_0_FILL"/>
</g>
</g>

<g mask="url(#Mask_Mask_1)">
<g transform="matrix( 1, 0, 0, 1, 0,0) ">
<use xlink:href="#Layer3_0_FILL"/>
</g>
</g>

<g transform="matrix( 1, 0, 0, 1, 0,0) ">
<use xlink:href="#Layer1_0_FILL"/>
</g>

<g transform="matrix( 1, 0, 0, 1, -124.65,5.75) ">
<g transform="matrix( 1, 0, 0, 1, 0,0) ">
<use xlink:href="#Symbol_1_0_Layer1_0_1_STROKES"/>
</g>

<g filter="url(#Filter_1)" transform="matrix( 1, 0, 0, 1, 124.65,-5.75) ">
<g transform="matrix( 1, 0, 0, 1, -124.65,5.75) ">
<mask id="Mask_Mask_2">
<g transform="matrix( 1, 0, 0, 1, 0,0) ">
<use xlink:href="#Mask_logo_0_1_MASK_0_FILL"/>
</g>
</mask>

<g mask="url(#Mask_Mask_2)">
<g transform="matrix( 1, 0, 0, 1, 0,0) ">
<use xlink:href="#logo_0_Layer1_0_FILL"/>
</g>
</g>
</g>
</g>
</g>
</g>
</svg>
