
<svg xmlns="http://www.w3.org/2000/svg" version="1.1" xmlns:xlink="http://www.w3.org/1999/xlink" preserveAspectRatio="none" x="0px" y="0px" width="889px" height="240px" viewBox="0 0 889 240">
<defs>
<linearGradient id="Gradient_1" gradientUnits="userSpaceOnUse" x1="20.6875" y1="149.97500000000002" x2="-19.6875" y2="-146.875" spreadMethod="pad">
<stop  offset="0%" stop-color="#324761"/>

<stop  offset="100%" stop-color="#5A7BB1"/>
</linearGradient>

<linearGradient id="Gradient_2" gradientUnits="userSpaceOnUse" x1="20.2875" y1="-178.675" x2="-13.287500000000001" y2="194.375" spreadMethod="pad">
<stop  offset="0%" stop-color="#FFFFFF"/>

<stop  offset="100%" stop-color="#BEC6D8"/>
</linearGradient>

<filter id="Filter_1" x="-20%" y="-20%" width="140%" height="140%" color-interpolation-filters="sRGB">
<feFlood flood-color="#FFFFFF" flood-opacity="0.4980392156862745" in="SourceGraphic" result="result1"/>

<feComposite in2="SourceGraphic" in="result1" operator="in" result="result2"/>

<feGaussianBlur in="result2" stdDeviation="1.3333333333333333,1.3333333333333333" result="result3"/>

<feFlood flood-color="#000000" flood-opacity="0.09803921568627451" in="SourceGraphic" result="result4"/>

<feComposite in2="SourceGraphic" in="result4" operator="in" result="result5"/>

<feGaussianBlur in="result5" stdDeviation="1.3333333333333333,1.3333333333333333" result="result6"/>

<feOffset dx="2.8284271247461903" dy="2.8284271247461903" in="result3" result="result7"/>

<feOffset dx="-2.8284271247461903" dy="-2.8284271247461903" in="result3" result="result8"/>

<feOffset dx="-2.8284271247461903" dy="-2.8284271247461903" in="result6" result="result9"/>

<feOffset dx="2.8284271247461903" dy="2.8284271247461903" in="result6" result="result10"/>

<feColorMatrix in="SourceGraphic" type="matrix" values="0 0 0 0 255 0 0 0 0 255 0 0 0 0 255 0 0 0 255 0" result="result11"/>

<feFlood flood-color="#000000" flood-opacity="0" in="SourceGraphic" result="result12"/>

<feComposite in2="result8" in="result7" operator="arithmetic" k1="0" k2="-1" k3="1" k4="0" result="result13"/>

<feComposite in2="result10" in="result9" operator="arithmetic" k1="0" k2="-1" k3="1" k4="0" result="result14"/>

<feComposite in2="result12" in="result13" operator="xor" result="result15"/>

<feComposite in2="result15" in="result14" operator="xor" result="result16"/>

<feComposite in2="result11" in="result16" operator="in" result="result17"/>

<feBlend mode="normal" in2="SourceGraphic" in="result17" result="result18"/>
</filter>

<g id="Mask_banner_0_6_MASK_0_FILL">
<path fill="#FFFFFF" stroke="none" d="
M 416.2 -110.3
L -419.65 -110.3 -419.65 107.3 416.2 107.3 416.2 -110.3 Z"/>
</g>

<g id="banner_0_Layer6_0_FILL">
<path fill="url(#Gradient_1)" stroke="none" d="
M 443.05 -138.55
L -442.05 -138.55 -442.05 141.75 443.05 141.75 443.05 -138.55 Z"/>
</g>

<g id="banner_0_Layer5_0_FILL">
<path fill="#000000" stroke="none" d="
M 98.25 -86.45
Q 87.45 -76.15 82.25 -65.2 75.85 -52.05 77.2 -39.3 78.25 -28.7 84.75 -19.25 90.95 -10.15 100.45 -4.25 71.05 3.85 46.15 21.8 28.45 34.6 20.8 48.25 16.2 56.75 15.15 65.8 13.95 75.55 17.35 83.8 19.2 88.35 22.8 93.3 25.2 96.55 29.9 101.9 35.2 107.65 38.3 109.9 41.65 112.3 46.25 114.3 49.75 115.75 54.95 117.3 79.8 124.55 105.8 125.15 104.65 129.75 104.45 132.25 104.15 136.2 105.45 139.15 107.1 142.9 112.1 146.1 119 150.55 127.5 152.5 135.5 154.35 144.3 153.85 157.15 153.15 164.45 147.4 165.95 146.2 166.75 145.75 166.95 145.7 166.8 145.2 168.6 144.45 170.85 143.25 197.5 128.85 219.3 124.8 232.65 122.3 245.3 123.25 258.85 124.2 270.4 129.25 278.85 132.85 288.7 139.9 291.1 141.65 305.55 152.85 315.65 160.75 323.1 165 324.75 165.9 341.3 172.65 341.95 172.75 342.6 172.95 343.2 173 343.7 173.1 344.05 173.25 344.45 173.4 356.65 178.15 370.05 177.15 383.45 176.1 394.75 169.6 406 162.95 413.5 151.85 421.05 140.7 422.9 127.7 424.7 114.85 420.7 102.05 416.55 89.15 407.6 79.65 426.5 69.95 436.8 55.2 442.5 47.05 445.1 37.85 447.8 28.1 446.6 18.75 445.1 6.6 436.25 -7.45 426 -23.9 410.85 -36.35 395.7 -48.8 377.65 -55.75 359.6 -62.6 340.05 -63.4 320.35 -64.15 301.9 -58.75 301.7 -70.2 291.05 -82.75 283.6 -91.6 273.9 -98.45 264.3 -105.15 253.3 -109.15 244.05 -112.45 232.3 -114.35 223.65 -115.65 210.85 -116.5 188.3 -118.05 172.5 -116.95 151.6 -115.55 135.15 -109.5 114.3 -101.75 98.25 -86.45
M 131 -99.3
Q 144.25 -105.25 159.8 -108.05 173.55 -110.5 189.8 -110.6 202.7 -110.75 220 -109.45 228.95 -108.75 234.4 -107.85 242.35 -106.5 248.45 -104.2 256.65 -101.05 266.65 -94 273.4 -89.25 278 -85 283.85 -79.75 287.6 -74.2 291.9 -67.95 293.8 -61.05 295.85 -53.65 294.65 -46.85
L 300.75 -45.4
Q 302.9 -49.55 308.15 -52.1 312.15 -54 318.45 -55 334.9 -57.55 350 -56.05 366.6 -54.4 380.2 -47.85 393.25 -41.55 407.35 -28.65 417.55 -19.3 424.5 -10.15 432.7 0.55 436.95 11.55 442.15 25.3 439.2 35.75 437.8 40.55 433.95 46.2 428.55 54.35 421.1 60.95 413.7 67.45 404.95 71.85 402.75 72.85 401.7 73.45 399.9 74.5 398.65 75.55 397.2 76.8 396.45 78.35 395.55 80.15 395.65 81.85 402.45 86.1 407.35 92.5 412.3 98.9 414.65 106.5 417 114 416.7 122.05 416.35 130.1 413.25 137.45 409.4 146.65 401.4 154.15 394.05 161.25 384.25 165.8 375.8 169.7 368.65 170.35 362.4 170.95 354.45 169.45 350.8 168.7 343.7 166.75 343.2 166.55 342.7 166.4 330.15 162.3 313.05 149 303.95 141.75 299.3 138.2 291.25 132.15 284.8 128.55 274.7 122.95 262.8 119.95 251.5 117.1 239.25 116.8 217 116.35 192.65 124.3 184.85 126.85 179.3 129.6 177.1 130.7 168.95 135.3 162.45 138.9 161.55 140.25
L 158 143.1
Q 155.35 144.55 151.6 145.5 141.65 148.1 132.3 146.95 122 145.55 115.2 139.5 112.85 137.4 111.8 135.1 110.55 132.35 111.45 129.95 112.35 127.65 115.15 126.4 117.05 125.55 120.6 124.85
L 121.75 119.3
Q 118.6 118.5 114.45 118.25 112.6 118.2 107.05 118.2 92.9 118.2 81.8 116.9 68.35 115.25 57.25 111.45 49.9 108.9 45.25 105.65 42.25 103.55 39.15 100.2 37.25 98.15 33.8 94 28.25 87.15 25.8 83 22.05 76.6 21.5 70.65 20.35 57.15 34.95 42.1 49.4 27.15 69.5 16.6 88.05 6.95 110.2 1.6 111.2 0.2 111.15 -1.85 110.95 -3.8 109.9 -5.4 109.05 -6.8 107.45 -8.25 107 -8.65 104.55 -10.55 92.3 -19.95 87.2 -31.05 84.25 -37.4 83.8 -44.15 83.3 -51.3 85.8 -57.35 87.2 -60.65 89.75 -64.15 91.45 -66.65 94.6 -70.4 101.15 -78.25 105.9 -82.75 116.5 -92.7 131 -99.3 Z"/>

<path fill="#795548" stroke="none" d="
M 159.8 -108.05
Q 144.25 -105.25 131 -99.3 116.5 -92.7 105.9 -82.75 101.15 -78.25 94.6 -70.4 91.45 -66.65 89.75 -64.15 87.2 -60.65 85.8 -57.35 83.3 -51.3 83.8 -44.15 84.25 -37.4 87.2 -31.05 92.3 -19.95 104.55 -10.55 107 -8.65 107.45 -8.25 109.05 -6.8 109.9 -5.4 110.95 -3.8 111.15 -1.85 111.2 0.2 110.2 1.6 88.05 6.95 69.5 16.6 49.4 27.15 34.95 42.1 20.35 57.15 21.5 70.65 22.05 76.6 25.8 83 28.25 87.15 33.8 94 37.25 98.15 39.15 100.2 42.25 103.55 45.25 105.65 49.9 108.9 57.25 111.45 68.35 115.25 81.8 116.9 92.9 118.2 107.05 118.2 112.6 118.2 114.45 118.25 118.6 118.5 121.75 119.3
L 120.6 124.85
Q 117.05 125.55 115.15 126.4 112.35 127.65 111.45 129.95 110.55 132.35 111.8 135.1 112.85 137.4 115.2 139.5 122 145.55 132.3 146.95 141.65 148.1 151.6 145.5 155.35 144.55 158 143.1
L 161.55 140.25
Q 162.45 138.9 168.95 135.3 177.1 130.7 179.3 129.6 184.85 126.85 192.65 124.3 217 116.35 239.25 116.8 251.5 117.1 262.8 119.95 274.7 122.95 284.8 128.55 291.25 132.15 299.3 138.2 303.95 141.75 313.05 149 330.15 162.3 342.7 166.4 343.2 166.55 343.7 166.75 350.8 168.7 354.45 169.45 362.4 170.95 368.65 170.35 375.8 169.7 384.25 165.8 394.05 161.25 401.4 154.15 409.4 146.65 413.25 137.45 416.35 130.1 416.7 122.05 417 114 414.65 106.5 412.3 98.9 407.35 92.5 402.45 86.1 395.65 81.85 395.55 80.15 396.45 78.35 397.2 76.8 398.65 75.55 399.9 74.5 401.7 73.45 402.75 72.85 404.95 71.85 413.7 67.45 421.1 60.95 428.55 54.35 433.95 46.2 437.8 40.55 439.2 35.75 442.15 25.3 436.95 11.55 432.7 0.55 424.5 -10.15 417.55 -19.3 407.35 -28.65 393.25 -41.55 380.2 -47.85 366.6 -54.4 350 -56.05 334.9 -57.55 318.45 -55 312.15 -54 308.15 -52.1 302.9 -49.55 300.75 -45.4
L 294.65 -46.85
Q 295.85 -53.65 293.8 -61.05 291.9 -67.95 287.6 -74.2 283.85 -79.75 278 -85 273.4 -89.25 266.65 -94 256.65 -101.05 248.45 -104.2 242.35 -106.5 234.4 -107.85 228.95 -108.75 220 -109.45 202.7 -110.75 189.8 -110.6 173.55 -110.5 159.8 -108.05 Z"/>
</g>

<g id="banner_0_Layer4_0_FILL">
<path fill="#000000" stroke="none" d="
M 218.8 -31.35
Q 194.4 -21.7 175.15 -3.55 155.6 14.95 145.45 38.65 136.45 59.4 136.65 79.35 136.85 90.15 139.7 100.2 142.7 110.6 148.4 119.2 163.8 142.25 199.9 154 220.8 160.75 242.9 162.35 265.05 163.95 286.65 160.25 305.9 157 322.1 149.85 339.9 141.9 352.9 129.85 366.8 116.8 373.95 99.6 381.45 81.55 379.35 63.65 378.1 52.85 372.9 40.4 367.8 28.4 360.6 18.6 352.85 8.1 343.15 0.9 332.8 -6.75 320.8 -10.2 308.2 -13.9 296.15 -12.3 296.15 -18.55 291.4 -24.3 287.25 -29.25 280.65 -32.65 267 -39.45 249.75 -38.6 235.1 -37.7 218.8 -31.35
M 253.85 -31.9
Q 262.3 -32.1 269.9 -29.7 278 -27.05 283.75 -21.75 286.9 -18.95 288.8 -15.6 290.95 -11.9 291.3 -8.15 299.95 -8.6 308.5 -6.8 317.05 -5 324.75 -1.15 335.3 4.15 344.65 13.6 353.1 22.2 359.5 33.35 365.45 43.85 369.25 56.05 373.8 71 372.3 81.65 370.75 92.5 362.35 105 354.45 116.75 343.55 126.2 332.7 135.65 319.85 141.85 299.7 151.65 270.75 154.9 253.2 156.85 239.1 155.7 216.1 153.9 193 143.7 179.25 137.6 170.1 130.2 155.6 118.45 148.6 100.7 141.45 82.65 144.55 64.6 146.95 50.05 157 32.8 163.9 20.95 171.7 12 191.35 -10.7 222.75 -24.1 240.2 -31.6 253.85 -31.9
M 221.1 30.8
Q 214.95 30.15 204.15 30 192.1 29.8 187.15 29.45 186.75 42.1 184 54.25
L 183.35 57.15
Q 182.55 60.95 182.5 64.8 182.45 66.6 182.6 68.4
L 187.6 68.55
Q 187.25 67.15 188 64.2 191.4 49.85 192.15 35.25
L 212.65 35.45
Q 218.2 35.55 220.95 35.3 221.85 35.3 222.4 34.9 222.95 34.35 222.95 32.9 222.95 31.75 222.5 31.3 222.35 31.15 222.15 31.05 221.75 30.85 221.1 30.8
M 275.1 95.6
Q 279 92.95 280.85 90.4 283.8 86.35 283.6 80.6 283.55 78.9 282.75 78.2 282.3 77.8 281.1 77.65 279.7 77.5 279.25 77.3 279 78.2 278.9 79.95 278.9 81.65 278.65 82.45 278.3 83.75 276.8 85.6 272.65 90.15 264.9 93.75 254.45 98.65 243.3 99.8 231.65 101 221.15 97.85 216.9 96.5 214.8 95.8 211.05 94.65 208.35 94.5
L 207.8 98
Q 225.45 105.3 241.9 105.2 250.85 105.1 259.2 102.8 267.95 100.3 275.1 95.6
M 287.9 36.9
Q 288.45 36.35 288.45 34.9 288.45 33.75 288 33.3 287.85 33.15 287.65 33.05 287.25 32.85 286.6 32.8 280.45 32.15 269.65 32 257.6 31.8 252.65 31.45 252.25 44.1 249.5 56.25
L 248.85 59.15
Q 248.05 62.95 248 66.8 247.95 68.6 248.1 70.4
L 253.1 70.55
Q 252.75 69.15 253.5 66.2 256.9 51.85 257.65 37.25
L 278.15 37.45
Q 283.7 37.55 286.45 37.3 287.35 37.3 287.9 36.9 Z"/>

<path fill="#FFE0BD" stroke="none" d="
M 269.9 -29.7
Q 262.3 -32.1 253.85 -31.9 240.2 -31.6 222.75 -24.1 191.35 -10.7 171.7 12 163.9 20.95 157 32.8 146.95 50.05 144.55 64.6 141.45 82.65 148.6 100.7 155.6 118.45 170.1 130.2 179.25 137.6 193 143.7 216.1 153.9 239.1 155.7 253.2 156.85 270.75 154.9 299.7 151.65 319.85 141.85 332.7 135.65 343.55 126.2 354.45 116.75 362.35 105 370.75 92.5 372.3 81.65 373.8 71 369.25 56.05 365.45 43.85 359.5 33.35 353.1 22.2 344.65 13.6 335.3 4.15 324.75 -1.15 317.05 -5 308.5 -6.8 299.95 -8.6 291.3 -8.15 290.95 -11.9 288.8 -15.6 286.9 -18.95 283.75 -21.75 278 -27.05 269.9 -29.7
M 288.45 34.9
Q 288.45 36.35 287.9 36.9 287.35 37.3 286.45 37.3 283.7 37.55 278.15 37.45
L 257.65 37.25
Q 256.9 51.85 253.5 66.2 252.75 69.15 253.1 70.55
L 248.1 70.4
Q 247.95 68.6 248 66.8 248.05 62.95 248.85 59.15
L 249.5 56.25
Q 252.25 44.1 252.65 31.45 257.6 31.8 269.65 32 280.45 32.15 286.6 32.8 287.25 32.85 287.65 33.05 287.85 33.15 288 33.3 288.45 33.75 288.45 34.9
M 280.85 90.4
Q 279 92.95 275.1 95.6 267.95 100.3 259.2 102.8 250.85 105.1 241.9 105.2 225.45 105.3 207.8 98
L 208.35 94.5
Q 211.05 94.65 214.8 95.8 216.9 96.5 221.15 97.85 231.65 101 243.3 99.8 254.45 98.65 264.9 93.75 272.65 90.15 276.8 85.6 278.3 83.75 278.65 82.45 278.9 81.65 278.9 79.95 279 78.2 279.25 77.3 279.7 77.5 281.1 77.65 282.3 77.8 282.75 78.2 283.55 78.9 283.6 80.6 283.8 86.35 280.85 90.4
M 204.15 30
Q 214.95 30.15 221.1 30.8 221.75 30.85 222.15 31.05 222.35 31.15 222.5 31.3 222.95 31.75 222.95 32.9 222.95 34.35 222.4 34.9 221.85 35.3 220.95 35.3 218.2 35.55 212.65 35.45
L 192.15 35.25
Q 191.4 49.85 188 64.2 187.25 67.15 187.6 68.55
L 182.6 68.4
Q 182.45 66.6 182.5 64.8 182.55 60.95 183.35 57.15
L 184 54.25
Q 186.75 42.1 187.15 29.45 192.1 29.8 204.15 30 Z"/>
</g>

<g id="banner_0_Layer2_0_FILL">
<path fill="#000000" stroke="none" d="
M 420.35 -112.55
Q 420.65 -109.45 420.75 -109.9 421.1 -111.45 420.35 -112.55 Z"/>

<path fill="#12274B" stroke="none" d="
M 99.1 -111.95
Q 51.35 -111.25 25.15 -112.15 5.75 -113.05 -4.05 -113.6 -21.35 -114.35 -33.25 -114.35 -47.3 -114.35 -80.4 -112.6 -110.65 -111.3 -127.5 -111.85 -135.45 -112.2 -148.85 -113.35 -164.5 -114.75 -170.15 -115 -192.7 -116.5 -237.3 -114.65 -282.3 -112.7 -304.55 -113 -310.75 -113.15 -321.55 -113.55 -333.85 -114 -338.55 -114.1 -344.95 -114.2 -364.2 -113.7
L -421.95 -110.75 -421.9 -104.5
Q -421.45 -104.55 -421 -104.45 -419.7 -91.25 -420.25 -73.85 -420.65 -61.6 -422.25 -36.75 -423.3 -18 -423.15 5.75 -423.2 18.8 -422.85 48.05
L -421.85 109.45
Q -417 109.85 -410.2 109.8 -406.35 109.6 -398.55 109.2 -383.65 108.5 -357.55 109.6 -328.35 110.9 -316.55 110.75 -310.65 110.6 -296.6 110 -283.8 109.4 -276.65 109.4 -266.7 109.2 -251.35 110.35 -227.15 111.85 -226.15 111.95 -211.15 112.6 -190.6 112.65 -164.8 112.65 -146.85 111.85 -138.85 111.45 -113.1 109.85 -92.1 108.5 -79.3 108.3 -64.1 107.9 -30.7 109.05 25.8 110.85 96.65 111.65 138.95 112.1 224 112.55
L 294.85 112.9
Q 337 113 357.1 112.85 377.6 112.55 421.05 110.7 420.9 109.8 420.75 108.95 421.5 94.35 421.65 90.9 422 80.8 421.7 72.9 421.55 71.45 420.55 51.15 419.85 37.85 420.3 29.3 421.2 19.1 421.3 14.1 421.25 9.55 420.6 2 419.6 -7.1 419.55 -10 418.95 -18.4 420.3 -32.6 421.6 -49.5 421.85 -55.2 421.75 -62.9 420.2 -84.8 419.5 -93.05 418.85 -113.5 414.05 -113.5 414 -113.25
L 401.65 -113.5
Q 389.25 -113.65 383.25 -113.25 378.8 -112.9 371.75 -112 362.9 -110.9 360.2 -110.6 350.25 -109.85 338.3 -109.9 330.15 -110.2 316.35 -110.9 293.5 -112.2 285.65 -112.5 268.3 -113.3 254.9 -112.95 248.75 -112.9 235.95 -112.25 223.55 -111.75 217.15 -111.45 208 -111.4 195.05 -111.6 180.35 -112 173.05 -112.25 150.4 -112.8 99.1 -111.95
M 17.15 -105.15
Q 31.8 -104.55 65 -104.55
L 199.9 -104.7
Q 230.05 -104.9 242.2 -105.15 257.25 -105.6 261.65 -105.7 271.85 -105.9 315.4 -103.35 348.4 -101.5 369 -103.85 373.9 -104.45 383.8 -105.7 392.45 -106.7 398.65 -106.5 400.75 -106.45 405.25 -106.05 409.75 -105.6 411.85 -105.6 412.65 -105.65 413.45 -105.5 412.8 -92.25 413.9 -79.2 414.1 -75.05 415.1 -66.75 415.75 -59.55 415.55 -54.35 415.5 -50.65 414.8 -44.35 413.75 -36.3 413.7 -34.3 412.9 -25.75 413.25 -14 413.35 -7.25 414 6.3 414.1 13.3 414.4 27.25
L 414.6 43.75
Q 415.05 80.55 415.1 104.15 385.8 105.9 358.85 106.4 342.4 106.65 309.75 106.5
L 121.6 105.5
Q 80.15 105.3 57.3 105.05 21.7 104.6 -7.1 103.5 -33.95 102.35 -47.4 102 -70.65 101.3 -87.7 101.75 -98.05 102 -112.85 103 -129.7 104.1 -138 104.6 -184.15 107.2 -222.7 105.35 -240.45 104.3 -249.2 103.85 -265.15 102.85 -275.75 103 -282.45 103.05 -293.95 103.5 -307.35 104 -312.2 104.25 -325.3 104.5 -363.85 102.9 -396.15 101.6 -415.45 103.3 -418 34.25 -416 -34.85 -415.8 -45.15 -415.2 -51.7 -414.05 -62.1 -413.7 -67.15 -413.1 -77.25 -413.9 -89.2 -414.35 -94.65 -415.45 -104.75 -359 -106.1 -330 -105.85 -279.05 -105.85 -238.5 -106.9 -229.5 -107.3 -211.3 -107.75 -195.45 -108.25 -184.2 -107.8 -173.85 -107.5 -150.5 -105.85 -128.75 -104.3 -116.85 -104 -102.35 -103.85 -71.25 -105.55 -41.5 -107.15 -25.6 -107 -17.1 -106.9 -4.25 -106.25 15.95 -105.2 17.15 -105.15 Z"/>
</g>

<g id="Mask_logo_0_1_MASK_0_FILL">
<path fill="#FFFFFF" stroke="none" d="
M -43.85 -49.15
Q -48.45 -46.2 -50.7 -40.85 -53.1 -35.55 -53.95 -24.05 -54.5 -16.05 -53.5 -10.9 -52.5 -5.75 -50.65 -2.85 -48.75 0.05 -42.75 6.5 -36.8 12.85 -35.35 15.6 -33.95 18.3 -34.6 27.2 -34.85 31.2 -35.85 33.25 -36.85 35.3 -38.55 35.3 -40.3 35.3 -40.85 33.7 -41.45 32.05 -41 26.45
L -40.15 14.25 -56.2 14.25 -56.65 20.8
Q -57.5 32.05 -56.45 38.2 -55.35 44.35 -50.7 48.3 -46.1 52.25 -39.15 52.25 -32.85 52.25 -27.8 48.85 -22.8 45.4 -20.75 40.3 -18.75 35.25 -18 24.5 -16.9 9.8 -19.35 3.15 -21.9 -3.45 -32.7 -13.8 -36.45 -17.4 -37.15 -19.95 -37.85 -22.5 -37.5 -27.5 -37.2 -31.4 -36.25 -33.3 -35.3 -35.25 -33.75 -35.25 -32.3 -35.25 -31.85 -33.8 -31.3 -32.4 -31.65 -27.2
L -32.2 -19.75 -16.15 -19.75 -15.85 -23.7
Q -15 -35.65 -16.2 -40.65 -17.35 -45.65 -21.85 -48.9 -26.4 -52.2 -33.1 -52.2 -39.3 -52.2 -43.85 -49.15
M -115 -30.05
L -103.45 -30.05 -102 -50.1 -130.85 -50.1 -138.15 50.15 -108.15 50.15 -106.7 30.1 -119.4 30.1 -117.8 8.05 -107 8.05 -105.6 -11.05 -116.4 -11.05 -115 -30.05
M -137.4 -35.9
Q -137.75 -40.45 -139.4 -43.6 -141.1 -46.75 -144.75 -48.45 -148.45 -50.1 -155.55 -50.1
L -172.95 -50.1 -180.25 50.15 -162.95 50.15 -160 9.8 -155.35 9.8
Q -149.7 9.8 -146 7.4 -142.35 5.05 -140.7 0.7 -139.05 -3.7 -138.35 -13.3
L -137.75 -22.05
Q -137.05 -31.45 -137.4 -35.9
M -156.9 -32.95
Q -153.55 -32.95 -152.55 -31.4 -151.6 -29.85 -152 -24.7
L -152.6 -16.5
Q -153 -10.9 -154.05 -9.1 -155.1 -7.35 -157.5 -7.35 -158 -7.35 -158.75 -7.45
L -156.9 -32.95
M -83.55 -50.1
L -95.8 -50.1 -103.1 50.15 -85.8 50.15 -82.5 4.95
Q -78.95 4.95 -78.2 6.85 -77.55 8.8 -78.1 16.85
L -80.55 50.15 -64.5 50.15 -62.55 23.7
Q -61.7 11.55 -61.9 8.9 -62.15 6.2 -63.65 2.95 -65.25 -0.25 -70.2 -2.15 -64.5 -3 -62.25 -7 -60.05 -11.05 -59.2 -22.75 -58.25 -35.55 -60.55 -41.35 -62.85 -47.25 -67.05 -48.7 -71.3 -50.1 -83.55 -50.1
M -75.7 -31.45
Q -74.7 -30 -75.05 -25.2
L -75.45 -19.7
Q -75.95 -13.05 -77.2 -11.85 -78.45 -10.65 -81.35 -10.65
L -79.75 -32.95
Q -76.75 -32.95 -75.7 -31.45
M -179.55 -50.1
L -196.85 -50.1 -202.25 23.75
Q -202.75 31.25 -203.35 33.3 -204 35.3 -205.6 35.3 -207.05 35.3 -207.4 33.5 -207.75 31.65 -207.25 25.05
L -201.8 -50.1 -219.1 -50.1 -223.4 9.2
Q -224.65 26.2 -224.65 31.5 -224.55 36.8 -222.65 41.55 -220.75 46.3 -216.45 49.3 -212.1 52.25 -206.15 52.25 -200.75 52.25 -196.55 49.8 -192.5 47.25 -189.7 42.4 -186.95 37.5 -186.1 32.95 -185.25 28.3 -184.45 16.9
L -179.55 -50.1
M -255.55 -49.15
Q -260.15 -46.2 -262.4 -40.85 -264.8 -35.55 -265.65 -24.05 -266.2 -16.05 -265.2 -10.9 -264.2 -5.75 -262.35 -2.85 -260.45 0.05 -254.45 6.5 -248.5 12.85 -247.05 15.6 -245.65 18.3 -246.3 27.2 -246.55 31.2 -247.55 33.25 -248.55 35.3 -250.25 35.3 -252 35.3 -252.55 33.7 -253.15 32.05 -252.7 26.45
L -251.85 14.25 -267.9 14.25 -268.35 20.8
Q -269.2 32.05 -268.15 38.2 -267.05 44.35 -262.4 48.3 -257.8 52.25 -250.85 52.25 -244.55 52.25 -239.5 48.85 -234.5 45.4 -232.45 40.3 -230.45 35.25 -229.7 24.5 -228.6 9.8 -231.05 3.15 -233.6 -3.45 -244.4 -13.8 -248.15 -17.4 -248.85 -19.95 -249.55 -22.5 -249.2 -27.5 -248.9 -31.4 -247.95 -33.3 -247 -35.25 -245.45 -35.25 -244 -35.25 -243.55 -33.8 -243 -32.4 -243.35 -27.2
L -243.9 -19.75 -227.85 -19.75 -227.55 -23.7
Q -226.7 -35.65 -227.9 -40.65 -229.05 -45.65 -233.55 -48.9 -238.1 -52.2 -244.8 -52.2 -251 -52.2 -255.55 -49.15
M 240.7 -49.35
Q 236.15 -46.7 233.25 -41.3 230.35 -35.9 229.65 -29.85 228.8 -23.85 227.5 -5.95
L 226.5 7.9
Q 225.25 24.5 225.25 30.25 225.25 36.05 227.2 41.3 229.1 46.5 233.15 49.3 237.2 52.05 243.9 52.05 249.3 52.05 253.55 49.65 257.75 47.25 260.45 42.9 263.05 38.5 263.9 33.35 264.85 28.25 265.6 17.7
L 266.2 9.7
Q 266.85 0.85 266.25 -4.35 265.7 -9.55 262.45 -13.25 259.3 -16.95 254.7 -16.95 251.1 -16.95 248.5 -14.95 245.85 -12.95 244.3 -8.9
L 245.45 -24.9
Q 245.9 -30.55 246.1 -32.4 246.4 -34.25 247.3 -35.4 248.2 -36.6 249.45 -36.6 251 -36.6 251.85 -35.35 252.6 -34.1 252.55 -32.25 252.55 -30.45 252 -23.45
L 268.6 -23.45
Q 269.3 -32.9 267.8 -39.1 266.35 -45.25 262.1 -48.7 257.9 -52.1 250.9 -52.1 245.25 -52.1 240.7 -49.35
M 249.75 7.8
L 248.35 26.55
Q 247.85 33.5 246.6 35.1 245.35 36.65 244.3 36.65 242.5 36.65 241.95 34.6 241.3 32.55 241.75 25.95
L 243.1 7.8
Q 243.5 2.3 244.4 0.45 245.35 -1.5 247.1 -1.5 248.85 -1.5 249.45 0.5 250.15 2.45 249.75 7.8
M 190.15 -47
Q 185.4 -42 184.35 -27.6
L 183.75 -19.1 200.35 -19.1 200.95 -27.3
Q 201.35 -33.05 202.15 -34.8 202.9 -36.6 204.6 -36.6 206.15 -36.6 206.75 -34.95 207.35 -33.25 206.95 -28
L 206.55 -22.4
Q 206.2 -17.55 205.4 -15.25 204.65 -12.95 203.2 -12.25 201.75 -11.6 195.8 -11.6
L 194.75 2.95
Q 199.6 3.1 201.2 3.95 202.85 4.75 203.5 7.4 204.15 10.1 203.75 15.85
L 203.25 22.8
Q 202.55 32.2 201.8 34.4 201.05 36.65 199.1 36.65 197.35 36.65 196.95 34.9 196.55 33.1 197 26.6
L 198.2 10.35 181.6 10.35 181 18.25
Q 180 32.55 181 38.4 182 44.15 186.2 48.15 190.4 52.15 198.3 52.15 205.2 52.15 209.9 48.65 214.6 45.25 216.9 38.65 219.15 32.05 220.05 20.1 221.2 4 219.7 -0.4 218.15 -4.7 214.55 -6.65 218.55 -9.75 220.35 -13.5 222.15 -17.2 222.8 -25.65 223.7 -38.1 219.95 -45.1 216.25 -52.1 204.35 -52.1 194.85 -52.1 190.15 -47
M 150.2 -22.35
L 151.85 -22.35
Q 157.6 -22.35 159.15 -21.1 160.7 -19.95 160.95 -17.6 161.1 -15.25 160.25 -3.6
L 156.35 50.15 172.95 50.15 180.25 -50.1 170.45 -50.1
Q 163.35 -37.95 151.05 -34.05
L 150.2 -22.35
M 110.85 -41.45
Q 108 -36.4 107.1 -30.95 106.2 -25.6 105.45 -14.75
L 103.3 14.55
Q 102.2 29.3 103.3 36.65 104.35 43.95 109 48.1 113.6 52.25 121.2 52.25 128.55 52.25 133.9 47.35 139.2 42.45 141.2 35.95 143.05 29.4 144.2 13.85
L 144.5 9.95 127.25 9.95 126.3 22.6
Q 125.7 30.85 124.95 33.05 124.2 35.3 122.25 35.3 120.25 35.3 119.8 33.05 119.4 30.85 119.95 23.5
L 123.35 -23.05
Q 123.9 -30.65 124.6 -32.95 125.4 -35.25 127.55 -35.25 129.4 -35.25 129.85 -33.4 130.25 -31.45 129.7 -23.85
L 128.45 -6.45 145.7 -6.45 146.35 -16
Q 147.4 -30 146.35 -36.65 145.25 -43.3 140.65 -47.75 135.95 -52.2 128.3 -52.2 122.7 -52.2 118.2 -49.3 113.65 -46.45 110.85 -41.45
M 101.65 -50.1
L 84.35 -50.1 77.05 50.15 94.35 50.15 101.65 -50.1
M 21.9 -49.55
Q 17.85 -52.2 12.5 -52.2 6.9 -52.2 2.45 -49.4 -2 -46.65 -4.8 -41.45 -7.7 -36.25 -8.6 -29.9 -9.55 -23.65 -10.65 -8.55
L -11.9 8.6
Q -13.05 24.1 -13 30.25 -12.95 36.45 -10.75 41.75 -8.55 47 -4.45 49.65 -0.45 52.25 4.9 52.25 10.55 52.25 14.95 49.45 19.4 46.7 22.3 41.5 25.1 36.3 26.05 30.05 27 23.7 28.1 8.6
L 29.35 -8.55
Q 30.45 -24.05 30.4 -30.2 30.4 -36.4 28.2 -41.7 26 -46.95 21.9 -49.55
M 13.4 -33.25
Q 13.7 -31.35 13.2 -24.35
L 9.8 21.75
Q 9.2 30.6 8.55 32.95 7.9 35.3 6.1 35.3 4.4 35.3 4.1 33.25 3.75 31.2 4.35 22.45
L 7.8 -24.35
Q 8.35 -32.1 9.2 -33.65 10.05 -35.25 11.4 -35.25 13 -35.25 13.4 -33.25
M 77.35 -50.1
L 62.9 -50.1 59.6 -4.95 53.2 -50.1 38.75 -50.1 31.45 50.15 45.9 50.15 49.2 4.6 54.9 50.15 70.05 50.15 77.35 -50.1 Z"/>
</g>

<g id="logo_0_Layer1_0_FILL">
<path fill="url(#Gradient_2)" stroke="none" d="
M 282.95 -101.05
L -275.8 -101.05 -275.8 116.6 282.95 116.6 282.95 -101.05 Z"/>
</g>

<path id="Symbol_1_0_Layer1_0_1_STROKES" stroke="#174160" stroke-width="10" stroke-linejoin="round" stroke-linecap="round" fill="none" d="
M 77.3 -50.35
L 70 49.9 54.85 49.9 49.15 4.35 45.85 49.9 31.4 49.9 38.7 -50.35 53.15 -50.35 59.55 -5.2 62.85 -50.35 77.3 -50.35 Z
M 28.05 8.35
Q 26.95 23.45 26 29.8 25.05 36.05 22.25 41.25 19.35 46.45 14.9 49.2 10.5 52 4.85 52 -0.5 52 -4.5 49.4 -8.6 46.75 -10.8 41.5 -13 36.2 -13.05 30 -13.1 23.85 -11.95 8.35
L -10.7 -8.8
Q -9.6 -23.9 -8.65 -30.15 -7.75 -36.5 -4.85 -41.7 -2.05 -46.9 2.4 -49.65 6.85 -52.45 12.45 -52.45 17.8 -52.45 21.85 -49.8 25.95 -47.2 28.15 -41.95 30.35 -36.65 30.35 -30.45 30.4 -24.3 29.3 -8.8
L 28.05 8.35 Z
M 13.15 -24.6
Q 13.65 -31.6 13.35 -33.5 12.95 -35.5 11.35 -35.5 10 -35.5 9.15 -33.9 8.3 -32.35 7.75 -24.6
L 4.3 22.2
Q 3.7 30.95 4.05 33 4.35 35.05 6.05 35.05 7.85 35.05 8.5 32.7 9.15 30.35 9.75 21.5
L 13.15 -24.6 Z
M 101.6 -50.35
L 94.3 49.9 77 49.9 84.3 -50.35 101.6 -50.35 Z
M 145.65 -6.7
L 128.4 -6.7 129.65 -24.1
Q 130.2 -31.7 129.8 -33.65 129.35 -35.5 127.5 -35.5 125.35 -35.5 124.55 -33.2 123.85 -30.9 123.3 -23.3
L 119.9 23.25
Q 119.35 30.6 119.75 32.8 120.2 35.05 122.2 35.05 124.15 35.05 124.9 32.8 125.65 30.6 126.25 22.35
L 127.2 9.7 144.45 9.7 144.15 13.6
Q 143 29.15 141.15 35.7 139.15 42.2 133.85 47.1 128.5 52 121.15 52 113.55 52 108.95 47.85 104.3 43.7 103.25 36.4 102.15 29.05 103.25 14.3
L 105.4 -15
Q 106.15 -25.85 107.05 -31.2 107.95 -36.65 110.8 -41.7 113.6 -46.7 118.15 -49.55 122.65 -52.45 128.25 -52.45 135.9 -52.45 140.6 -48 145.2 -43.55 146.3 -36.9 147.35 -30.25 146.3 -16.25
L 145.65 -6.7 Z
M 180.2 -50.35
L 172.9 49.9 156.3 49.9 160.2 -3.85
Q 161.05 -15.5 160.9 -17.85 160.65 -20.2 159.1 -21.35 157.55 -22.6 151.8 -22.6
L 150.15 -22.6 151 -34.3
Q 163.3 -38.2 170.4 -50.35
L 180.2 -50.35 Z
M 214.5 -6.9
Q 218.1 -4.95 219.65 -0.65 221.15 3.75 220 19.85 219.1 31.8 216.85 38.4 214.55 45 209.85 48.4 205.15 51.9 198.25 51.9 190.35 51.9 186.15 47.9 181.95 43.9 180.95 38.15 179.95 32.3 180.95 18
L 181.55 10.1 198.15 10.1 196.95 26.35
Q 196.5 32.85 196.9 34.65 197.3 36.4 199.05 36.4 201 36.4 201.75 34.15 202.5 31.95 203.2 22.55
L 203.7 15.6
Q 204.1 9.85 203.45 7.15 202.8 4.5 201.15 3.7 199.55 2.85 194.7 2.7
L 195.75 -11.85
Q 201.7 -11.85 203.15 -12.5 204.6 -13.2 205.35 -15.5 206.15 -17.8 206.5 -22.65
L 206.9 -28.25
Q 207.3 -33.5 206.7 -35.2 206.1 -36.85 204.55 -36.85 202.85 -36.85 202.1 -35.05 201.3 -33.3 200.9 -27.55
L 200.3 -19.35 183.7 -19.35 184.3 -27.85
Q 185.35 -42.25 190.1 -47.25 194.8 -52.35 204.3 -52.35 216.2 -52.35 219.9 -45.35 223.65 -38.35 222.75 -25.9 222.1 -17.45 220.3 -13.75 218.5 -10 214.5 -6.9 Z
M 268.55 -23.7
L 251.95 -23.7
Q 252.5 -30.7 252.5 -32.5 252.55 -34.35 251.8 -35.6 250.95 -36.85 249.4 -36.85 248.15 -36.85 247.25 -35.65 246.35 -34.5 246.05 -32.65 245.85 -30.8 245.4 -25.15
L 244.25 -9.15
Q 245.8 -13.2 248.45 -15.2 251.05 -17.2 254.65 -17.2 259.25 -17.2 262.4 -13.5 265.65 -9.8 266.2 -4.6 266.8 0.6 266.15 9.45
L 265.55 17.45
Q 264.8 28 263.85 33.1 263 38.25 260.4 42.65 257.7 47 253.5 49.4 249.25 51.8 243.85 51.8 237.15 51.8 233.1 49.05 229.05 46.25 227.15 41.05 225.2 35.8 225.2 30 225.2 24.25 226.45 7.65
L 227.45 -6.2
Q 228.75 -24.1 229.6 -30.1 230.3 -36.15 233.2 -41.55 236.1 -46.95 240.65 -49.6 245.2 -52.35 250.85 -52.35 257.85 -52.35 262.05 -48.95 266.3 -45.5 267.75 -39.35 269.25 -33.15 268.55 -23.7 Z
M 249.7 7.55
Q 250.1 2.2 249.4 0.25 248.8 -1.75 247.05 -1.75 245.3 -1.75 244.35 0.2 243.45 2.05 243.05 7.55
L 241.7 25.7
Q 241.25 32.3 241.9 34.35 242.45 36.4 244.25 36.4 245.3 36.4 246.55 34.85 247.8 33.25 248.3 26.3
L 249.7 7.55 Z
M -227.9 -20
L -243.95 -20 -243.4 -27.45
Q -243.05 -32.65 -243.6 -34.05 -244.05 -35.5 -245.5 -35.5 -247.05 -35.5 -248 -33.55 -248.95 -31.65 -249.25 -27.75 -249.6 -22.75 -248.9 -20.2 -248.2 -17.65 -244.45 -14.05 -233.65 -3.7 -231.1 2.9 -228.65 9.55 -229.75 24.25 -230.5 35 -232.5 40.05 -234.55 45.15 -239.55 48.6 -244.6 52 -250.9 52 -257.85 52 -262.45 48.05 -267.1 44.1 -268.2 37.95 -269.25 31.8 -268.4 20.55
L -267.95 14 -251.9 14 -252.75 26.2
Q -253.2 31.8 -252.6 33.45 -252.05 35.05 -250.3 35.05 -248.6 35.05 -247.6 33 -246.6 30.95 -246.35 26.95 -245.7 18.05 -247.1 15.35 -248.55 12.6 -254.5 6.25 -260.5 -0.2 -262.4 -3.1 -264.25 -6 -265.25 -11.15 -266.25 -16.3 -265.7 -24.3 -264.85 -35.8 -262.45 -41.1 -260.2 -46.45 -255.6 -49.4 -251.05 -52.45 -244.85 -52.45 -238.15 -52.45 -233.6 -49.15 -229.1 -45.9 -227.95 -40.9 -226.75 -35.9 -227.6 -23.95
L -227.9 -20 Z
M -179.6 -50.35
L -184.5 16.65
Q -185.3 28.05 -186.15 32.7 -187 37.25 -189.75 42.15 -192.55 47 -196.6 49.55 -200.8 52 -206.2 52 -212.15 52 -216.5 49.05 -220.8 46.05 -222.7 41.3 -224.6 36.55 -224.7 31.25 -224.7 25.95 -223.45 8.95
L -219.15 -50.35 -201.85 -50.35 -207.3 24.8
Q -207.8 31.4 -207.45 33.25 -207.1 35.05 -205.65 35.05 -204.05 35.05 -203.4 33.05 -202.8 31 -202.3 23.5
L -196.9 -50.35 -179.6 -50.35 Z
M -95.85 -50.35
L -83.6 -50.35
Q -71.35 -50.35 -67.1 -48.95 -62.9 -47.5 -60.6 -41.6 -58.3 -35.8 -59.25 -23 -60.1 -11.3 -62.3 -7.25 -64.55 -3.25 -70.25 -2.4 -65.3 -0.5 -63.7 2.7 -62.2 5.95 -61.95 8.65 -61.75 11.3 -62.6 23.45
L -64.55 49.9 -80.6 49.9 -78.15 16.6
Q -77.6 8.55 -78.25 6.6 -79 4.7 -82.55 4.7
L -85.85 49.9 -103.15 49.9 -95.85 -50.35 Z
M -173 -50.35
L -155.6 -50.35
Q -148.5 -50.35 -144.8 -48.7 -141.15 -47 -139.45 -43.85 -137.8 -40.7 -137.45 -36.15 -137.1 -31.7 -137.8 -22.3
L -138.4 -13.55
Q -139.1 -3.95 -140.75 0.45 -142.4 4.8 -146.05 7.15 -149.75 9.55 -155.4 9.55
L -160.05 9.55 -163 49.9 -180.3 49.9 -173 -50.35 Z
M -156.95 -33.2
L -158.8 -7.7
Q -158.05 -7.6 -157.55 -7.6 -155.15 -7.6 -154.1 -9.35 -153.05 -11.15 -152.65 -16.75
L -152.05 -24.95
Q -151.65 -30.1 -152.6 -31.65 -153.6 -33.2 -156.95 -33.2 Z
M -130.9 -50.35
L -102.05 -50.35 -103.5 -30.3 -115.05 -30.3 -116.45 -11.3 -105.65 -11.3 -107.05 7.8 -117.85 7.8 -119.45 29.85 -106.75 29.85 -108.2 49.9 -138.2 49.9 -130.9 -50.35 Z
M -16.2 -20
L -32.25 -20 -31.7 -27.45
Q -31.35 -32.65 -31.9 -34.05 -32.35 -35.5 -33.8 -35.5 -35.35 -35.5 -36.3 -33.55 -37.25 -31.65 -37.55 -27.75 -37.9 -22.75 -37.2 -20.2 -36.5 -17.65 -32.75 -14.05 -21.95 -3.7 -19.4 2.9 -16.95 9.55 -18.05 24.25 -18.8 35 -20.8 40.05 -22.85 45.15 -27.85 48.6 -32.9 52 -39.2 52 -46.15 52 -50.75 48.05 -55.4 44.1 -56.5 37.95 -57.55 31.8 -56.7 20.55
L -56.25 14 -40.2 14 -41.05 26.2
Q -41.5 31.8 -40.9 33.45 -40.35 35.05 -38.6 35.05 -36.9 35.05 -35.9 33 -34.9 30.95 -34.65 26.95 -34 18.05 -35.4 15.35 -36.85 12.6 -42.8 6.25 -48.8 -0.2 -50.7 -3.1 -52.55 -6 -53.55 -11.15 -54.55 -16.3 -54 -24.3 -53.15 -35.8 -50.75 -41.1 -48.5 -46.45 -43.9 -49.4 -39.35 -52.45 -33.15 -52.45 -26.45 -52.45 -21.9 -49.15 -17.4 -45.9 -16.25 -40.9 -15.05 -35.9 -15.9 -23.95
L -16.2 -20 Z
M -79.8 -33.2
L -81.4 -10.9
Q -78.5 -10.9 -77.25 -12.1 -76 -13.3 -75.5 -19.95
L -75.1 -25.45
Q -74.75 -30.25 -75.75 -31.7 -76.8 -33.2 -79.8 -33.2 Z"/>
</defs>

<g transform="matrix( 1, 0, 0, 1, 445.15,127.05) ">
<mask id="Mask_Mask_1">
<g transform="matrix( 1, 0, 0, 1, 0,0) ">
<use xlink:href="#Mask_banner_0_6_MASK_0_FILL"/>
</g>
</mask>

<g mask="url(#Mask_Mask_1)">
<g transform="matrix( 1, 0, 0, 1, 0,0) ">
<use xlink:href="#banner_0_Layer6_0_FILL"/>
</g>
</g>

<g mask="url(#Mask_Mask_1)">
<g transform="matrix( 1, 0, 0, 1, 0,0) ">
<use xlink:href="#banner_0_Layer5_0_FILL"/>
</g>
</g>

<g mask="url(#Mask_Mask_1)">
<g transform="matrix( 1, 0, 0, 1, 0,0) ">
<use xlink:href="#banner_0_Layer4_0_FILL"/>
</g>
</g>

<g transform="matrix( 1, 0, 0, 1, 0,0) ">
<use xlink:href="#banner_0_Layer2_0_FILL"/>
</g>

<g transform="matrix( 1, 0, 0, 1, -124.65,5.75) ">
<g transform="matrix( 1, 0, 0, 1, 0,0) ">
<use xlink:href="#Symbol_1_0_Layer1_0_1_STROKES"/>
</g>

<g filter="url(#Filter_1)" transform="matrix( 1, 0, 0, 1, -320.5,-132.8) ">
<g transform="matrix( 1, 0, 0, 1, 320.5,132.8) ">
<mask id="Mask_Mask_2">
<g transform="matrix( 1, 0, 0, 1, 0,0) ">
<use xlink:href="#Mask_logo_0_1_MASK_0_FILL"/>
</g>
</mask>

<g mask="url(#Mask_Mask_2)">
<g transform="matrix( 1, 0, 0, 1, 0,0) ">
<use xlink:href="#logo_0_Layer1_0_FILL"/>
</g>
</g>
</g>
</g>
</g>
</g>
</svg>
