
<svg xmlns="http://www.w3.org/2000/svg" version="1.1" xmlns:xlink="http://www.w3.org/1999/xlink" preserveAspectRatio="none" x="0px" y="0px" width="223px" height="52px" viewBox="0 0 223 52">
<defs>
<g id="animations_0_Layer0_0_FILL">
<path fill="#666666" stroke="none" d="
M 111.5 -25
Q 111.3482421875 -25.090234375 111.15 -25.1
L 111.15 -25.1
Q 83.998046875 -24.5501953125 29.65 -24.4 -23.13984375 -24.25 -52.55 -24.6 -57.4392578125 -24.851953125 -65.1 -25.25 -76.0255859375 -25.9005859375 -86.5 -25.95 -89.3001953125 -26 -92.05 -26 -101.42578125 -26.0005859375 -110.4 -25.5 -110.6845703125 -25.487890625 -110.9 -25.3
L -110.9 -25.25
Q -111.0861328125 -25.0466796875 -111.1 -24.8
L -111.25 -9
Q -111.400390625 11.46875 -111.85 20.3 -112.0234375 21.778515625 -111.5 22.6 -111.13359375 23.4439453125 -109.7 23.95 -109.6681640625 23.9837890625 -109.65 24 -106.29140625 25.3380859375 -101.75 25.8 -100.855859375 25.90078125 -99.6 25.95 -97.11640625 26.0505859375 -93.55 26
L 98.95 25.65
Q 105.953125 25.552734375 110.55 26.05 110.7841796875 26.0708984375 110.95 25.95
L 111 25.95
Q 111.20703125 25.871875 111.3 25.65
L 111.3 25.65
Q 111.4146484375 25.4615234375 111.4 25.25
L 111.4 25.2 110.25 6.9 110.15 -5.4
Q 110.006640625 -13.6873046875 111.45 -21.95
L 111.9 -24.2 111.9 -24.25
Q 111.9287109375 -24.4552734375 111.8 -24.7 111.7171875 -24.8845703125 111.5 -25
M 46.65 -20.85
L 57.5 -20.9
Q 63.5978515625 -20.85 75.6 -20.95 89.8125 -21.0001953125 103.95 -21.4
L 107.2 -21.35
Q 107.0701171875 -20.28515625 107 -19.2 106.349609375 -10.4875 106.1 -1.85
L 107.25 22 -93.25 22.55
Q -98.65 22.5478515625 -101.5 22.25 -105.571484375 21.6548828125 -108.55 20.15 -107.910546875 -0.397265625 -107.9 -21.95 -85.4935546875 -22.9248046875 -62.7 -21.5 -55.300390625 -21.1 -52.6 -20.95
L -52.6 -20.95
Q -50.200390625 -20.85 -47.85 -20.65
L -47.75 -20.65
Q -38.3001953125 -20.45 -28.8 -20.45 32.227734375 -20.4498046875 36.55 -20.65 40.91484375 -20.8498046875 46.65 -20.85 Z"/>

<path fill="#CCCCCC" stroke="none" d="
M 57.5 -20.9
L 46.65 -20.85
Q 40.91484375 -20.8498046875 36.55 -20.65 32.227734375 -20.4498046875 -28.8 -20.45 -38.3001953125 -20.45 -47.75 -20.65
L -47.85 -20.65
Q -50.200390625 -20.85 -52.6 -20.95
L -52.6 -20.95
Q -55.300390625 -21.1 -62.7 -21.5 -85.4935546875 -22.9248046875 -107.9 -21.95 -107.910546875 -0.397265625 -108.55 20.15 -105.571484375 21.6548828125 -101.5 22.25 -98.65 22.5478515625 -93.25 22.55
L 107.25 22 106.1 -1.85
Q 106.349609375 -10.4875 107 -19.2 107.0701171875 -20.28515625 107.2 -21.35
L 103.95 -21.4
Q 89.8125 -21.0001953125 75.6 -20.95 63.5978515625 -20.85 57.5 -20.9
M 0 -6.25
Q 0.2740234375 -6.941015625 0.7 -7.1 0.939453125 -7.2541015625 1.45 -7.25
L 2.8 -7.25
Q 2.8373046875 -7.2525390625 2.85 -7.25
L 3.2 -7.2
Q 3.3501953125 -7.1802734375 3.45 -7.1 3.5509765625 -7.0201171875 3.6 -6.9
L 3.75 -6.55
Q 3.78046875 -6.5017578125 3.8 -6.45
L 5.8 4.5 5.8 4.5
Q 6.355859375 7.979296875 6.35 9.35 6.3482421875 9.5552734375 6.2 9.7 6.0552734375 9.8482421875 5.85 9.85
L 3.9 9.85
Q 3.73125 9.855078125 3.6 9.75 3.450390625 9.6298828125 3.4 9.45 2.41171875 5.0361328125 1.6 0.05 1.41484375 0.8373046875 1.25 1.8 0.778125 4.7109375 0.25 5.95 -0.1298828125 6.843359375 -0.6 7.05 -0.914453125 7.298046875 -1.75 7.3
L -2.9 7.3
Q -3.7970703125 7.3044921875 -4.2 7 -4.5748046875 6.8248046875 -4.95 6.05 -5.6486328125 4.6306640625 -7.05 1.3
L -7.25 5.95
Q -7.3580078125 8.68671875 -7.8 10.35 -7.813671875 10.5443359375 -7.95 10.65 -8.081640625 10.7556640625 -8.25 10.75
L -10.25 10.7
Q -10.4353515625 10.6962890625 -10.6 10.55 -10.7181640625 10.4537109375 -10.75 10.25 -10.8630859375 9.5111328125 -10.7 8.45
L -10.7 8.45
Q -10.50234375 7.3822265625 -10.45 6.85
L -10.45 6.8
Q -10.2548828125 5.84453125 -10.25 4.65
L -10.25 4.6
Q -10.15 1.522265625 -10.05 -0.05 -9.953515625 -2.8205078125 -9.55 -4.75 -9.3818359375 -5.483984375 -9.1 -5.65 -8.97109375 -5.6880859375 -8.85 -5.7
L -8.45 -5.75 -6.9 -5.75
Q -6.3970703125 -5.7486328125 -6.2 -5.6 -5.9240234375 -5.4666015625 -5.65 -4.85
L -5.65 -4.85
Q -4.110546875 -0.752734375 -2.4 2.95 -2.1109375 1.975 -1.85 0.7 -1.2359375 -2.4734375 -1.15 -2.9
L -1.15 -2.85
Q -0.7375 -4.6873046875 -0.05 -6.2 -0.015234375 -6.2013671875 0 -6.25
M 16.05 -10.5
Q 16.1001953125 -10.488671875 16.1 -10.5 16.5185546875 -10.2359375 16.9 -9.55
L 16.85 -9.55
Q 19.3564453125 -5.50390625 20.8 -0.85 21.2244140625 0.4599609375 21.9 3
L 21.9 3
Q 22.6126953125 5.2677734375 23.3 6.75
L 23.3 6.75 23.7 7.75 23.7 7.8
Q 23.8470703125 8.197265625 23.85 9.6 23.8482421875 9.8052734375 23.7 9.95 23.5552734375 10.0982421875 23.35 10.1
L 21.2 10.1
Q 21.080859375 10.10390625 20.95 10.05 20.86796875 9.984375 20.8 9.85 20.21015625 9.04140625 19.55 7.05 18.895703125 4.799609375 18.4 3.25 18.176953125 3.3654296875 18.1 3.35
L 14.65 3.4 12.9 3.85
Q 12.8736328125 3.928125 12.8 4 12.6552734375 4.1482421875 12.45 4.15
L 12.35 4.15
Q 11.826953125 7.8421875 12.15 11.05 12.1638671875 11.1935546875 12.1 11.3 12.041796875 11.4515625 11.9 11.5 11.7974609375 11.600390625 11.65 11.6
L 9.6 11.6
Q 9.3994140625 11.603515625 9.25 11.45 9.1115234375 11.342578125 9.1 11.15 8.6412109375 5.9392578125 9.6 0.4
L 9.6 0.4
Q 10.309375 -3.37421875 11.65 -7.35
L 11.65 -7.35
Q 11.984375 -8.478125 12.45 -9.5 12.4611328125 -9.5 12.45 -9.55 12.8765625 -10.145703125 13 -10.25
L 13 -10.3
Q 13.5025390625 -10.7494140625 14.85 -10.75 15.5857421875 -10.7513671875 16.05 -10.5
M 22.25 -9.65
Q 22.2529296875 -9.8544921875 22.4 -10 22.5451171875 -10.1466796875 22.75 -10.15 29.0333984375 -10.250390625 32.15 -10.45 35.9126953125 -10.6517578125 37.05 -10.6 37.2669921875 -10.5912109375 37.4 -10.45 37.541796875 -10.3025390625 37.55 -10.1
L 37.6 -8.05
Q 37.6109375 -7.846875 37.45 -7.7 37.331640625 -7.5533203125 37.1 -7.55
L 30.85 -7.4
Q 31.079296875 -4.281640625 31.4 2.35
L 31.7 9.35
Q 31.7109375 9.5072265625 31.65 9.6 31.576171875 9.75078125 31.45 9.8 31.3341796875 9.8978515625 31.2 9.9
L 29.2 9.9
Q 28.9974609375 9.8939453125 28.85 9.75 28.7076171875 9.6173828125 28.7 9.4
L 27.8 -7.3 22.75 -7.2
Q 22.616796875 -7.203125 22.5 -7.3 22.387890625 -7.3369140625 22.3 -7.45 22.2529296875 -7.56640625 22.25 -7.7
L 22.25 -9.65
M 39.95 -8.85
Q 39.9517578125 -9.0552734375 40.1 -9.2 40.2447265625 -9.3482421875 40.45 -9.35
L 42.4 -9.35
Q 42.6015625 -9.355078125 42.75 -9.25 42.890625 -9.08046875 42.9 -8.9
L 44.05 8.05
Q 44.06328125 8.2080078125 44 8.3 43.928125 8.451953125 43.8 8.5 43.6837890625 8.6001953125 43.55 8.6
L 41.5 8.55
Q 41.2994140625 8.539453125 41.15 8.4 41.012109375 8.266796875 41 8.05
L 40.15 -3.45
Q 39.9494140625 -7.0421875 39.95 -8.85
M 48.45 -5.65
L 48.5 -5.65
Q 49.2419921875 -6.6580078125 50.25 -7.4 51.28125 -8.15390625 52.45 -8.5
L 52.45 -8.5
Q 53.08828125 -8.6984375 54.5 -8.7
L 54.55 -8.7
Q 57.6421875 -8.8041015625 58.9 -8
L 58.9 -8
Q 59.784375 -7.434375 59.9 -6.8
L 59.85 -6.9
Q 59.94375 -6.696484375 60 -6.45 61.17890625 -6.6154296875 62.6 -6
L 62.6 -6
Q 63.894921875 -5.36328125 64.9 -4.2
L 64.9 -4.2
Q 66.0052734375 -3.08671875 66.3 -2.1
L 66.3 -2.15
Q 66.6533203125 -1.2591796875 66.65 0.15 66.6560546875 1.8166015625 66.15 3
L 66.15 2.95
Q 65.7970703125 3.9490234375 64.85 4.95 62.9978515625 7.2115234375 60.65 8.3
L 60.65 8.3
Q 58.0673828125 9.5533203125 54.55 9.45 52.5201171875 9.3390625 51.15 8.75
L 51.1 8.75
Q 48.7482421875 7.576953125 47.7 4.65 47.0439453125 2.8009765625 47.15 -0.5 47.25 -3.843359375 48.45 -5.65
M 70 -6.75
Q 70.300390625 -7.4072265625 70.7 -7.7 70.749609375 -7.688671875 70.75 -7.7 71.0328125 -7.8513671875 71.75 -7.85
L 72.65 -7.85
Q 73.257421875 -7.8513671875 73.5 -7.7 74.2548828125 -7.508203125 74.95 -6.25 77.0875 -2.31328125 79.3 1.25
L 79.3 1.3
Q 80.7857421875 3.691796875 81.95 4.9 82.284375 2.7017578125 82.45 -1.05 82.6482421875 -5.8119140625 83.05 -8.1 83.081640625 -8.25703125 83.2 -8.4 83.3794921875 -8.498828125 83.55 -8.5
L 85.5 -8.45
Q 85.7130859375 -8.45 85.85 -8.35 85.985546875 -8.1921875 86 -8 86.105078125 -6.858203125 85.95 -5.25 85.850390625 -4.38984375 85.6 -2.65 85.4009765625 -1.1892578125 85.3 2.1 85.2015625 5.3091796875 84.95 6.95
L 84.95 7
Q 84.7078125 8.1736328125 84.3 8.55
L 84.3 8.6
Q 83.6740234375 9.2482421875 82.6 9.25 81.01015625 9.262890625 79.65 8
L 79.65 8
Q 78.6712890625 7.1271484375 77.75 5.65
L 77.75 5.65
Q 74.9626953125 1.4529296875 72.4 -3.25 71.7734375 -0.9890625 71.7 2.4
L 71.7 2.4
Q 71.6501953125 3.4705078125 71.65 8.65 71.6482421875 8.8552734375 71.5 9 71.3552734375 9.1482421875 71.15 9.15
L 69.2 9.15
Q 68.9947265625 9.1482421875 68.85 9 68.7017578125 8.8552734375 68.7 8.65
L 68.7 1.3
Q 68.805859375 -3.9814453125 70.05 -6.75
L 70 -6.75
M 90.25 -0.7
Q 89.64375 -1.084765625 89.4 -1.65
L 89.4 -1.6
Q 89.269921875 -1.7544921875 89.15 -2.8
L 89.15 -2.85
Q 89.1482421875 -4.7169921875 89.45 -5.65 89.9375 -6.8818359375 92.3 -8.6
L 92.3 -8.65 93.4 -9.35
Q 93.462890625 -9.3392578125 93.5 -9.35 94.2900390625 -9.7416015625 96.55 -9.85
L 96.6 -9.85
Q 99.091015625 -9.84453125 100 -9.05
L 100 -9.05
Q 100.9595703125 -8.291796875 101.25 -6.95 101.4619140625 -5.9873046875 101.35 -4.65 101.3392578125 -4.45703125 101.2 -4.35 101.050390625 -4.1958984375 100.85 -4.2
L 98.9 -4.2
Q 98.7490234375 -4.2052734375 98.6 -4.3 98.4880859375 -4.384375 98.4 -4.55 98.0240234375 -5.6072265625 97.7 -6
L 97.7 -6
Q 97.2517578125 -6.634765625 96.55 -6.65 96.0169921875 -6.6205078125 95.2 -6.1 93.23203125 -4.7826171875 92.6 -3.75
L 92.55 -3.6
Q 92.579296875 -3.6017578125 92.6 -3.6
L 92.65 -3.55
Q 93.41640625 -2.975390625 94.85 -2.35 96.8203125 -1.4970703125 97.2 -1.3 98.59375 -0.55859375 99.7 0.55 100.49375 1.33828125 100.75 2.05 101.0541015625 2.780078125 101.05 4.25 101.05 6.0541015625 100.35 6.95 100.306640625 7.0056640625 100.25 7.05
L 99.4 7.7
Q 98.76640625 8.15703125 98.05 8.3
L 98.1 8.3
Q 97.4072265625 8.546484375 95.95 8.55
L 95.95 8.55
Q 92.523046875 8.6462890625 90.55 8.1 89.9806640625 7.9599609375 89.8 7.65 89.7619140625 7.57109375 89.75 7.45
L 89.7 7.05 89.7 5.5
Q 89.704296875 5.296484375 89.85 5.15 89.981640625 5.0052734375 90.15 5 91.9259765625 4.943359375 93.6 5.3 95.092578125 5.512109375 95.4 5.55 96.091796875 5.44375 97.05 4.75 97.69453125 4.358203125 97.75 4 97.69921875 3.8525390625 97.45 3.6
L 97.4 3.55
Q 96.5689453125 2.630859375 95.45 1.9 94.7423828125 1.447265625 92.95 0.7
L 92.95 0.7
Q 91.133203125 -0.076171875 90.25 -0.7
M -52.6 -0.35
L -52.6 -0.3
Q -51.2146484375 -4.862109375 -49.7 -7.65
L -49.7 -7.7
Q -48.9904296875 -8.72109375 -48.4 -8.9 -48.3390625 -8.8978515625 -48.3 -8.9
L -46.6 -8.95
Q -46.53828125 -8.9515625 -46.5 -8.95
L -45.85 -8.9
Q -45.78671875 -8.8966796875 -45.75 -8.9 -45.0015625 -8.6451171875 -44.5 -7.5
L -44.5 -7.55
Q -43.28828125 -4.947265625 -41.8 -0.15
L -41.8 -0.15
Q -41.670703125 0.2375 -41.55 0.6
L -41.05 0.6
Q -40.8447265625 0.6017578125 -40.7 0.75 -40.5517578125 0.8947265625 -40.55 1.1
L -40.55 2.65 -40.6 3.05
Q -40.6177734375 3.1724609375 -40.7 3.25 -39.81015625 5.885546875 -39.25 7.2 -38.5294921875 8.951953125 -38.4 9.5
L -38.4 9.5
Q -37.9326171875 10.9263671875 -38.1 12 -38.12109375 12.18125 -38.25 12.3 -38.3400390625 12.41484375 -38.5 12.45 -38.640625 12.483203125 -38.8 12.4 -38.9626953125 12.3783203125 -39.55 12.45 -40.4546875 12.5958984375 -40.8 12.25 -41.1537109375 12.0357421875 -41.45 11.35
L -41.4 11.4
Q -42.81328125 8.0259765625 -44 4.35 -44.0041015625 4.267578125 -44.05 4.2 -44.3802734375 4.219140625 -44.75 4.25
L -44.8 4.25
Q -47.0228515625 4.4015625 -47.95 4.6
L -47.95 4.55 -50.1 5.15
Q -50.333984375 5.25390625 -50.7 5.3 -51.698046875 8.62421875 -52.25 10.55 -52.2673828125 10.7427734375 -52.4 10.85 -52.53359375 10.9515625 -52.7 10.95
L -54.65 10.95
Q -54.8505859375 10.953515625 -55 10.8 -55.138671875 10.69296875 -55.15 10.5 -55.3142578125 8.6751953125 -54.35 5.45
L -54.35 5.45
Q -53.3244140625 1.8458984375 -52.6 -0.35
M -34.4 -6.4
Q -33.459375 -6.462109375 -33 -6.2 -32.7203125 -6.096875 -32.2 -5.45 -32.1625 -5.4 -32.15 -5.4 -29.572265625 -1.700390625 -27.65 2
L -27.7 2 -26.05 4.85
Q -25.74296875 3.23046875 -25.4 0.75
L -24.8 -3.75
Q -24.65078125 -5.5748046875 -24.65 -7.35 -24.6470703125 -7.4833984375 -24.6 -7.6 -24.5125 -7.7130859375 -24.4 -7.8 -24.283203125 -7.847265625 -24.15 -7.85
L -22.05 -7.8
Q -21.850390625 -7.799609375 -21.7 -7.7 -21.5650390625 -7.5416015625 -21.55 -7.35 -21.342578125 -5.309765625 -21.7 -2.4
L -21.7 -2.4
Q -21.9490234375 -0.7810546875 -22.45 2.4 -22.55 3.35 -22.75 5.25 -22.9609375 6.9447265625 -23.3 8.05
L -23.25 8.05
Q -23.52421875 9.2431640625 -24.3 9.55 -24.32578125 9.563671875 -24.35 9.55 -24.5201171875 9.6501953125 -25.45 9.65 -26.333203125 9.644921875 -26.8 9.5
L -26.8 9.5
Q -27.3466796875 9.36875 -28.25 8.35
L -28.25 8.35
Q -28.9173828125 7.486328125 -30.55 4.25 -31.9626953125 1.5556640625 -33.6 -0.95 -34.0330078125 3.1755859375 -33.95 10.45 -33.95 10.65390625 -34.1 10.8 -34.244921875 10.949609375 -34.45 10.95
L -36.35 10.95
Q -36.5533203125 10.94609375 -36.7 10.8 -36.8453125 10.6673828125 -36.85 10.45 -37.15625 -0.354296875 -36.1 -6 -36.072265625 -6.1298828125 -36 -6.25 -35.869921875 -6.333203125 -35.75 -6.4 -35.600390625 -6.4140625 -35.5 -6.4 -35.1703125 -6.3109375 -34.4 -6.4
L -34.4 -6.4
M -14.95 -7.15
Q -14.8107421875 -6.99296875 -14.8 -6.8 -14.5998046875 -4.2892578125 -14.45 -0.7
L -14.45 -0.65
Q -14.4001953125 1.3435546875 -14.3 5.35
L -14 10.9
Q -13.9873046875 11.0578125 -14.05 11.15 -14.12265625 11.3017578125 -14.25 11.35 -14.3658203125 11.4498046875 -14.5 11.45
L -16.5 11.4
Q -16.6642578125 11.39296875 -16.8 11.3 -16.9236328125 11.214453125 -17 11.05 -17.1990234375 10.4578125 -17.2 9.65
L -17.8 -6.75
Q -17.810546875 -6.869921875 -17.75 -7 -17.676171875 -7.1126953125 -17.55 -7.2 -17.4341796875 -7.2478515625 -17.3 -7.25
L -15.3 -7.25
Q -15.099609375 -7.2541015625 -14.95 -7.15
M -106.9 -6.9
L -106.9 -6.95
Q -107.1427734375 -8.1091796875 -106.7 -8.6 -106.3451171875 -9.216015625 -105.35 -9.55 -101.4287109375 -11.1275390625 -93 -13.6 -89.537890625 -14.6103515625 -87.7 -14.5 -87.4697265625 -14.4919921875 -87.35 -14.35 -87.1939453125 -14.2013671875 -87.2 -14
L -87.2 -12.35
Q -87.198046875 -12.182421875 -87.3 -12.05 -87.4078125 -11.916796875 -87.6 -11.9 -98.3552734375 -8.9966796875 -103.5 -6.8 -99.8212890625 3.8001953125 -94.2 14 -94.02890625 14.3306640625 -93.85 14.4
L -93.8 14.4
Q -93.6984375 14.410546875 -93.25 14.3
L -80.7 9.35 -80.7 9.4
Q -78.1890625 8.3072265625 -77.2 7.85
L -79.5 3.1 -79.5 3.15
Q -80.5244140625 1.2611328125 -80.1 0.05 -80.0271484375 -0.1041015625 -79.9 -0.2 -79.76484375 -0.297265625 -79.6 -0.3
L -77.85 -0.3
Q -77.7158203125 -0.2978515625 -77.6 -0.25 -77.4736328125 -0.162109375 -77.4 -0.05 -76.8015625 1.0583984375 -75.75 3.25 -75.71875 3.342578125 -75.7 3.4 -74.6525390625 5.6115234375 -74.05 6.6
L -74.05 6.65 -73.45 7.7
Q -73.3291015625 7.853515625 -73.35 8
L -73.35 8.05
Q -73.2658203125 8.5615234375 -73.35 9.55 -73.365234375 9.68671875 -73.45 9.8 -73.52734375 9.903515625 -73.65 9.95 -77.010546875 11.4119140625 -81.8 13.2
L -88.8 16
Q -90.7927734375 16.7775390625 -91.8 17.05
L -91.85 17.05
Q -93.5716796875 17.558203125 -95 17.4
L -95.05 17.4
Q -95.8056640625 17.274609375 -96.1 17.05 -96.1255859375 17.0623046875 -96.15 17.05 -96.59921875 16.730859375 -96.85 16.15
L -96.85 16.15
Q -101.203515625 7.7578125 -103.3 2.65
L -103.35 2.6 -106 -4.05 -105.95 -4
Q -106.73203125 -5.8072265625 -106.9 -6.9
M -65.35 -19.55
L -65.3 -19.55
Q -63.9 -19.6 -61.7 -19.35 -60.85 -19.25 -60.3 -19 -59.7 -18.6 -59.45 -17.75 -59.2 -17.1 -59.2 -16.15 -59.2 -14.65 -59.7 -13.45
L -59.65 -13.45
Q -60 -12.85 -61.15 -11.3 -61.2 -11.25 -61.2 -11.2 -61.45 -11.05 -61.6 -10.9
L -61.65 -10.85
Q -61.7 -10.8 -61.7 -10.75 -61.7 -10.4 -61.8 -10.15
L -61.75 -10.15
Q -61.9 -9.9 -62.35 -9.65 -63.55 -9.05 -65.3 -8.05
L -65.35 -8.05
Q -65.4 -8.05 -65.4 -8 -66.95 -7.2 -68.8 -6.25 -73.25 -4.05 -75.3 -2.9 -78.35 -1.25 -80.25 0 -81.55 0.7 -82.15 0.9
L -82.3 0.95
Q -82.35 0.95 -82.35 1
L -82.4 1.05
Q -82.45 1.1 -82.45 1.15
L -82.45 1.2
Q -82.75 1.15 -83.25 1.2
L -83.5 1.25
Q -89 2.2 -91.95 2.1 -91.95 -2.75 -90.7 -7.7 -87.7 -9.55 -77.25 -15.3 -75.05 -16.5 -73.75 -16.3
L -73.7 -16.25
Q -73.65 -16.2 -73.6 -16.2
L -72.35 -16.2 -69.4 -10.3
Q -69.25 -10.1 -69.25 -10
L -69.25 -9.95 -69.2 -9.6 -69.2 -9.05
Q -69.2 -9 -69.15 -8.95 -69.1 -8.9 -69.05 -8.9
L -68.95 -8.9
Q -68.9 -8.9 -68.85 -8.9
L -68.1 -9.3
Q -68.1 -9.35 -68.05 -9.35 -68.05 -9.4 -68.05 -9.45
L -68.05 -9.55
Q -68.5 -10.4 -68.7 -10.8
L -70.35 -14.5
Q -70.65 -15.2 -70.7 -15.5
L -70.7 -15.55
Q -70.8 -15.85 -70.75 -16.4
L -70.75 -16.45
Q -70.75 -16.95 -70.75 -17.2
L -69.55 -17.15
Q -69.5 -17.15 -69.45 -17.15 -69.45 -17.2 -69.4 -17.2 -69.4 -17.25 -69.4 -17.3
L -69.4 -18.7 -69.35 -18.85 -69.15 -18.95 -65.35 -19.55
M -68.7 -17.15
L -68.75 -17.15
Q -68.8 -17.15 -68.85 -17.1 -68.9 -17.05 -68.9 -17
L -68.9 -16.9
Q -68.9 -16.85 -68.85 -16.85
L -66.95 -12.5 -66.95 -12.45
Q -66.55 -11.5 -65.95 -10.65
L -65.9 -10.6 -65.8 -10.6
Q -65.75 -10.6 -65.7 -10.6
L -63.7 -11.65
Q -63.7 -11.7 -63.65 -11.7 -63.65 -11.75 -63.65 -11.8
L -63.65 -12.4
Q -63.4 -12.55 -63.05 -12.85
L -63.05 -12.9
Q -62.05 -14 -61.35 -15.2 -61.1 -15.75 -61.15 -16.1 -61.15 -16.25 -61.45 -16.7
L -61.5 -16.7
Q -62.05 -17.25 -62.15 -17.35 -62.2 -17.4 -62.25 -17.4
L -63.05 -17.6
Q -64.35 -17.85 -65.4 -17.65
L -67.25 -17.25
Q -67.8 -17.15 -68.7 -17.15
M -88.85 -5.05
Q -88.9 -5.05 -88.95 -5.05 -88.95 -5.1 -89 -5.1
L -89.05 -5.1
Q -89.25 -5.1 -89.25 -4.9
L -89.75 -2.25 -89.75 -2.2
Q -89.75 -2.15 -89.7 -2.1 -89.65 -2.05 -89.6 -2.05
L -89.05 -2.05
Q -89.05 -1.8 -88.95 -1.35
L -88.95 -0.1
Q -88.95 -0.05 -88.9 0
L -88.85 0.05
Q -88.85 0.1 -88.8 0.1
L -88.75 0.1
Q -87.4 0 -86 -0.3
L -85.95 -0.3
Q -85.9 -0.3 -85.85 -0.35 -85.8 -0.4 -85.8 -0.45
L -85.8 -0.55
Q -86.5 -1.55 -87.25 -2.85 -88.15 -4.2 -88.85 -5.05
M -87.1 -7.05
Q -87.15 -7.05 -87.15 -7 -87.2 -7 -87.2 -6.95
L -87.2 -6.9
Q -87.2 -6.85 -87.15 -6.8 -86.3 -5.8 -85.2 -4 -84.15 -2.35 -83.35 -1.35
L -83.3 -1.3 -83.15 -1.3
Q -83.1 -1.3 -83.05 -1.3 -82.75 -1.55 -82.2 -1.75
L -82.15 -1.75 -70.7 -7.9
Q -70.7 -7.95 -70.65 -7.95 -70.65 -8 -70.65 -8.05
L -70.65 -8.15
Q -70.65 -8.2 -70.7 -8.25 -70.75 -8.3 -70.8 -8.3
L -70.9 -8.3
Q -72.4 -10.85 -73.5 -13.2
L -73.85 -13.85 -73.9 -14.1
Q -73.9 -14.2 -73.95 -14.2 -74 -14.25 -74.05 -14.25
L -74.15 -14.25
Q -74.2 -14.25 -74.2 -14.2 -74.4 -14.15 -74.65 -13.95 -81.45 -10.55 -87.1 -7.05
M -77.1 8.05
L -77.1 7.9
Q -77.1166015625 7.9345703125 -77.15 7.95 -77.15 8.0466796875 -77.15 8.15
L -77.1 8.05
M -45.65 -0.65
Q -46.365625 -2.904296875 -47.15 -4.6 -48.2412109375 -2.4328125 -49.55 1.55 -49.31640625 1.490625 -49.1 1.45 -49.037109375 1.4470703125 -49 1.45 -48.9537109375 1.4470703125 -46.2 1.2 -45.576953125 1.1353515625 -45.05 1.05 -45.391015625 0.062109375 -45.65 -0.65
M 55.6 -5.55
L 55.6 -5.55
Q 54.7501953125 -5.8572265625 53.45 -5.05
L 53.45 -5.05
Q 52.323046875 -4.3671875 51.5 -3.5 50.153125 -1.8275390625 50.25 0.3 50.3408203125 2.3916015625 51.6 4.2
L 51.6 4.2
Q 53.0353515625 6.226171875 54.95 6.3
L 55 6.3
Q 55.4908203125 6.33828125 56.45 6.05 60.8751953125 4.9234375 63.1 1 63.4220703125 0.4708984375 63.4 0.1 63.3611328125 -0.2029296875 63.1 -0.5 63.1119140625 -0.49921875 63.1 -0.55 61.9583984375 -2.1634765625 60.3 -3.05
L 60.3 -3.05
Q 59.5673828125 -3.429296875 59.3 -3.85 59.311328125 -3.8498046875 59.3 -3.9 59.2021484375 -4.0482421875 59.15 -4.3 57.7669921875 -4.1228515625 56.6 -4.9
L 56.6 -4.9
Q 55.837109375 -5.43671875 55.6 -5.55
M 16.45 -0.4
Q 16.5212890625 -0.50078125 16.65 -0.6 16.76484375 -0.65 16.9 -0.65
L 17.15 -0.65
Q 16.0998046875 -3.621875 14.8 -5.85 13.6998046875 -2.3759765625 13.05 0.4 14.3078125 0.247265625 15.8 0.25
L 16.4 0.25
Q 16.3244140625 -0.21640625 16.45 -0.4 Z"/>

<path fill="#7B7B7B" stroke="none" d="
M -65.3 -19.55
L -65.35 -19.55 -69.15 -18.95 -69.35 -18.85 -69.4 -18.7 -69.4 -17.3
Q -69.4 -17.25 -69.4 -17.2 -69.45 -17.2 -69.45 -17.15 -69.5 -17.15 -69.55 -17.15
L -70.75 -17.2
Q -70.75 -16.95 -70.75 -16.45
L -70.75 -16.4
Q -70.8 -15.85 -70.7 -15.55
L -70.7 -15.5
Q -70.65 -15.2 -70.35 -14.5
L -68.7 -10.8
Q -68.5 -10.4 -68.05 -9.55
L -68.05 -9.45
Q -68.05 -9.4 -68.05 -9.35 -68.1 -9.35 -68.1 -9.3
L -68.85 -8.9
Q -68.9 -8.9 -68.95 -8.9
L -69.05 -8.9
Q -69.1 -8.9 -69.15 -8.95 -69.2 -9 -69.2 -9.05
L -69.2 -9.6 -69.25 -9.95 -69.25 -10
Q -69.25 -10.1 -69.4 -10.3
L -72.35 -16.2 -73.6 -16.2
Q -73.65 -16.2 -73.7 -16.25
L -73.75 -16.3
Q -75.05 -16.5 -77.25 -15.3 -87.7 -9.55 -90.7 -7.7 -91.95 -2.75 -91.95 2.1 -89 2.2 -83.5 1.25
L -83.25 1.2
Q -82.75 1.15 -82.45 1.2
L -82.45 1.15
Q -82.45 1.1 -82.4 1.05
L -82.35 1
Q -82.35 0.95 -82.3 0.95
L -82.15 0.9
Q -81.55 0.7 -80.25 0 -78.35 -1.25 -75.3 -2.9 -73.25 -4.05 -68.8 -6.25 -66.95 -7.2 -65.4 -8 -65.4 -8.05 -65.35 -8.05
L -65.3 -8.05
Q -63.55 -9.05 -62.35 -9.65 -61.9 -9.9 -61.75 -10.15
L -61.8 -10.15
Q -61.7 -10.4 -61.7 -10.75 -61.7 -10.8 -61.65 -10.85
L -61.6 -10.9
Q -61.45 -11.05 -61.2 -11.2 -61.2 -11.25 -61.15 -11.3 -60 -12.85 -59.65 -13.45
L -59.7 -13.45
Q -59.2 -14.65 -59.2 -16.15 -59.2 -17.1 -59.45 -17.75 -59.7 -18.6 -60.3 -19 -60.85 -19.25 -61.7 -19.35 -63.9 -19.6 -65.3 -19.55
M -87.15 -7
Q -87.15 -7.05 -87.1 -7.05 -81.45 -10.55 -74.65 -13.95 -74.4 -14.15 -74.2 -14.2 -74.2 -14.25 -74.15 -14.25
L -74.05 -14.25
Q -74 -14.25 -73.95 -14.2 -73.9 -14.2 -73.9 -14.1
L -73.85 -13.85 -73.5 -13.2
Q -72.4 -10.85 -70.9 -8.3
L -70.8 -8.3
Q -70.75 -8.3 -70.7 -8.25 -70.65 -8.2 -70.65 -8.15
L -70.65 -8.05
Q -70.65 -8 -70.65 -7.95 -70.7 -7.95 -70.7 -7.9
L -82.15 -1.75 -82.2 -1.75
Q -82.75 -1.55 -83.05 -1.3 -83.1 -1.3 -83.15 -1.3
L -83.3 -1.3 -83.35 -1.35
Q -84.15 -2.35 -85.2 -4 -86.3 -5.8 -87.15 -6.8 -87.2 -6.85 -87.2 -6.9
L -87.2 -6.95
Q -87.2 -7 -87.15 -7
M -88.95 -5.05
Q -88.9 -5.05 -88.85 -5.05 -88.15 -4.2 -87.25 -2.85 -86.5 -1.55 -85.8 -0.55
L -85.8 -0.45
Q -85.8 -0.4 -85.85 -0.35 -85.9 -0.3 -85.95 -0.3
L -86 -0.3
Q -87.4 0 -88.75 0.1
L -88.8 0.1
Q -88.85 0.1 -88.85 0.05
L -88.9 0
Q -88.95 -0.05 -88.95 -0.1
L -88.95 -1.35
Q -89.05 -1.8 -89.05 -2.05
L -89.6 -2.05
Q -89.65 -2.05 -89.7 -2.1 -89.75 -2.15 -89.75 -2.2
L -89.75 -2.25 -89.25 -4.9
Q -89.25 -5.1 -89.05 -5.1
L -89 -5.1
Q -88.95 -5.1 -88.95 -5.05
M -68.75 -17.15
L -68.7 -17.15
Q -67.8 -17.15 -67.25 -17.25
L -65.4 -17.65
Q -64.35 -17.85 -63.05 -17.6
L -62.25 -17.4
Q -62.2 -17.4 -62.15 -17.35 -62.05 -17.25 -61.5 -16.7
L -61.45 -16.7
Q -61.15 -16.25 -61.15 -16.1 -61.1 -15.75 -61.35 -15.2 -62.05 -14 -63.05 -12.9
L -63.05 -12.85
Q -63.4 -12.55 -63.65 -12.4
L -63.65 -11.8
Q -63.65 -11.75 -63.65 -11.7 -63.7 -11.7 -63.7 -11.65
L -65.7 -10.6
Q -65.75 -10.6 -65.8 -10.6
L -65.9 -10.6 -65.95 -10.65
Q -66.55 -11.5 -66.95 -12.45
L -66.95 -12.5 -68.85 -16.85
Q -68.9 -16.85 -68.9 -16.9
L -68.9 -17
Q -68.9 -17.05 -68.85 -17.1 -68.8 -17.15 -68.75 -17.15
M -106.9 -6.95
L -106.9 -6.9
Q -106.73203125 -5.8072265625 -105.95 -4
L -106 -4.05 -103.35 2.6 -103.3 2.65
Q -101.203515625 7.7578125 -96.85 16.15
L -96.85 16.15
Q -96.59921875 16.730859375 -96.15 17.05 -96.1255859375 17.0623046875 -96.1 17.05 -95.8056640625 17.274609375 -95.05 17.4
L -95 17.4
Q -93.5716796875 17.558203125 -91.85 17.05
L -91.8 17.05
Q -90.7927734375 16.7775390625 -88.8 16
L -81.8 13.2
Q -77.010546875 11.4119140625 -73.65 9.95 -73.52734375 9.903515625 -73.45 9.8 -73.365234375 9.68671875 -73.35 9.55 -73.2658203125 8.5615234375 -73.35 8.05
L -73.35 8
Q -73.3291015625 7.853515625 -73.45 7.7
L -74.05 6.65 -74.05 6.6
Q -74.6525390625 5.6115234375 -75.7 3.4 -75.71875 3.342578125 -75.75 3.25 -76.8015625 1.0583984375 -77.4 -0.05 -77.4736328125 -0.162109375 -77.6 -0.25 -77.7158203125 -0.2978515625 -77.85 -0.3
L -79.6 -0.3
Q -79.76484375 -0.297265625 -79.9 -0.2 -80.0271484375 -0.1041015625 -80.1 0.05 -80.5244140625 1.2611328125 -79.5 3.15
L -79.5 3.1 -77.2 7.85
Q -78.1890625 8.3072265625 -80.7 9.4
L -80.7 9.35 -93.25 14.3
Q -93.6984375 14.410546875 -93.8 14.4
L -93.85 14.4
Q -94.02890625 14.3306640625 -94.2 14 -99.8212890625 3.8001953125 -103.5 -6.8 -98.3552734375 -8.9966796875 -87.6 -11.9 -87.4078125 -11.916796875 -87.3 -12.05 -87.198046875 -12.182421875 -87.2 -12.35
L -87.2 -14
Q -87.1939453125 -14.2013671875 -87.35 -14.35 -87.4697265625 -14.4919921875 -87.7 -14.5 -89.537890625 -14.6103515625 -93 -13.6 -101.4287109375 -11.1275390625 -105.35 -9.55 -106.3451171875 -9.216015625 -106.7 -8.6 -107.1427734375 -8.1091796875 -106.9 -6.95
M -77.1 7.9
L -77.1 8.05 -77.15 8.15
Q -77.15 8.0466796875 -77.15 7.95 -77.1166015625 7.9345703125 -77.1 7.9
M -14.8 -6.8
Q -14.8107421875 -6.99296875 -14.95 -7.15 -15.099609375 -7.2541015625 -15.3 -7.25
L -17.3 -7.25
Q -17.4341796875 -7.2478515625 -17.55 -7.2 -17.676171875 -7.1126953125 -17.75 -7 -17.810546875 -6.869921875 -17.8 -6.75
L -17.2 9.65
Q -17.1990234375 10.4578125 -17 11.05 -16.9236328125 11.214453125 -16.8 11.3 -16.6642578125 11.39296875 -16.5 11.4
L -14.5 11.45
Q -14.3658203125 11.4498046875 -14.25 11.35 -14.12265625 11.3017578125 -14.05 11.15 -13.9873046875 11.0578125 -14 10.9
L -14.3 5.35
Q -14.4001953125 1.3435546875 -14.45 -0.65
L -14.45 -0.7
Q -14.5998046875 -4.2892578125 -14.8 -6.8
M -33 -6.2
Q -33.459375 -6.462109375 -34.4 -6.4
L -34.4 -6.4
Q -35.1703125 -6.3109375 -35.5 -6.4 -35.600390625 -6.4140625 -35.75 -6.4 -35.869921875 -6.333203125 -36 -6.25 -36.072265625 -6.1298828125 -36.1 -6 -37.15625 -0.354296875 -36.85 10.45 -36.8453125 10.6673828125 -36.7 10.8 -36.5533203125 10.94609375 -36.35 10.95
L -34.45 10.95
Q -34.244921875 10.949609375 -34.1 10.8 -33.95 10.65390625 -33.95 10.45 -34.0330078125 3.1755859375 -33.6 -0.95 -31.9626953125 1.5556640625 -30.55 4.25 -28.9173828125 7.486328125 -28.25 8.35
L -28.25 8.35
Q -27.3466796875 9.36875 -26.8 9.5
L -26.8 9.5
Q -26.333203125 9.644921875 -25.45 9.65 -24.5201171875 9.6501953125 -24.35 9.55 -24.32578125 9.563671875 -24.3 9.55 -23.52421875 9.2431640625 -23.25 8.05
L -23.3 8.05
Q -22.9609375 6.9447265625 -22.75 5.25 -22.55 3.35 -22.45 2.4 -21.9490234375 -0.7810546875 -21.7 -2.4
L -21.7 -2.4
Q -21.342578125 -5.309765625 -21.55 -7.35 -21.5650390625 -7.5416015625 -21.7 -7.7 -21.850390625 -7.799609375 -22.05 -7.8
L -24.15 -7.85
Q -24.283203125 -7.847265625 -24.4 -7.8 -24.5125 -7.7130859375 -24.6 -7.6 -24.6470703125 -7.4833984375 -24.65 -7.35 -24.65078125 -5.5748046875 -24.8 -3.75
L -25.4 0.75
Q -25.74296875 3.23046875 -26.05 4.85
L -27.7 2 -27.65 2
Q -29.572265625 -1.700390625 -32.15 -5.4 -32.1625 -5.4 -32.2 -5.45 -32.7203125 -6.096875 -33 -6.2
M -52.6 -0.3
L -52.6 -0.35
Q -53.3244140625 1.8458984375 -54.35 5.45
L -54.35 5.45
Q -55.3142578125 8.6751953125 -55.15 10.5 -55.138671875 10.69296875 -55 10.8 -54.8505859375 10.953515625 -54.65 10.95
L -52.7 10.95
Q -52.53359375 10.9515625 -52.4 10.85 -52.2673828125 10.7427734375 -52.25 10.55 -51.698046875 8.62421875 -50.7 5.3 -50.333984375 5.25390625 -50.1 5.15
L -47.95 4.55 -47.95 4.6
Q -47.0228515625 4.4015625 -44.8 4.25
L -44.75 4.25
Q -44.3802734375 4.219140625 -44.05 4.2 -44.0041015625 4.267578125 -44 4.35 -42.81328125 8.0259765625 -41.4 11.4
L -41.45 11.35
Q -41.1537109375 12.0357421875 -40.8 12.25 -40.4546875 12.5958984375 -39.55 12.45 -38.9626953125 12.3783203125 -38.8 12.4 -38.640625 12.483203125 -38.5 12.45 -38.3400390625 12.41484375 -38.25 12.3 -38.12109375 12.18125 -38.1 12 -37.9326171875 10.9263671875 -38.4 9.5
L -38.4 9.5
Q -38.5294921875 8.951953125 -39.25 7.2 -39.81015625 5.885546875 -40.7 3.25 -40.6177734375 3.1724609375 -40.6 3.05
L -40.55 2.65 -40.55 1.1
Q -40.5517578125 0.8947265625 -40.7 0.75 -40.8447265625 0.6017578125 -41.05 0.6
L -41.55 0.6
Q -41.670703125 0.2375 -41.8 -0.15
L -41.8 -0.15
Q -43.28828125 -4.947265625 -44.5 -7.55
L -44.5 -7.5
Q -45.0015625 -8.6451171875 -45.75 -8.9 -45.78671875 -8.8966796875 -45.85 -8.9
L -46.5 -8.95
Q -46.53828125 -8.9515625 -46.6 -8.95
L -48.3 -8.9
Q -48.3390625 -8.8978515625 -48.4 -8.9 -48.9904296875 -8.72109375 -49.7 -7.7
L -49.7 -7.65
Q -51.2146484375 -4.862109375 -52.6 -0.3
M -47.15 -4.6
Q -46.365625 -2.904296875 -45.65 -0.65 -45.391015625 0.062109375 -45.05 1.05 -45.576953125 1.1353515625 -46.2 1.2 -48.9537109375 1.4470703125 -49 1.45 -49.037109375 1.4470703125 -49.1 1.45 -49.31640625 1.490625 -49.55 1.55 -48.2412109375 -2.4328125 -47.15 -4.6
M 89.4 -1.65
Q 89.64375 -1.084765625 90.25 -0.7 91.133203125 -0.076171875 92.95 0.7
L 92.95 0.7
Q 94.7423828125 1.447265625 95.45 1.9 96.5689453125 2.630859375 97.4 3.55
L 97.45 3.6
Q 97.69921875 3.8525390625 97.75 4 97.69453125 4.358203125 97.05 4.75 96.091796875 5.44375 95.4 5.55 95.092578125 5.512109375 93.6 5.3 91.9259765625 4.943359375 90.15 5 89.981640625 5.0052734375 89.85 5.15 89.704296875 5.296484375 89.7 5.5
L 89.7 7.05 89.75 7.45
Q 89.7619140625 7.57109375 89.8 7.65 89.9806640625 7.9599609375 90.55 8.1 92.523046875 8.6462890625 95.95 8.55
L 95.95 8.55
Q 97.4072265625 8.546484375 98.1 8.3
L 98.05 8.3
Q 98.76640625 8.15703125 99.4 7.7
L 100.25 7.05
Q 100.306640625 7.0056640625 100.35 6.95 101.05 6.0541015625 101.05 4.25 101.0541015625 2.780078125 100.75 2.05 100.49375 1.33828125 99.7 0.55 98.59375 -0.55859375 97.2 -1.3 96.8203125 -1.4970703125 94.85 -2.35 93.41640625 -2.975390625 92.65 -3.55
L 92.6 -3.6
Q 92.579296875 -3.6017578125 92.55 -3.6
L 92.6 -3.75
Q 93.23203125 -4.7826171875 95.2 -6.1 96.0169921875 -6.6205078125 96.55 -6.65 97.2517578125 -6.634765625 97.7 -6
L 97.7 -6
Q 98.0240234375 -5.6072265625 98.4 -4.55 98.4880859375 -4.384375 98.6 -4.3 98.7490234375 -4.2052734375 98.9 -4.2
L 100.85 -4.2
Q 101.050390625 -4.1958984375 101.2 -4.35 101.3392578125 -4.45703125 101.35 -4.65 101.4619140625 -5.9873046875 101.25 -6.95 100.9595703125 -8.291796875 100 -9.05
L 100 -9.05
Q 99.091015625 -9.84453125 96.6 -9.85
L 96.55 -9.85
Q 94.2900390625 -9.7416015625 93.5 -9.35 93.462890625 -9.3392578125 93.4 -9.35
L 92.3 -8.65 92.3 -8.6
Q 89.9375 -6.8818359375 89.45 -5.65 89.1482421875 -4.7169921875 89.15 -2.85
L 89.15 -2.8
Q 89.269921875 -1.7544921875 89.4 -1.6
L 89.4 -1.65
M 70.7 -7.7
Q 70.300390625 -7.4072265625 70 -6.75
L 70.05 -6.75
Q 68.805859375 -3.9814453125 68.7 1.3
L 68.7 8.65
Q 68.7017578125 8.8552734375 68.85 9 68.9947265625 9.1482421875 69.2 9.15
L 71.15 9.15
Q 71.3552734375 9.1482421875 71.5 9 71.6482421875 8.8552734375 71.65 8.65 71.6501953125 3.4705078125 71.7 2.4
L 71.7 2.4
Q 71.7734375 -0.9890625 72.4 -3.25 74.9626953125 1.4529296875 77.75 5.65
L 77.75 5.65
Q 78.6712890625 7.1271484375 79.65 8
L 79.65 8
Q 81.01015625 9.262890625 82.6 9.25 83.6740234375 9.2482421875 84.3 8.6
L 84.3 8.55
Q 84.7078125 8.1736328125 84.95 7
L 84.95 6.95
Q 85.2015625 5.3091796875 85.3 2.1 85.4009765625 -1.1892578125 85.6 -2.65 85.850390625 -4.38984375 85.95 -5.25 86.105078125 -6.858203125 86 -8 85.985546875 -8.1921875 85.85 -8.35 85.7130859375 -8.45 85.5 -8.45
L 83.55 -8.5
Q 83.3794921875 -8.498828125 83.2 -8.4 83.081640625 -8.25703125 83.05 -8.1 82.6482421875 -5.8119140625 82.45 -1.05 82.284375 2.7017578125 81.95 4.9 80.7857421875 3.691796875 79.3 1.3
L 79.3 1.25
Q 77.0875 -2.31328125 74.95 -6.25 74.2548828125 -7.508203125 73.5 -7.7 73.257421875 -7.8513671875 72.65 -7.85
L 71.75 -7.85
Q 71.0328125 -7.8513671875 70.75 -7.7 70.749609375 -7.688671875 70.7 -7.7
M 48.5 -5.65
L 48.45 -5.65
Q 47.25 -3.843359375 47.15 -0.5 47.0439453125 2.8009765625 47.7 4.65 48.7482421875 7.576953125 51.1 8.75
L 51.15 8.75
Q 52.5201171875 9.3390625 54.55 9.45 58.0673828125 9.5533203125 60.65 8.3
L 60.65 8.3
Q 62.9978515625 7.2115234375 64.85 4.95 65.7970703125 3.9490234375 66.15 2.95
L 66.15 3
Q 66.6560546875 1.8166015625 66.65 0.15 66.6533203125 -1.2591796875 66.3 -2.15
L 66.3 -2.1
Q 66.0052734375 -3.08671875 64.9 -4.2
L 64.9 -4.2
Q 63.894921875 -5.36328125 62.6 -6
L 62.6 -6
Q 61.17890625 -6.6154296875 60 -6.45 59.94375 -6.696484375 59.85 -6.9
L 59.9 -6.8
Q 59.784375 -7.434375 58.9 -8
L 58.9 -8
Q 57.6421875 -8.8041015625 54.55 -8.7
L 54.5 -8.7
Q 53.08828125 -8.6984375 52.45 -8.5
L 52.45 -8.5
Q 51.28125 -8.15390625 50.25 -7.4 49.2419921875 -6.6580078125 48.5 -5.65
M 55.6 -5.55
L 55.6 -5.55
Q 55.837109375 -5.43671875 56.6 -4.9
L 56.6 -4.9
Q 57.7669921875 -4.1228515625 59.15 -4.3 59.2021484375 -4.0482421875 59.3 -3.9 59.311328125 -3.8498046875 59.3 -3.85 59.5673828125 -3.429296875 60.3 -3.05
L 60.3 -3.05
Q 61.9583984375 -2.1634765625 63.1 -0.55 63.1119140625 -0.49921875 63.1 -0.5 63.3611328125 -0.2029296875 63.4 0.1 63.4220703125 0.4708984375 63.1 1 60.8751953125 4.9234375 56.45 6.05 55.4908203125 6.33828125 55 6.3
L 54.95 6.3
Q 53.0353515625 6.226171875 51.6 4.2
L 51.6 4.2
Q 50.3408203125 2.3916015625 50.25 0.3 50.153125 -1.8275390625 51.5 -3.5 52.323046875 -4.3671875 53.45 -5.05
L 53.45 -5.05
Q 54.7501953125 -5.8572265625 55.6 -5.55
M 40.1 -9.2
Q 39.9517578125 -9.0552734375 39.95 -8.85 39.9494140625 -7.0421875 40.15 -3.45
L 41 8.05
Q 41.012109375 8.266796875 41.15 8.4 41.2994140625 8.539453125 41.5 8.55
L 43.55 8.6
Q 43.6837890625 8.6001953125 43.8 8.5 43.928125 8.451953125 44 8.3 44.06328125 8.2080078125 44.05 8.05
L 42.9 -8.9
Q 42.890625 -9.08046875 42.75 -9.25 42.6015625 -9.355078125 42.4 -9.35
L 40.45 -9.35
Q 40.2447265625 -9.3482421875 40.1 -9.2
M 22.4 -10
Q 22.2529296875 -9.8544921875 22.25 -9.65
L 22.25 -7.7
Q 22.2529296875 -7.56640625 22.3 -7.45 22.387890625 -7.3369140625 22.5 -7.3 22.616796875 -7.203125 22.75 -7.2
L 27.8 -7.3 28.7 9.4
Q 28.7076171875 9.6173828125 28.85 9.75 28.9974609375 9.8939453125 29.2 9.9
L 31.2 9.9
Q 31.3341796875 9.8978515625 31.45 9.8 31.576171875 9.75078125 31.65 9.6 31.7109375 9.5072265625 31.7 9.35
L 31.4 2.35
Q 31.079296875 -4.281640625 30.85 -7.4
L 37.1 -7.55
Q 37.331640625 -7.5533203125 37.45 -7.7 37.6109375 -7.846875 37.6 -8.05
L 37.55 -10.1
Q 37.541796875 -10.3025390625 37.4 -10.45 37.2669921875 -10.5912109375 37.05 -10.6 35.9126953125 -10.6517578125 32.15 -10.45 29.0333984375 -10.250390625 22.75 -10.15 22.5451171875 -10.1466796875 22.4 -10
M 16.1 -10.5
Q 16.1001953125 -10.488671875 16.05 -10.5 15.5857421875 -10.7513671875 14.85 -10.75 13.5025390625 -10.7494140625 13 -10.3
L 13 -10.25
Q 12.8765625 -10.145703125 12.45 -9.55 12.4611328125 -9.5 12.45 -9.5 11.984375 -8.478125 11.65 -7.35
L 11.65 -7.35
Q 10.309375 -3.37421875 9.6 0.4
L 9.6 0.4
Q 8.6412109375 5.9392578125 9.1 11.15 9.1115234375 11.342578125 9.25 11.45 9.3994140625 11.603515625 9.6 11.6
L 11.65 11.6
Q 11.7974609375 11.600390625 11.9 11.5 12.041796875 11.4515625 12.1 11.3 12.1638671875 11.1935546875 12.15 11.05 11.826953125 7.8421875 12.35 4.15
L 12.45 4.15
Q 12.6552734375 4.1482421875 12.8 4 12.8736328125 3.928125 12.9 3.85
L 14.65 3.4 18.1 3.35
Q 18.176953125 3.3654296875 18.4 3.25 18.895703125 4.799609375 19.55 7.05 20.21015625 9.04140625 20.8 9.85 20.86796875 9.984375 20.95 10.05 21.080859375 10.10390625 21.2 10.1
L 23.35 10.1
Q 23.5552734375 10.0982421875 23.7 9.95 23.8482421875 9.8052734375 23.85 9.6 23.8470703125 8.197265625 23.7 7.8
L 23.7 7.75 23.3 6.75 23.3 6.75
Q 22.6126953125 5.2677734375 21.9 3
L 21.9 3
Q 21.2244140625 0.4599609375 20.8 -0.85 19.3564453125 -5.50390625 16.85 -9.55
L 16.9 -9.55
Q 16.5185546875 -10.2359375 16.1 -10.5
M 16.65 -0.6
Q 16.5212890625 -0.50078125 16.45 -0.4 16.3244140625 -0.21640625 16.4 0.25
L 15.8 0.25
Q 14.3078125 0.247265625 13.05 0.4 13.6998046875 -2.3759765625 14.8 -5.85 16.0998046875 -3.621875 17.15 -0.65
L 16.9 -0.65
Q 16.76484375 -0.65 16.65 -0.6
M 0.7 -7.1
Q 0.2740234375 -6.941015625 0 -6.25 -0.015234375 -6.2013671875 -0.05 -6.2 -0.7375 -4.6873046875 -1.15 -2.85
L -1.15 -2.9
Q -1.2359375 -2.4734375 -1.85 0.7 -2.1109375 1.975 -2.4 2.95 -4.110546875 -0.752734375 -5.65 -4.85
L -5.65 -4.85
Q -5.9240234375 -5.4666015625 -6.2 -5.6 -6.3970703125 -5.7486328125 -6.9 -5.75
L -8.45 -5.75 -8.85 -5.7
Q -8.97109375 -5.6880859375 -9.1 -5.65 -9.3818359375 -5.483984375 -9.55 -4.75 -9.953515625 -2.8205078125 -10.05 -0.05 -10.15 1.522265625 -10.25 4.6
L -10.25 4.65
Q -10.2548828125 5.84453125 -10.45 6.8
L -10.45 6.85
Q -10.50234375 7.3822265625 -10.7 8.45
L -10.7 8.45
Q -10.8630859375 9.5111328125 -10.75 10.25 -10.7181640625 10.4537109375 -10.6 10.55 -10.4353515625 10.6962890625 -10.25 10.7
L -8.25 10.75
Q -8.081640625 10.7556640625 -7.95 10.65 -7.813671875 10.5443359375 -7.8 10.35 -7.3580078125 8.68671875 -7.25 5.95
L -7.05 1.3
Q -5.6486328125 4.6306640625 -4.95 6.05 -4.5748046875 6.8248046875 -4.2 7 -3.7970703125 7.3044921875 -2.9 7.3
L -1.75 7.3
Q -0.914453125 7.298046875 -0.6 7.05 -0.1298828125 6.843359375 0.25 5.95 0.778125 4.7109375 1.25 1.8 1.41484375 0.8373046875 1.6 0.05 2.41171875 5.0361328125 3.4 9.45 3.450390625 9.6298828125 3.6 9.75 3.73125 9.855078125 3.9 9.85
L 5.85 9.85
Q 6.0552734375 9.8482421875 6.2 9.7 6.3482421875 9.5552734375 6.35 9.35 6.355859375 7.979296875 5.8 4.5
L 5.8 4.5 3.8 -6.45
Q 3.78046875 -6.5017578125 3.75 -6.55
L 3.6 -6.9
Q 3.5509765625 -7.0201171875 3.45 -7.1 3.3501953125 -7.1802734375 3.2 -7.2
L 2.85 -7.25
Q 2.8373046875 -7.2525390625 2.8 -7.25
L 1.45 -7.25
Q 0.939453125 -7.2541015625 0.7 -7.1 Z"/>
</g>
</defs>

<g transform="matrix( 1, 0, 0, 1, 111.9,26) ">
<g transform="matrix( 1, 0, 0, 1, 0,0) ">
<use xlink:href="#animations_0_Layer0_0_FILL"/>
</g>
</g>
</svg>
