
<svg xmlns="http://www.w3.org/2000/svg" version="1.1" xmlns:xlink="http://www.w3.org/1999/xlink" preserveAspectRatio="none" x="0px" y="0px" width="165px" height="51px" viewBox="0 0 165 51">
<defs>
<g id="games_0_Layer0_0_FILL">
<path fill="#666666" stroke="none" d="
M 81.15 -5.4
Q 81.051171875 -11.025 81.7 -16.6
L 82.9 -24.3
Q 82.90859375 -24.377734375 82.85 -24.45 82.841015625 -24.5140625 82.75 -24.55 82.7177734375 -24.5955078125 82.65 -24.6
L 51.05 -24.1
Q 12.68203125 -23.65 -24.05 -24.1 -28.9447265625 -24.3509765625 -36.65 -24.75 -47.5376953125 -25.4001953125 -58 -25.45 -60.8001953125 -25.5 -63.55 -25.5 -72.912890625 -25.5001953125 -81.9 -25 -81.965234375 -24.9955078125 -82.05 -24.95 -82.0962890625 -24.8509765625 -82.1 -24.75
L -82.25 -9
Q -82.4001953125 11.485546875 -82.85 20.3 -83.0068359375 21.6744140625 -82.5 22.4
L -82.55 22.4
Q -82.2015625 23.08203125 -80.95 23.5
L -80.95 23.5
Q -77.66796875 24.8419921875 -73.2 25.3 -72.314453125 25.400390625 -71.05 25.45 -68.601171875 25.5501953125 -65.05 25.5
L 70.45 25.15
Q 77.484375 25.05078125 82.1 25.55 82.2033203125 25.55859375 82.25 25.5 82.3396484375 25.4904296875 82.35 25.4 82.4083984375 25.3546875 82.4 25.25
L 81.25 6.9 81.15 -5.4
M 79.25 -21.8
L 78.85 -16.7
Q 78.2998046875 -9.2125 78.1 -1.8
L 79.3 22.5 -64.75 23.05
Q -70.183203125 23.04921875 -73.05 22.75 -77.4255859375 22.11875 -80.55 20.45 -79.903515625 -0.4669921875 -79.9 -22.4 -57.2353515625 -23.44140625 -34.2 -22 -26.7751953125 -21.6 -24.1 -21.45
L -24.05 -21.45
Q -21.6626953125 -21.35 -19.3 -21.15
L -19.25 -21.15
Q -9.8001953125 -20.95 -0.3 -20.95 34.7001953125 -20.95 51.05 -21
L 79.25 -21.8 Z"/>

<path fill="#CCCCCC" stroke="none" d="
M 78.85 -16.7
L 79.25 -21.8 51.05 -21
Q 34.7001953125 -20.95 -0.3 -20.95 -9.8001953125 -20.95 -19.25 -21.15
L -19.3 -21.15
Q -21.6626953125 -21.35 -24.05 -21.45
L -24.1 -21.45
Q -26.7751953125 -21.6 -34.2 -22 -57.2353515625 -23.44140625 -79.9 -22.4 -79.903515625 -0.4669921875 -80.55 20.45 -77.4255859375 22.11875 -73.05 22.75 -70.183203125 23.04921875 -64.75 23.05
L 79.3 22.5 78.1 -1.8
Q 78.2998046875 -9.2125 78.85 -16.7
M 16.4 -9.2
Q 16.7 -9.05 17.15 -8.4 19.75 -3.4 23.1 4.6 25.4 -1.45 28.05 -7.2 28.25 -7.7 28.55 -7.95 28.9 -8.25 29.7 -8.15 30.65 -8.1 30.9 -8.15 31.65 -6.75 32.1 -4.8 32.3 -3.85 32.7 -1.3
L 33.4 4.2
Q 33.75 6.5 33.95 7.05
L 34.3 8.25
Q 34.6 9.25 34.45 10.3 34.2 10.2 33.4 10.3 32.75 10.35 32.45 10.15 32.1 9.95 32 9.25 31.5 7.2 30.9 2.35 30.35 -2.05 29.65 -4.45 25.15 6.2 24.1 8.85
L 21.8 8.85
Q 19.15 1.15 15.6 -5.4 14.85 1.4 14.35 9.15 14.15 11.55 14.3 13.25 14 13.15 13.1 13.25 12.35 13.35 12.1 13 11.9 12.7 12 12.15 12.6 2.3 13.75 -8.35 13.75 -8.9 14 -9.1 14.2 -9.25 14.65 -9.25
L 15.8 -9.25
Q 16.3 -9.25 16.4 -9.2
M 1.2 -10.45
Q 1.8 -10.35 2 -10.2 2.35 -9.95 2.5 -9.45 4.65 -4.2 6.2 0.3 6.75 1.8 7.1 3.2 7.1 3.25 7.15 3.35
L 7.45 3.35 7.7 3.4 7.75 3.65 7.75 5.4
Q 7.7 5.4 7.7 5.45 7.85 6.15 8.05 7 8.35 8 8.95 9.95 9.45 11.7 9.25 12.95 8.95 12.85 8.15 12.95 7.45 13 7.15 12.75 6.9 12.5 6.8 11.9 6.15 8.95 5.3 5.85 2.05 6.1 -0.2 6.5
L -1.7 6.85 -2.65 14.1 -4.6 14.1
Q -4.5 11.9 -4 6.95 -4.15 6.95 -4.25 6.95
L -4.25 4.95
Q -4 4.9 -3.75 4.85 -3.7 4.3 -3.65 3.75 -3.15 -0.35 -2.65 -2.4 -1.3 -6.85 -0.9 -9.15 -0.65 -9.95 -0.55 -10.1 -0.1 -10.65 1.2 -10.45
M 38.6 -2.25
Q 38.05 -5.65 38.15 -7
L 38.45 -7 38.45 -8.25 40.4 -8.65
Q 41.35 -8.85 43.15 -9.05 46.25 -9.35 46.55 -9.4
L 47.45 -9.55
Q 48.25 -9.65 49.85 -9.55
L 49.9 -7.95
Q 49.9 -7.2 49.5 -6.95
L 47.5 -7 47.5 -7.2
Q 44.4 -7 42.75 -6.75 42.15 -6.7 41.45 -6.45
L 40.95 -6.3
Q 40.7 -6.25 40.3 -6.2 40.75 -3.55 40.85 0.05
L 43.8 -0.35
Q 45.05 -0.55 45.9 -0.85
L 46.45 -1.15 48.55 -1.15 48.55 0.65 48.5 0.9
Q 48.45 1 48.2 1
L 47.55 1.3
Q 47.2 1.45 46.85 1.45
L 41.8 2.15 41.8 2.25 40.9 2.25
Q 40.9 3.1 40.9 4.05 40.9 9.15 41.2 10.8 46.15 10.4 50.5 10.75
L 50.5 10.05
Q 52.4 9.55 54.05 10.8
L 54.05 12.9
Q 52.35 13.2 48.8 12.85 45.25 12.5 43.5 12.85 42.3 13.15 41.7 13.3 40.65 13.5 39.9 13.35
L 39.4 13.15 39.2 12.65
Q 38.9 11.25 38.9 9.15 38.95 5.35 38.9 3.45 38.9 0.05 38.6 -2.25
M 57.55 -9.3
Q 58.4 -10.25 60 -10.9 64 -12.45 68.95 -10.75 69.45 -10.55 69.7 -10.25 69.95 -9.95 69.9 -9.3 69.85 -8.4 69.9 -8.2 68.65 -8.05 67.55 -8.4
L 66.25 -8.95
Q 64.1 -9.75 62.05 -9 59.95 -8.2 58.85 -6.25 59.7 -5.4 61.15 -4.75 62 -4.4 63.8 -3.75 66.4 -2.65 68.65 -0.5 70 0.95 70.55 2.15 71.5 4.15 71.05 6.55 70.65 8.8 69.1 10.55 67.6 12.15 65.35 12.95 63.2 13.75 60.9 13.55 59.2 13.45 58.4 12.55 57.7 11.85 57.7 10.35 57.75 8.8 57.7 8
L 59.7 8.05
Q 59.6 10.45 61.05 11.15 62.1 11.65 63.75 10.85 67.25 9.35 68.5 6.6 68.95 5.85 68.85 5.1 68.85 4.3 68.2 3.3 65.9 -0.2 60.1 -2.4 57.4 -3.35 56.75 -4.7 56.4 -5.45 56.5 -6.5 56.65 -8.1 57.55 -9.3
M -71.55 -14.3
L -71.4 -14.1
Q -71.05 -13.45 -70 -12.8 -69.05 -12.3 -68.35 -12.15
L -67.3 -11.95
Q -66.2 -11.7 -64.6 -11.1 -64.2 -10.85 -64.15 -10.75
L -64.1 -10.45
Q -62.25 -11.2 -60.8 -11.4 -59.55 -11.6 -57.7 -11.5 -56.7 -11.4 -54.65 -11.3 -51.95 -11.3 -51.15 -10.95 -50.3 -10.55 -49.45 -9.7 -47.25 -7.5 -46.2 -4.45 -45.2 -1.4 -45.65 1.7 -45.95 3.55 -46.8 4.35 -47.8 5.25 -49.65 5.15 -52 4.95 -54.35 3.45 -54.45 3.6 -54.65 3.75
L -55.3 4.55 -56.05 5.15
Q -56.35 5.35 -56.4 5.5
L -57.1 5.8 -57.75 6.3 -58.1 6.5 -59.75 7.25 -60.95 7.3
Q -60.8 10 -61.15 11.4 -61.85 14.4 -64.2 15.25 -65.15 15.6 -66.75 15.6 -68.1 15.6 -68.8 15.45 -71 14.85 -72.25 12.6 -73.15 11.1 -73.65 8.25 -74.4 3.5 -73.65 -1.3 -73.25 -3.65 -72.55 -4.85 -72.05 -5.8 -71.2 -6.15 -70.8 -6.3 -69.95 -6.3 -69.75 -6.95 -69.15 -7.6 -68.5 -8.35 -66.85 -9.2
L -67.05 -9.3
Q -69 -9.9 -69.5 -10
L -70.45 -10.2
Q -71 -10.3 -71.75 -10.7
L -72.5 -11.15 -73.1 -11.7 -73.5 -12.25
Q -73.65 -12.4 -73.65 -12.5
L -73.7 -12.85 -73.7 -14.4 -71.9 -14.35 -71.55 -14.3
M -21.15 -7.85
Q -24.8 -6.05 -26.65 -4.5 -30.1 -1.45 -31 2.75 -31.9 7.35 -29.55 11 -28.1 13.3 -25.9 13.95 -24.6 14.3 -22.6 13.95 -19.55 13.45 -17.35 12 -14.85 10.3 -14.15 7.85
L -17.1 8.3
Q -19.4 8.7 -20.55 8.6
L -20.55 6.5 -17.55 6.05
Q -15.7 5.8 -14.25 5.4
L -12.8 5.05
Q -12.4 5 -10.5 5 -10.55 5.8 -10.35 7.4
L -9.75 11.35
Q -9.5 12.3 -9.4 12.5
L -9.05 13.1
Q -8.9 13.45 -8.9 14.1 -9 14.95 -8.95 15.2 -9.85 15.3 -10.6 15.15
L -10.95 15.05
Q -11.45 14.8 -11.65 14 -11.85 12.05 -12 11.1 -12.05 10.7 -12.25 9.85 -12.4 10.45 -12.7 11.05 -13.5 12.65 -15 13.75 -17.3 15.45 -21.7 16.1 -26.85 16.8 -29.45 15.1 -31.65 13.7 -32.7 10.6 -33.4 8.35 -33.3 5 -33.3 0.4 -31.8 -2.65 -29.6 -6.85 -23.55 -9.65 -20.75 -10.9 -18.7 -10.85 -17.4 -10.8 -16.25 -10.2 -15.1 -9.55 -14.55 -8.45 -14.05 -7.35 -14.15 -4.85
L -16.15 -4.85
Q -16.4 -6.25 -16.9 -7.1 -17.55 -8.25 -18.7 -8.5 -19.6 -8.65 -21.15 -7.85
M -69.25 -4.15
Q -69.8 -4.05 -70.3 -3.25 -72.35 -0.1 -71.8 5.25 -71.55 7.85 -70.85 9.45 -69.9 11.75 -68.25 12.85 -67.55 13.35 -67.1 13.4 -66.3 13.45 -65.35 12.8 -64.35 12.05 -63.8 11.15 -62.95 9.6 -63.05 6.3
L -62.1 6.3 -62.1 5.35 -60.8 4.85 -58.35 3.35 -57.75 2.9
Q -56.9 2.25 -56.25 1.3
L -54.6 1.35 -54.6 1.15
Q -52.9 0.9 -51.4 1.85 -51.1 2.05 -50.5 2.45 -49.95 2.75 -49.5 2.7 -48.85 2.65 -48.4 2 -47.55 0.95 -47.75 -0.7 -47.8 -1.75 -48.55 -3.4 -49.8 -6.2 -51.5 -7.8 -52.4 -8.6 -53.35 -8.95 -53.85 -9.15 -55.45 -9.25 -58.4 -9.35 -59.45 -9.2 -62.25 -8.8 -65.7 -6.75 -66.3 -6.4 -66.65 -6.1 -66.1 -6 -65.65 -5.8
L -65.65 -3.85
Q -67.1 -3.7 -68.3 -4.05 -69.05 -4.2 -69.25 -4.15
M -67.6 -2
L -65.95 -1.95 -65.6 -1.9 -65.45 -1.75 -65.25 -1.8
Q -64.65 -1.9 -63.45 -1.8
L -63.45 -0.3 -63.5 0.1
Q -63.55 0.2 -64.05 0.45 -64.1 0.45 -64.15 0.5
L -64.15 0.55
Q -64.05 0.9 -64.1 1.5 -64.15 2.15 -64.1 2.4
L -65.75 2.4 -66.1 2.35
Q -66.35 2.25 -66.45 1.9
L -66.45 1.85
Q -67.05 2.05 -68.2 1.95
L -68.2 0.25 -68.15 -0.15
Q -68.05 -0.35 -67.8 -0.45 -67.7 -0.5 -67.6 -0.55 -67.6 -0.75 -67.6 -0.95 -67.55 -1.75 -67.6 -2
M -57.6 -4.1
L -55.95 -4.05 -55.95 -2.05 -56.25 -1.9 -58.25 -1.95 -58.25 -4
Q -58.05 -4.1 -57.6 -4.1
M -51.2 -3.7
L -53.2 -3.7 -53.2 -5.8 -51.2 -5.8 -51.2 -3.7
M -52.35 -2.4
L -52.35 -0.35 -54.3 -0.35 -54.3 -2.45 -52.35 -2.4
M -54.8 -5.65
L -56.9 -5.7 -56.9 -7.65 -54.8 -7.6 -54.8 -5.65
M 3 -1.2
L 1.05 -6.2
Q -0.55 -1.45 -1 1.15
L -1.4 4.35
Q -0.6 4.2 0.25 4.1 0.7 4.05 2.85 3.85 3.85 3.8 4.65 3.7 3.9 1.3 3 -1.2 Z"/>

<path fill="#7B7B7B" stroke="none" d="
M -26.65 -4.5
Q -24.8 -6.05 -21.15 -7.85 -19.6 -8.65 -18.7 -8.5 -17.55 -8.25 -16.9 -7.1 -16.4 -6.25 -16.15 -4.85
L -14.15 -4.85
Q -14.05 -7.35 -14.55 -8.45 -15.1 -9.55 -16.25 -10.2 -17.4 -10.8 -18.7 -10.85 -20.75 -10.9 -23.55 -9.65 -29.6 -6.85 -31.8 -2.65 -33.3 0.4 -33.3 5 -33.4 8.35 -32.7 10.6 -31.65 13.7 -29.45 15.1 -26.85 16.8 -21.7 16.1 -17.3 15.45 -15 13.75 -13.5 12.65 -12.7 11.05 -12.4 10.45 -12.25 9.85 -12.05 10.7 -12 11.1 -11.85 12.05 -11.65 14 -11.45 14.8 -10.95 15.05
L -10.6 15.15
Q -9.85 15.3 -8.95 15.2 -9 14.95 -8.9 14.1 -8.9 13.45 -9.05 13.1
L -9.4 12.5
Q -9.5 12.3 -9.75 11.35
L -10.35 7.4
Q -10.55 5.8 -10.5 5 -12.4 5 -12.8 5.05
L -14.25 5.4
Q -15.7 5.8 -17.55 6.05
L -20.55 6.5 -20.55 8.6
Q -19.4 8.7 -17.1 8.3
L -14.15 7.85
Q -14.85 10.3 -17.35 12 -19.55 13.45 -22.6 13.95 -24.6 14.3 -25.9 13.95 -28.1 13.3 -29.55 11 -31.9 7.35 -31 2.75 -30.1 -1.45 -26.65 -4.5
M -71.4 -14.1
L -71.55 -14.3 -71.9 -14.35 -73.7 -14.4 -73.7 -12.85 -73.65 -12.5
Q -73.65 -12.4 -73.5 -12.25
L -73.1 -11.7 -72.5 -11.15 -71.75 -10.7
Q -71 -10.3 -70.45 -10.2
L -69.5 -10
Q -69 -9.9 -67.05 -9.3
L -66.85 -9.2
Q -68.5 -8.35 -69.15 -7.6 -69.75 -6.95 -69.95 -6.3 -70.8 -6.3 -71.2 -6.15 -72.05 -5.8 -72.55 -4.85 -73.25 -3.65 -73.65 -1.3 -74.4 3.5 -73.65 8.25 -73.15 11.1 -72.25 12.6 -71 14.85 -68.8 15.45 -68.1 15.6 -66.75 15.6 -65.15 15.6 -64.2 15.25 -61.85 14.4 -61.15 11.4 -60.8 10 -60.95 7.3
L -59.75 7.25 -58.1 6.5 -57.75 6.3 -57.1 5.8 -56.4 5.5
Q -56.35 5.35 -56.05 5.15
L -55.3 4.55 -54.65 3.75
Q -54.45 3.6 -54.35 3.45 -52 4.95 -49.65 5.15 -47.8 5.25 -46.8 4.35 -45.95 3.55 -45.65 1.7 -45.2 -1.4 -46.2 -4.45 -47.25 -7.5 -49.45 -9.7 -50.3 -10.55 -51.15 -10.95 -51.95 -11.3 -54.65 -11.3 -56.7 -11.4 -57.7 -11.5 -59.55 -11.6 -60.8 -11.4 -62.25 -11.2 -64.1 -10.45
L -64.15 -10.75
Q -64.2 -10.85 -64.6 -11.1 -66.2 -11.7 -67.3 -11.95
L -68.35 -12.15
Q -69.05 -12.3 -70 -12.8 -71.05 -13.45 -71.4 -14.1
M -70.3 -3.25
Q -69.8 -4.05 -69.25 -4.15 -69.05 -4.2 -68.3 -4.05 -67.1 -3.7 -65.65 -3.85
L -65.65 -5.8
Q -66.1 -6 -66.65 -6.1 -66.3 -6.4 -65.7 -6.75 -62.25 -8.8 -59.45 -9.2 -58.4 -9.35 -55.45 -9.25 -53.85 -9.15 -53.35 -8.95 -52.4 -8.6 -51.5 -7.8 -49.8 -6.2 -48.55 -3.4 -47.8 -1.75 -47.75 -0.7 -47.55 0.95 -48.4 2 -48.85 2.65 -49.5 2.7 -49.95 2.75 -50.5 2.45 -51.1 2.05 -51.4 1.85 -52.9 0.9 -54.6 1.15
L -54.6 1.35 -56.25 1.3
Q -56.9 2.25 -57.75 2.9
L -58.35 3.35 -60.8 4.85 -62.1 5.35 -62.1 6.3 -63.05 6.3
Q -62.95 9.6 -63.8 11.15 -64.35 12.05 -65.35 12.8 -66.3 13.45 -67.1 13.4 -67.55 13.35 -68.25 12.85 -69.9 11.75 -70.85 9.45 -71.55 7.85 -71.8 5.25 -72.35 -0.1 -70.3 -3.25
M -56.9 -5.7
L -54.8 -5.65 -54.8 -7.6 -56.9 -7.65 -56.9 -5.7
M -52.35 -0.35
L -52.35 -2.4 -54.3 -2.45 -54.3 -0.35 -52.35 -0.35
M -53.2 -3.7
L -51.2 -3.7 -51.2 -5.8 -53.2 -5.8 -53.2 -3.7
M -55.95 -4.05
L -57.6 -4.1
Q -58.05 -4.1 -58.25 -4
L -58.25 -1.95 -56.25 -1.9 -55.95 -2.05 -55.95 -4.05
M -65.95 -1.95
L -67.6 -2
Q -67.55 -1.75 -67.6 -0.95 -67.6 -0.75 -67.6 -0.55 -67.7 -0.5 -67.8 -0.45 -68.05 -0.35 -68.15 -0.15
L -68.2 0.25 -68.2 1.95
Q -67.05 2.05 -66.45 1.85
L -66.45 1.9
Q -66.35 2.25 -66.1 2.35
L -65.75 2.4 -64.1 2.4
Q -64.15 2.15 -64.1 1.5 -64.05 0.9 -64.15 0.55
L -64.15 0.5
Q -64.1 0.45 -64.05 0.45 -63.55 0.2 -63.5 0.1
L -63.45 -0.3 -63.45 -1.8
Q -64.65 -1.9 -65.25 -1.8
L -65.45 -1.75 -65.6 -1.9 -65.95 -1.95
M 60 -10.9
Q 58.4 -10.25 57.55 -9.3 56.65 -8.1 56.5 -6.5 56.4 -5.45 56.75 -4.7 57.4 -3.35 60.1 -2.4 65.9 -0.2 68.2 3.3 68.85 4.3 68.85 5.1 68.95 5.85 68.5 6.6 67.25 9.35 63.75 10.85 62.1 11.65 61.05 11.15 59.6 10.45 59.7 8.05
L 57.7 8
Q 57.75 8.8 57.7 10.35 57.7 11.85 58.4 12.55 59.2 13.45 60.9 13.55 63.2 13.75 65.35 12.95 67.6 12.15 69.1 10.55 70.65 8.8 71.05 6.55 71.5 4.15 70.55 2.15 70 0.95 68.65 -0.5 66.4 -2.65 63.8 -3.75 62 -4.4 61.15 -4.75 59.7 -5.4 58.85 -6.25 59.95 -8.2 62.05 -9 64.1 -9.75 66.25 -8.95
L 67.55 -8.4
Q 68.65 -8.05 69.9 -8.2 69.85 -8.4 69.9 -9.3 69.95 -9.95 69.7 -10.25 69.45 -10.55 68.95 -10.75 64 -12.45 60 -10.9
M 38.15 -7
Q 38.05 -5.65 38.6 -2.25 38.9 0.05 38.9 3.45 38.95 5.35 38.9 9.15 38.9 11.25 39.2 12.65
L 39.4 13.15 39.9 13.35
Q 40.65 13.5 41.7 13.3 42.3 13.15 43.5 12.85 45.25 12.5 48.8 12.85 52.35 13.2 54.05 12.9
L 54.05 10.8
Q 52.4 9.55 50.5 10.05
L 50.5 10.75
Q 46.15 10.4 41.2 10.8 40.9 9.15 40.9 4.05 40.9 3.1 40.9 2.25
L 41.8 2.25 41.8 2.15 46.85 1.45
Q 47.2 1.45 47.55 1.3
L 48.2 1
Q 48.45 1 48.5 0.9
L 48.55 0.65 48.55 -1.15 46.45 -1.15 45.9 -0.85
Q 45.05 -0.55 43.8 -0.35
L 40.85 0.05
Q 40.75 -3.55 40.3 -6.2 40.7 -6.25 40.95 -6.3
L 41.45 -6.45
Q 42.15 -6.7 42.75 -6.75 44.4 -7 47.5 -7.2
L 47.5 -7 49.5 -6.95
Q 49.9 -7.2 49.9 -7.95
L 49.85 -9.55
Q 48.25 -9.65 47.45 -9.55
L 46.55 -9.4
Q 46.25 -9.35 43.15 -9.05 41.35 -8.85 40.4 -8.65
L 38.45 -8.25 38.45 -7 38.15 -7
M 2 -10.2
Q 1.8 -10.35 1.2 -10.45 -0.1 -10.65 -0.55 -10.1 -0.65 -9.95 -0.9 -9.15 -1.3 -6.85 -2.65 -2.4 -3.15 -0.35 -3.65 3.75 -3.7 4.3 -3.75 4.85 -4 4.9 -4.25 4.95
L -4.25 6.95
Q -4.15 6.95 -4 6.95 -4.5 11.9 -4.6 14.1
L -2.65 14.1 -1.7 6.85 -0.2 6.5
Q 2.05 6.1 5.3 5.85 6.15 8.95 6.8 11.9 6.9 12.5 7.15 12.75 7.45 13 8.15 12.95 8.95 12.85 9.25 12.95 9.45 11.7 8.95 9.95 8.35 8 8.05 7 7.85 6.15 7.7 5.45 7.7 5.4 7.75 5.4
L 7.75 3.65 7.7 3.4 7.45 3.35 7.15 3.35
Q 7.1 3.25 7.1 3.2 6.75 1.8 6.2 0.3 4.65 -4.2 2.5 -9.45 2.35 -9.95 2 -10.2
M 1.05 -6.2
L 3 -1.2
Q 3.9 1.3 4.65 3.7 3.85 3.8 2.85 3.85 0.7 4.05 0.25 4.1 -0.6 4.2 -1.4 4.35
L -1 1.15
Q -0.55 -1.45 1.05 -6.2
M 17.15 -8.4
Q 16.7 -9.05 16.4 -9.2 16.3 -9.25 15.8 -9.25
L 14.65 -9.25
Q 14.2 -9.25 14 -9.1 13.75 -8.9 13.75 -8.35 12.6 2.3 12 12.15 11.9 12.7 12.1 13 12.35 13.35 13.1 13.25 14 13.15 14.3 13.25 14.15 11.55 14.35 9.15 14.85 1.4 15.6 -5.4 19.15 1.15 21.8 8.85
L 24.1 8.85
Q 25.15 6.2 29.65 -4.45 30.35 -2.05 30.9 2.35 31.5 7.2 32 9.25 32.1 9.95 32.45 10.15 32.75 10.35 33.4 10.3 34.2 10.2 34.45 10.3 34.6 9.25 34.3 8.25
L 33.95 7.05
Q 33.75 6.5 33.4 4.2
L 32.7 -1.3
Q 32.3 -3.85 32.1 -4.8 31.65 -6.75 30.9 -8.15 30.65 -8.1 29.7 -8.15 28.9 -8.25 28.55 -7.95 28.25 -7.7 28.05 -7.2 25.4 -1.45 23.1 4.6 19.75 -3.4 17.15 -8.4 Z"/>
</g>
</defs>

<g transform="matrix( 1, 0, 0, 1, 82.9,25.5) ">
<g transform="matrix( 1, 0, 0, 1, 0,0) ">
<use xlink:href="#games_0_Layer0_0_FILL"/>
</g>
</g>
</svg>
