
<svg xmlns="http://www.w3.org/2000/svg" version="1.1" xmlns:xlink="http://www.w3.org/1999/xlink" preserveAspectRatio="none" x="0px" y="0px" width="222px" height="51px" viewBox="0 0 222 51">
<defs>
<g id="animations_0_Layer0_0_FILL">
<path fill="#666666" stroke="none" d="
M 111.4 -24.3
Q 111.41015625 -24.3767578125 111.35 -24.45 111.3421875 -24.5146484375 111.25 -24.55 111.218359375 -24.5966796875 111.15 -24.6 83.999609375 -24.05 29.65 -23.9 -23.19375 -23.75 -52.55 -24.1 -57.4447265625 -24.3509765625 -65.15 -24.75 -76.0376953125 -25.4001953125 -86.5 -25.45 -89.3001953125 -25.5 -92.05 -25.5 -101.412890625 -25.5001953125 -110.4 -25 -110.465234375 -24.9955078125 -110.55 -24.95 -110.5962890625 -24.8509765625 -110.6 -24.75
L -110.75 -9
Q -110.9001953125 11.485546875 -111.35 20.3 -111.5068359375 21.6744140625 -111 22.4
L -111.05 22.4
Q -110.7015625 23.08203125 -109.45 23.5
L -109.45 23.5
Q -106.16796875 24.8419921875 -101.7 25.3 -100.814453125 25.400390625 -99.55 25.45 -97.101171875 25.5501953125 -93.55 25.5
L 98.95 25.15
Q 105.984375 25.05078125 110.6 25.55 110.7033203125 25.55859375 110.75 25.5 110.8396484375 25.4904296875 110.85 25.4 110.9083984375 25.3546875 110.9 25.25
L 109.75 6.9 109.65 -5.4
Q 109.5021484375 -13.725 110.95 -22
L 111.4 -24.3
M 46.65 -21.35
L 57.5 -21.4
Q 63.59921875 -21.35 75.6 -21.45 89.8 -21.5001953125 103.95 -21.9
L 107.75 -21.8
Q 107.5900390625 -20.53203125 107.5 -19.2 106.8498046875 -10.4625 106.6 -1.8
L 107.8 22.5 -93.25 23.05
Q -98.683203125 23.04921875 -101.55 22.75 -105.9255859375 22.11875 -109.05 20.45 -108.403515625 -0.4669921875 -108.4 -22.4 -85.7353515625 -23.44140625 -62.7 -22 -55.2751953125 -21.6 -52.6 -21.45
L -52.55 -21.45
Q -50.1626953125 -21.35 -47.8 -21.15
L -47.75 -21.15
Q -38.3001953125 -20.95 -28.8 -20.95 32.2052734375 -20.95 36.55 -21.15 40.90078125 -21.35 46.65 -21.35 Z"/>

<path fill="#CCCCCC" stroke="none" d="
M 57.5 -21.4
L 46.65 -21.35
Q 40.90078125 -21.35 36.55 -21.15 32.2052734375 -20.95 -28.8 -20.95 -38.3001953125 -20.95 -47.75 -21.15
L -47.8 -21.15
Q -50.1626953125 -21.35 -52.55 -21.45
L -52.6 -21.45
Q -55.2751953125 -21.6 -62.7 -22 -85.7353515625 -23.44140625 -108.4 -22.4 -108.403515625 -0.4669921875 -109.05 20.45 -105.9255859375 22.11875 -101.55 22.75 -98.683203125 23.04921875 -93.25 23.05
L 107.8 22.5 106.6 -1.8
Q 106.8498046875 -10.4625 107.5 -19.2 107.5900390625 -20.53203125 107.75 -21.8
L 103.95 -21.9
Q 89.8 -21.5001953125 75.6 -21.45 63.59921875 -21.35 57.5 -21.4
M 3.15 -6.7
L 3.3 -6.35 5.3 4.6
Q 5.85 8 5.85 9.35
L 3.9 9.35
Q 2.7 4 1.75 -2.2 1.2 -0.9 0.75 1.75 0.3 4.55 -0.2 5.75 -0.5 6.45 -0.85 6.65 -1.1 6.8 -1.75 6.8
L -2.9 6.8
Q -3.6 6.8 -3.9 6.6 -4.2 6.45 -4.5 5.85 -5.4 4 -7.45 -0.95
L -7.75 5.95
Q -7.85 8.6 -8.25 10.25
L -10.25 10.2
Q -10.35 9.5 -10.2 8.55 -10 7.45 -9.95 6.9 -9.75 5.9 -9.75 4.65 -9.65 1.55 -9.55 0 -9.45 -2.75 -9.05 -4.65 -8.95 -5.1 -8.8 -5.2
L -8.4 -5.25 -6.9 -5.25
Q -6.55 -5.25 -6.45 -5.15 -6.3 -5.1 -6.1 -4.65 -4.35 0.05 -2.35 4.25 -1.8 2.95 -1.35 0.8 -0.75 -2.35 -0.65 -2.75 -0.25 -4.55 0.45 -6 0.65 -6.55 0.95 -6.65 1.1 -6.75 1.45 -6.75
L 2.8 -6.75 3.15 -6.7
M 15.85 -10.05
Q 16.15 -9.85 16.45 -9.3 18.9 -5.3 20.35 -0.7 20.75 0.6 21.45 3.15 22.15 5.45 22.85 6.95
L 23.25 7.95
Q 23.35 8.3 23.35 9.6
L 21.2 9.6
Q 20.65 8.8 20.05 6.9 19.25 4.25 18.75 2.6 18.2 2.85 18.1 2.85
L 14.65 2.9 12.45 3.45 12.45 3.65 11.9 3.65
Q 11.3 7.65 11.65 11.1
L 9.6 11.1
Q 9.15 5.95 10.1 0.5 10.8 -3.25 12.15 -7.2 12.45 -8.3 12.9 -9.25 13.25 -9.8 13.35 -9.9 13.75 -10.25 14.85 -10.25 15.45 -10.25 15.85 -10.05
M 37.1 -8.05
L 30.3 -7.85
Q 30.55 -4.85 30.9 2.4
L 31.2 9.4 29.2 9.4 28.3 -7.8 22.75 -7.7 22.75 -9.65
Q 29.05 -9.75 32.2 -9.95 35.9 -10.15 37.05 -10.1
L 37.1 -8.05
M 48.9 -5.35
Q 49.6 -6.3 50.55 -7 51.5 -7.7 52.6 -8 53.2 -8.2 54.55 -8.2 57.45 -8.3 58.65 -7.55 59.3 -7.15 59.4 -6.7 59.65 -6.1 59.5 -4.85 58.05 -4.55 56.9 -5.3 56.05 -5.9 55.8 -6 54.75 -6.45 53.2 -5.45 52 -4.75 51.15 -3.8 49.65 -2 49.75 0.35 49.85 2.55 51.2 4.5 52.8 6.75 54.95 6.8 55.5 6.85 56.6 6.55 61.2 5.35 63.55 1.25 63.95 0.55 63.9 0.05 63.85 -0.4 63.5 -0.8 62.3 -2.55 60.55 -3.5 59.95 -3.8 59.75 -4.1 59.6 -4.4 59.7 -4.95 59.75 -5.6 59.7 -5.85 60.9 -6.2 62.4 -5.55 63.6 -4.95 64.55 -3.85 65.55 -2.85 65.85 -1.95 66.15 -1.15 66.15 0.15 66.15 1.7 65.7 2.8 65.35 3.7 64.5 4.65 62.7 6.8 60.45 7.85 57.95 9.05 54.6 8.95 52.65 8.85 51.35 8.3 49.15 7.2 48.2 4.5 47.55 2.7 47.65 -0.45 47.75 -3.65 48.9 -5.35
M 73.3 -7.25
Q 73.9 -7.1 74.5 -6 76.65 -2.05 78.9 1.55 80.85 4.75 82.3 5.95 82.75 3.6 82.95 -1 83.15 -5.75 83.55 -8
L 85.5 -7.95
Q 85.6 -6.85 85.45 -5.3 85.35 -4.45 85.1 -2.7 84.9 -1.25 84.8 2.1 84.7 5.25 84.45 6.9 84.25 7.9 83.95 8.25 83.45 8.75 82.6 8.75 81.2 8.75 80 7.65 79.05 6.8 78.2 5.4 75.1 0.75 72.35 -4.45 71.3 -1.95 71.2 2.4 71.15 3.45 71.15 8.65
L 69.2 8.65 69.2 1.3
Q 69.3 -3.85 70.5 -6.55 70.7 -7.05 71 -7.25 71.2 -7.35 71.75 -7.35
L 72.65 -7.35
Q 73.1 -7.35 73.3 -7.25
M 40.45 -8.85
L 42.4 -8.85 43.55 8.1 41.5 8.05 40.65 -3.45
Q 40.45 -7.05 40.45 -8.85
M 89.85 -1.85
Q 89.75 -2 89.65 -2.85 89.65 -4.6 89.95 -5.45 90.4 -6.6 92.6 -8.2
L 93.7 -8.9
Q 94.45 -9.25 96.6 -9.35 98.85 -9.35 99.7 -8.65 100.5 -8 100.75 -6.85 100.95 -5.95 100.85 -4.7
L 98.9 -4.7
Q 98.45 -5.9 98.1 -6.3 97.5 -7.15 96.55 -7.15 95.9 -7.15 94.95 -6.5 92.8 -5.1 92.15 -3.95
L 92.05 -3.6
Q 92.05 -3.35 92.35 -3.15 93.15 -2.55 94.65 -1.9 96.6 -1.05 97 -0.85 98.3 -0.15 99.35 0.9 100.05 1.6 100.3 2.25 100.55 2.9 100.55 4.25 100.55 5.85 99.95 6.65
L 99.1 7.3
Q 98.55 7.7 97.95 7.85 97.3 8.05 95.95 8.05 92.6 8.15 90.7 7.65 90.35 7.55 90.25 7.4
L 90.2 7 90.2 5.5
Q 91.9 5.45 93.55 5.8 95.3 6.05 95.5 6.05 96.25 5.95 97.35 5.2 98.3 4.55 98.25 3.95 98.2 3.65 97.8 3.25 96.9 2.25 95.75 1.5 95 1 93.15 0.25 91.4 -0.5 90.55 -1.1 90.05 -1.4 89.85 -1.85
M -106.25 -8.3
Q -106 -8.8 -105.2 -9.05 -101.3 -10.65 -92.85 -13.1 -89.5 -14.1 -87.7 -14
L -87.7 -12.35
Q -98.75 -9.4 -103.9 -7.15 -103.95 -7.15 -103.95 -7.1
L -104 -7.05
Q -104.05 -7 -104.05 -6.95
L -104.05 -6.85
Q -100.35 3.9 -94.65 14.25 -94.35 14.8 -93.95 14.9 -93.8 14.95 -93.1 14.8
L -80.5 9.85
Q -77.5 8.55 -76.65 8.15 -76.65 8.1 -76.6 8.1 -76.6 8.05 -76.6 8
L -76.6 7.9 -79.05 2.9
Q -79.95 1.25 -79.6 0.2
L -77.85 0.2
Q -77.25 1.3 -76.2 3.5
L -76.2 3.55
Q -75.1 5.85 -74.45 6.9
L -73.85 7.95 -73.9 7.9
Q -73.75 8.3 -73.85 9.5 -77.2 10.95 -81.95 12.75
L -88.95 15.55
Q -90.95 16.3 -91.95 16.6 -93.6 17.05 -94.95 16.9 -95.6 16.8 -95.85 16.65 -96.2 16.4 -96.4 15.95 -100.75 7.55 -102.85 2.45
L -105.5 -4.2
Q -106.25 -5.95 -106.4 -7 -106.6 -7.95 -106.25 -8.3
M -65.35 -19.55
L -65.3 -19.55
Q -63.9 -19.6 -61.7 -19.35 -60.85 -19.25 -60.3 -19 -59.7 -18.6 -59.45 -17.75 -59.2 -17.1 -59.2 -16.15 -59.2 -14.65 -59.7 -13.45
L -59.65 -13.45
Q -60 -12.85 -61.15 -11.3 -61.2 -11.25 -61.2 -11.2 -61.45 -11.05 -61.6 -10.9
L -61.65 -10.85
Q -61.7 -10.8 -61.7 -10.75 -61.7 -10.4 -61.8 -10.15
L -61.75 -10.15
Q -61.9 -9.9 -62.35 -9.65 -63.55 -9.05 -65.3 -8.05
L -65.35 -8.05
Q -65.4 -8.05 -65.4 -8 -66.95 -7.2 -68.8 -6.25 -73.25 -4.05 -75.3 -2.9 -78.35 -1.25 -80.25 0 -81.55 0.7 -82.15 0.9
L -82.3 0.95
Q -82.35 0.95 -82.35 1
L -82.4 1.05
Q -82.45 1.1 -82.45 1.15
L -82.45 1.2
Q -82.75 1.15 -83.25 1.2
L -83.5 1.25
Q -89 2.2 -91.95 2.1 -91.95 -2.75 -90.7 -7.7 -87.7 -9.55 -77.25 -15.3 -75.05 -16.5 -73.75 -16.3
L -73.7 -16.25
Q -73.65 -16.2 -73.6 -16.2
L -72.35 -16.2 -69.4 -10.3
Q -69.25 -10.1 -69.25 -10
L -69.25 -9.95 -69.2 -9.6 -69.2 -9.05
Q -69.2 -9 -69.15 -8.95 -69.1 -8.9 -69.05 -8.9
L -68.95 -8.9
Q -68.9 -8.9 -68.85 -8.9
L -68.1 -9.3
Q -68.1 -9.35 -68.05 -9.35 -68.05 -9.4 -68.05 -9.45
L -68.05 -9.55
Q -68.5 -10.4 -68.7 -10.8
L -70.35 -14.5
Q -70.65 -15.2 -70.7 -15.5
L -70.7 -15.55
Q -70.8 -15.85 -70.75 -16.4
L -70.75 -16.45
Q -70.75 -16.95 -70.75 -17.2
L -69.55 -17.15
Q -69.5 -17.15 -69.45 -17.15 -69.45 -17.2 -69.4 -17.2 -69.4 -17.25 -69.4 -17.3
L -69.4 -18.7 -69.35 -18.85 -69.15 -18.95 -65.35 -19.55
M -45.9 -8.4
Q -45.35 -8.2 -44.95 -7.3 -43.75 -4.75 -42.25 0 -42.1 0.55 -41.9 1.1
L -41.05 1.1 -41.05 2.6 -41.1 3
Q -41.15 3.05 -41.25 3.15 -40.3 6 -39.7 7.4 -39 9.1 -38.85 9.65 -38.45 10.95 -38.6 11.95 -38.85 11.85 -39.6 11.95 -40.25 12.05 -40.5 11.85 -40.75 11.7 -40.95 11.2 -42.35 7.85 -43.5 4.2 -43.6 3.9 -43.65 3.65 -44.2 3.7 -44.8 3.75 -47.1 3.9 -48.05 4.1
L -50.2 4.7
Q -50.55 4.8 -51.05 4.85 -52.15 8.4 -52.7 10.45
L -54.65 10.45
Q -54.8 8.7 -53.85 5.6 -52.85 2 -52.1 -0.15 -50.75 -4.65 -49.25 -7.4 -48.7 -8.25 -48.25 -8.4
L -46.55 -8.45 -45.9 -8.4
M -22.05 -7.3
Q -21.85 -5.3 -22.2 -2.45 -22.45 -0.85 -22.95 2.35 -23.05 3.3 -23.25 5.2 -23.45 6.85 -23.75 7.95 -23.95 8.85 -24.5 9.1 -24.65 9.15 -25.45 9.15 -26.25 9.15 -26.65 9.05 -27.1 8.9 -27.85 8.05 -28.5 7.2 -30.1 4.05 -31.85 0.7 -33.95 -2.3 -34.55 1.9 -34.45 10.45
L -36.35 10.45
Q -36.65 -0.3 -35.6 -5.9 -35.25 -5.8 -34.35 -5.9 -33.6 -5.95 -33.2 -5.75 -33 -5.65 -32.55 -5.1 -30 -1.45 -28.1 2.25
L -25.8 6.25
Q -25.4 4.45 -24.9 0.85
L -24.3 -3.7
Q -24.15 -5.55 -24.15 -7.35
L -22.05 -7.3
M -15.3 -6.75
Q -15.1 -4.25 -14.95 -0.65 -14.9 1.35 -14.8 5.4
L -14.5 10.95 -16.5 10.9
Q -16.7 10.35 -16.7 9.65
L -17.3 -6.75 -15.3 -6.75
M -45.15 -0.8
Q -46.1 -3.7 -47.1 -5.7 -48.5 -3.35 -50.25 2.05 -50.25 2.1 -50.3 2.2 -49.65 2.05 -49 1.95 -48.95 1.95 -46.15 1.7 -45.15 1.6 -44.35 1.45 -44.85 0.1 -45.15 -0.8
M -68.75 -17.15
Q -68.8 -17.15 -68.85 -17.1 -68.9 -17.05 -68.9 -17
L -68.9 -16.9
Q -68.9 -16.85 -68.85 -16.85
L -66.95 -12.5 -66.95 -12.45
Q -66.55 -11.5 -65.95 -10.65
L -65.9 -10.6 -65.8 -10.6
Q -65.75 -10.6 -65.7 -10.6
L -63.7 -11.65
Q -63.7 -11.7 -63.65 -11.7 -63.65 -11.75 -63.65 -11.8
L -63.65 -12.4
Q -63.4 -12.55 -63.05 -12.85
L -63.05 -12.9
Q -62.05 -14 -61.35 -15.2 -61.1 -15.75 -61.15 -16.1 -61.15 -16.25 -61.45 -16.7
L -61.5 -16.7
Q -62.05 -17.25 -62.15 -17.35 -62.2 -17.4 -62.25 -17.4
L -63.05 -17.6
Q -64.35 -17.85 -65.4 -17.65
L -67.25 -17.25
Q -67.8 -17.15 -68.7 -17.15
L -68.75 -17.15
M -88.85 -5.05
Q -88.9 -5.05 -88.95 -5.05 -88.95 -5.1 -89 -5.1
L -89.05 -5.1
Q -89.25 -5.1 -89.25 -4.9
L -89.75 -2.25 -89.75 -2.2
Q -89.75 -2.15 -89.7 -2.1 -89.65 -2.05 -89.6 -2.05
L -89.05 -2.05
Q -89.05 -1.8 -88.95 -1.35
L -88.95 -0.1
Q -88.95 -0.05 -88.9 0
L -88.85 0.05
Q -88.85 0.1 -88.8 0.1
L -88.75 0.1
Q -87.4 0 -86 -0.3
L -85.95 -0.3
Q -85.9 -0.3 -85.85 -0.35 -85.8 -0.4 -85.8 -0.45
L -85.8 -0.55
Q -86.5 -1.55 -87.25 -2.85 -88.15 -4.2 -88.85 -5.05
M -87.2 -6.9
Q -87.2 -6.85 -87.15 -6.8 -86.3 -5.8 -85.2 -4 -84.15 -2.35 -83.35 -1.35
L -83.3 -1.3 -83.15 -1.3
Q -83.1 -1.3 -83.05 -1.3 -82.75 -1.55 -82.2 -1.75
L -82.15 -1.75 -70.7 -7.9
Q -70.7 -7.95 -70.65 -7.95 -70.65 -8 -70.65 -8.05
L -70.65 -8.15
Q -70.65 -8.2 -70.7 -8.25 -70.75 -8.3 -70.8 -8.3
L -70.9 -8.3
Q -72.4 -10.85 -73.5 -13.2
L -73.85 -13.85 -73.9 -14.1
Q -73.9 -14.2 -73.95 -14.2 -74 -14.25 -74.05 -14.25
L -74.15 -14.25
Q -74.2 -14.25 -74.2 -14.2 -74.4 -14.15 -74.65 -13.95 -81.45 -10.55 -87.1 -7.05 -87.15 -7.05 -87.15 -7 -87.2 -7 -87.2 -6.95
L -87.2 -6.9
M 17.9 -0.15
Q 17.85 -0.2 17.85 -0.25 16.45 -4.3 14.7 -7 13.15 -2.45 12.4 1 13.9 0.75 15.8 0.75
L 16.55 0.75 16.85 0.6
Q 16.95 0.5 16.9 0.25 16.85 -0.05 16.9 -0.15
L 17.9 -0.15 Z"/>

<path fill="#7B7B7B" stroke="none" d="
M -14.95 -0.65
Q -15.1 -4.25 -15.3 -6.75
L -17.3 -6.75 -16.7 9.65
Q -16.7 10.35 -16.5 10.9
L -14.5 10.95 -14.8 5.4
Q -14.9 1.35 -14.95 -0.65
M -22.2 -2.45
Q -21.85 -5.3 -22.05 -7.3
L -24.15 -7.35
Q -24.15 -5.55 -24.3 -3.7
L -24.9 0.85
Q -25.4 4.45 -25.8 6.25
L -28.1 2.25
Q -30 -1.45 -32.55 -5.1 -33 -5.65 -33.2 -5.75 -33.6 -5.95 -34.35 -5.9 -35.25 -5.8 -35.6 -5.9 -36.65 -0.3 -36.35 10.45
L -34.45 10.45
Q -34.55 1.9 -33.95 -2.3 -31.85 0.7 -30.1 4.05 -28.5 7.2 -27.85 8.05 -27.1 8.9 -26.65 9.05 -26.25 9.15 -25.45 9.15 -24.65 9.15 -24.5 9.1 -23.95 8.85 -23.75 7.95 -23.45 6.85 -23.25 5.2 -23.05 3.3 -22.95 2.35 -22.45 -0.85 -22.2 -2.45
M -44.95 -7.3
Q -45.35 -8.2 -45.9 -8.4
L -46.55 -8.45 -48.25 -8.4
Q -48.7 -8.25 -49.25 -7.4 -50.75 -4.65 -52.1 -0.15 -52.85 2 -53.85 5.6 -54.8 8.7 -54.65 10.45
L -52.7 10.45
Q -52.15 8.4 -51.05 4.85 -50.55 4.8 -50.2 4.7
L -48.05 4.1
Q -47.1 3.9 -44.8 3.75 -44.2 3.7 -43.65 3.65 -43.6 3.9 -43.5 4.2 -42.35 7.85 -40.95 11.2 -40.75 11.7 -40.5 11.85 -40.25 12.05 -39.6 11.95 -38.85 11.85 -38.6 11.95 -38.45 10.95 -38.85 9.65 -39 9.1 -39.7 7.4 -40.3 6 -41.25 3.15 -41.15 3.05 -41.1 3
L -41.05 2.6 -41.05 1.1 -41.9 1.1
Q -42.1 0.55 -42.25 0 -43.75 -4.75 -44.95 -7.3
M -47.1 -5.7
Q -46.1 -3.7 -45.15 -0.8 -44.85 0.1 -44.35 1.45 -45.15 1.6 -46.15 1.7 -48.95 1.95 -49 1.95 -49.65 2.05 -50.3 2.2 -50.25 2.1 -50.25 2.05 -48.5 -3.35 -47.1 -5.7
M -65.3 -19.55
L -65.35 -19.55 -69.15 -18.95 -69.35 -18.85 -69.4 -18.7 -69.4 -17.3
Q -69.4 -17.25 -69.4 -17.2 -69.45 -17.2 -69.45 -17.15 -69.5 -17.15 -69.55 -17.15
L -70.75 -17.2
Q -70.75 -16.95 -70.75 -16.45
L -70.75 -16.4
Q -70.8 -15.85 -70.7 -15.55
L -70.7 -15.5
Q -70.65 -15.2 -70.35 -14.5
L -68.7 -10.8
Q -68.5 -10.4 -68.05 -9.55
L -68.05 -9.45
Q -68.05 -9.4 -68.05 -9.35 -68.1 -9.35 -68.1 -9.3
L -68.85 -8.9
Q -68.9 -8.9 -68.95 -8.9
L -69.05 -8.9
Q -69.1 -8.9 -69.15 -8.95 -69.2 -9 -69.2 -9.05
L -69.2 -9.6 -69.25 -9.95 -69.25 -10
Q -69.25 -10.1 -69.4 -10.3
L -72.35 -16.2 -73.6 -16.2
Q -73.65 -16.2 -73.7 -16.25
L -73.75 -16.3
Q -75.05 -16.5 -77.25 -15.3 -87.7 -9.55 -90.7 -7.7 -91.95 -2.75 -91.95 2.1 -89 2.2 -83.5 1.25
L -83.25 1.2
Q -82.75 1.15 -82.45 1.2
L -82.45 1.15
Q -82.45 1.1 -82.4 1.05
L -82.35 1
Q -82.35 0.95 -82.3 0.95
L -82.15 0.9
Q -81.55 0.7 -80.25 0 -78.35 -1.25 -75.3 -2.9 -73.25 -4.05 -68.8 -6.25 -66.95 -7.2 -65.4 -8 -65.4 -8.05 -65.35 -8.05
L -65.3 -8.05
Q -63.55 -9.05 -62.35 -9.65 -61.9 -9.9 -61.75 -10.15
L -61.8 -10.15
Q -61.7 -10.4 -61.7 -10.75 -61.7 -10.8 -61.65 -10.85
L -61.6 -10.9
Q -61.45 -11.05 -61.2 -11.2 -61.2 -11.25 -61.15 -11.3 -60 -12.85 -59.65 -13.45
L -59.7 -13.45
Q -59.2 -14.65 -59.2 -16.15 -59.2 -17.1 -59.45 -17.75 -59.7 -18.6 -60.3 -19 -60.85 -19.25 -61.7 -19.35 -63.9 -19.6 -65.3 -19.55
M -87.15 -6.8
Q -87.2 -6.85 -87.2 -6.9
L -87.2 -6.95
Q -87.2 -7 -87.15 -7 -87.15 -7.05 -87.1 -7.05 -81.45 -10.55 -74.65 -13.95 -74.4 -14.15 -74.2 -14.2 -74.2 -14.25 -74.15 -14.25
L -74.05 -14.25
Q -74 -14.25 -73.95 -14.2 -73.9 -14.2 -73.9 -14.1
L -73.85 -13.85 -73.5 -13.2
Q -72.4 -10.85 -70.9 -8.3
L -70.8 -8.3
Q -70.75 -8.3 -70.7 -8.25 -70.65 -8.2 -70.65 -8.15
L -70.65 -8.05
Q -70.65 -8 -70.65 -7.95 -70.7 -7.95 -70.7 -7.9
L -82.15 -1.75 -82.2 -1.75
Q -82.75 -1.55 -83.05 -1.3 -83.1 -1.3 -83.15 -1.3
L -83.3 -1.3 -83.35 -1.35
Q -84.15 -2.35 -85.2 -4 -86.3 -5.8 -87.15 -6.8
M -88.95 -5.05
Q -88.9 -5.05 -88.85 -5.05 -88.15 -4.2 -87.25 -2.85 -86.5 -1.55 -85.8 -0.55
L -85.8 -0.45
Q -85.8 -0.4 -85.85 -0.35 -85.9 -0.3 -85.95 -0.3
L -86 -0.3
Q -87.4 0 -88.75 0.1
L -88.8 0.1
Q -88.85 0.1 -88.85 0.05
L -88.9 0
Q -88.95 -0.05 -88.95 -0.1
L -88.95 -1.35
Q -89.05 -1.8 -89.05 -2.05
L -89.6 -2.05
Q -89.65 -2.05 -89.7 -2.1 -89.75 -2.15 -89.75 -2.2
L -89.75 -2.25 -89.25 -4.9
Q -89.25 -5.1 -89.05 -5.1
L -89 -5.1
Q -88.95 -5.1 -88.95 -5.05
M -68.85 -17.1
Q -68.8 -17.15 -68.75 -17.15
L -68.7 -17.15
Q -67.8 -17.15 -67.25 -17.25
L -65.4 -17.65
Q -64.35 -17.85 -63.05 -17.6
L -62.25 -17.4
Q -62.2 -17.4 -62.15 -17.35 -62.05 -17.25 -61.5 -16.7
L -61.45 -16.7
Q -61.15 -16.25 -61.15 -16.1 -61.1 -15.75 -61.35 -15.2 -62.05 -14 -63.05 -12.9
L -63.05 -12.85
Q -63.4 -12.55 -63.65 -12.4
L -63.65 -11.8
Q -63.65 -11.75 -63.65 -11.7 -63.7 -11.7 -63.7 -11.65
L -65.7 -10.6
Q -65.75 -10.6 -65.8 -10.6
L -65.9 -10.6 -65.95 -10.65
Q -66.55 -11.5 -66.95 -12.45
L -66.95 -12.5 -68.85 -16.85
Q -68.9 -16.85 -68.9 -16.9
L -68.9 -17
Q -68.9 -17.05 -68.85 -17.1
M -105.2 -9.05
Q -106 -8.8 -106.25 -8.3 -106.6 -7.95 -106.4 -7 -106.25 -5.95 -105.5 -4.2
L -102.85 2.45
Q -100.75 7.55 -96.4 15.95 -96.2 16.4 -95.85 16.65 -95.6 16.8 -94.95 16.9 -93.6 17.05 -91.95 16.6 -90.95 16.3 -88.95 15.55
L -81.95 12.75
Q -77.2 10.95 -73.85 9.5 -73.75 8.3 -73.9 7.9
L -73.85 7.95 -74.45 6.9
Q -75.1 5.85 -76.2 3.55
L -76.2 3.5
Q -77.25 1.3 -77.85 0.2
L -79.6 0.2
Q -79.95 1.25 -79.05 2.9
L -76.6 7.9 -76.6 8
Q -76.6 8.05 -76.6 8.1 -76.65 8.1 -76.65 8.15 -77.5 8.55 -80.5 9.85
L -93.1 14.8
Q -93.8 14.95 -93.95 14.9 -94.35 14.8 -94.65 14.25 -100.35 3.9 -104.05 -6.85
L -104.05 -6.95
Q -104.05 -7 -104 -7.05
L -103.95 -7.1
Q -103.95 -7.15 -103.9 -7.15 -98.75 -9.4 -87.7 -12.35
L -87.7 -14
Q -89.5 -14.1 -92.85 -13.1 -101.3 -10.65 -105.2 -9.05
M 89.65 -2.85
Q 89.75 -2 89.85 -1.85 90.05 -1.4 90.55 -1.1 91.4 -0.5 93.15 0.25 95 1 95.75 1.5 96.9 2.25 97.8 3.25 98.2 3.65 98.25 3.95 98.3 4.55 97.35 5.2 96.25 5.95 95.5 6.05 95.3 6.05 93.55 5.8 91.9 5.45 90.2 5.5
L 90.2 7 90.25 7.4
Q 90.35 7.55 90.7 7.65 92.6 8.15 95.95 8.05 97.3 8.05 97.95 7.85 98.55 7.7 99.1 7.3
L 99.95 6.65
Q 100.55 5.85 100.55 4.25 100.55 2.9 100.3 2.25 100.05 1.6 99.35 0.9 98.3 -0.15 97 -0.85 96.6 -1.05 94.65 -1.9 93.15 -2.55 92.35 -3.15 92.05 -3.35 92.05 -3.6
L 92.15 -3.95
Q 92.8 -5.1 94.95 -6.5 95.9 -7.15 96.55 -7.15 97.5 -7.15 98.1 -6.3 98.45 -5.9 98.9 -4.7
L 100.85 -4.7
Q 100.95 -5.95 100.75 -6.85 100.5 -8 99.7 -8.65 98.85 -9.35 96.6 -9.35 94.45 -9.25 93.7 -8.9
L 92.6 -8.2
Q 90.4 -6.6 89.95 -5.45 89.65 -4.6 89.65 -2.85
M 42.4 -8.85
L 40.45 -8.85
Q 40.45 -7.05 40.65 -3.45
L 41.5 8.05 43.55 8.1 42.4 -8.85
M 74.5 -6
Q 73.9 -7.1 73.3 -7.25 73.1 -7.35 72.65 -7.35
L 71.75 -7.35
Q 71.2 -7.35 71 -7.25 70.7 -7.05 70.5 -6.55 69.3 -3.85 69.2 1.3
L 69.2 8.65 71.15 8.65
Q 71.15 3.45 71.2 2.4 71.3 -1.95 72.35 -4.45 75.1 0.75 78.2 5.4 79.05 6.8 80 7.65 81.2 8.75 82.6 8.75 83.45 8.75 83.95 8.25 84.25 7.9 84.45 6.9 84.7 5.25 84.8 2.1 84.9 -1.25 85.1 -2.7 85.35 -4.45 85.45 -5.3 85.6 -6.85 85.5 -7.95
L 83.55 -8
Q 83.15 -5.75 82.95 -1 82.75 3.6 82.3 5.95 80.85 4.75 78.9 1.55 76.65 -2.05 74.5 -6
M 50.55 -7
Q 49.6 -6.3 48.9 -5.35 47.75 -3.65 47.65 -0.45 47.55 2.7 48.2 4.5 49.15 7.2 51.35 8.3 52.65 8.85 54.6 8.95 57.95 9.05 60.45 7.85 62.7 6.8 64.5 4.65 65.35 3.7 65.7 2.8 66.15 1.7 66.15 0.15 66.15 -1.15 65.85 -1.95 65.55 -2.85 64.55 -3.85 63.6 -4.95 62.4 -5.55 60.9 -6.2 59.7 -5.85 59.75 -5.6 59.7 -4.95 59.6 -4.4 59.75 -4.1 59.95 -3.8 60.55 -3.5 62.3 -2.55 63.5 -0.8 63.85 -0.4 63.9 0.05 63.95 0.55 63.55 1.25 61.2 5.35 56.6 6.55 55.5 6.85 54.95 6.8 52.8 6.75 51.2 4.5 49.85 2.55 49.75 0.35 49.65 -2 51.15 -3.8 52 -4.75 53.2 -5.45 54.75 -6.45 55.8 -6 56.05 -5.9 56.9 -5.3 58.05 -4.55 59.5 -4.85 59.65 -6.1 59.4 -6.7 59.3 -7.15 58.65 -7.55 57.45 -8.3 54.55 -8.2 53.2 -8.2 52.6 -8 51.5 -7.7 50.55 -7
M 30.3 -7.85
L 37.1 -8.05 37.05 -10.1
Q 35.9 -10.15 32.2 -9.95 29.05 -9.75 22.75 -9.65
L 22.75 -7.7 28.3 -7.8 29.2 9.4 31.2 9.4 30.9 2.4
Q 30.55 -4.85 30.3 -7.85
M 16.45 -9.3
Q 16.15 -9.85 15.85 -10.05 15.45 -10.25 14.85 -10.25 13.75 -10.25 13.35 -9.9 13.25 -9.8 12.9 -9.25 12.45 -8.3 12.15 -7.2 10.8 -3.25 10.1 0.5 9.15 5.95 9.6 11.1
L 11.65 11.1
Q 11.3 7.65 11.9 3.65
L 12.45 3.65 12.45 3.45 14.65 2.9 18.1 2.85
Q 18.2 2.85 18.75 2.6 19.25 4.25 20.05 6.9 20.65 8.8 21.2 9.6
L 23.35 9.6
Q 23.35 8.3 23.25 7.95
L 22.85 6.95
Q 22.15 5.45 21.45 3.15 20.75 0.6 20.35 -0.7 18.9 -5.3 16.45 -9.3
M 17.85 -0.25
Q 17.85 -0.2 17.9 -0.15
L 16.9 -0.15
Q 16.85 -0.05 16.9 0.25 16.95 0.5 16.85 0.6
L 16.55 0.75 15.8 0.75
Q 13.9 0.75 12.4 1 13.15 -2.45 14.7 -7 16.45 -4.3 17.85 -0.25
M 3.3 -6.35
L 3.15 -6.7 2.8 -6.75 1.45 -6.75
Q 1.1 -6.75 0.95 -6.65 0.65 -6.55 0.45 -6 -0.25 -4.55 -0.65 -2.75 -0.75 -2.35 -1.35 0.8 -1.8 2.95 -2.35 4.25 -4.35 0.05 -6.1 -4.65 -6.3 -5.1 -6.45 -5.15 -6.55 -5.25 -6.9 -5.25
L -8.4 -5.25 -8.8 -5.2
Q -8.95 -5.1 -9.05 -4.65 -9.45 -2.75 -9.55 0 -9.65 1.55 -9.75 4.65 -9.75 5.9 -9.95 6.9 -10 7.45 -10.2 8.55 -10.35 9.5 -10.25 10.2
L -8.25 10.25
Q -7.85 8.6 -7.75 5.95
L -7.45 -0.95
Q -5.4 4 -4.5 5.85 -4.2 6.45 -3.9 6.6 -3.6 6.8 -2.9 6.8
L -1.75 6.8
Q -1.1 6.8 -0.85 6.65 -0.5 6.45 -0.2 5.75 0.3 4.55 0.75 1.75 1.2 -0.9 1.75 -2.2 2.7 4 3.9 9.35
L 5.85 9.35
Q 5.85 8 5.3 4.6
L 3.3 -6.35 Z"/>
</g>
</defs>

<g transform="matrix( 1, 0, 0, 1, 111.4,25.5) ">
<g transform="matrix( 1, 0, 0, 1, 0,0) ">
<use xlink:href="#animations_0_Layer0_0_FILL"/>
</g>
</g>
</svg>
