
<svg xmlns="http://www.w3.org/2000/svg" version="1.1" xmlns:xlink="http://www.w3.org/1999/xlink" preserveAspectRatio="none" x="0px" y="0px" width="166px" height="52px" viewBox="0 0 166 52">
<defs>
<g id="games_0_Layer0_0_FILL">
<path fill="#666666" stroke="none" d="
M 83.3 -24.7
Q 83.2240234375 -24.8806640625 83 -25
L 83.05 -24.95
Q 82.892578125 -25.092578125 82.65 -25.1
L 51.05 -24.6
Q 12.7140625 -24.15 -24.05 -24.6 -28.9392578125 -24.851953125 -36.6 -25.25 -47.5255859375 -25.9005859375 -58 -25.95 -60.8001953125 -26 -63.55 -26 -72.92578125 -26.0005859375 -81.9 -25.5 -82.1845703125 -25.487890625 -82.4 -25.3
L -82.4 -25.25
Q -82.5861328125 -25.0466796875 -82.6 -24.8
L -82.75 -9
Q -82.900390625 11.46875 -83.35 20.3 -83.5234375 21.778515625 -83 22.6 -82.63359375 23.4439453125 -81.2 23.95 -81.1681640625 23.9837890625 -81.15 24 -77.79140625 25.3380859375 -73.25 25.8 -72.355859375 25.90078125 -71.1 25.95 -68.61640625 26.0505859375 -65.05 26
L 70.45 25.65
Q 77.453125 25.552734375 82.05 26.05 82.2841796875 26.0708984375 82.45 25.95
L 82.5 25.95
Q 82.70703125 25.871875 82.8 25.65
L 82.8 25.65
Q 82.9146484375 25.4615234375 82.9 25.25
L 82.9 25.2 81.75 6.9 81.65 -5.4
Q 81.5533203125 -10.9998046875 82.2 -16.55
L 83.4 -24.25 83.4 -24.25
Q 83.42109375 -24.4576171875 83.3 -24.65
L 83.3 -24.7
M 78.7 -21.3
L 78.35 -16.75 78.35 -16.7
Q 77.799609375 -9.2376953125 77.6 -1.85
L 78.75 22 -64.75 22.55
Q -70.15 22.5478515625 -73 22.25 -77.071484375 21.6548828125 -80.05 20.15 -79.410546875 -0.397265625 -79.4 -21.95 -56.9935546875 -22.9248046875 -34.2 -21.5 -26.800390625 -21.1 -24.1 -20.95
L -24.1 -20.95
Q -21.700390625 -20.85 -19.35 -20.65
L -19.25 -20.65
Q -9.8001953125 -20.45 -0.3 -20.45 34.700390625 -20.45 51.05 -20.5
L 78.7 -21.3 Z"/>

<path fill="#CCCCCC" stroke="none" d="
M 78.35 -16.75
L 78.7 -21.3 51.05 -20.5
Q 34.700390625 -20.45 -0.3 -20.45 -9.8001953125 -20.45 -19.25 -20.65
L -19.35 -20.65
Q -21.700390625 -20.85 -24.1 -20.95
L -24.1 -20.95
Q -26.800390625 -21.1 -34.2 -21.5 -56.9935546875 -22.9248046875 -79.4 -21.95 -79.410546875 -0.397265625 -80.05 20.15 -77.071484375 21.6548828125 -73 22.25 -70.15 22.5478515625 -64.75 22.55
L 78.75 22 77.6 -1.85
Q 77.799609375 -9.2376953125 78.35 -16.7
L 78.35 -16.75
M 2.95 -9.6
L 2.95 -9.65
Q 5.12578125 -4.3865234375 6.65 0.1 7.1830078125 1.5296875 7.5 2.85
L 7.55 2.85 7.8 2.9
Q 7.9451171875 2.9361328125 8.05 3.05 8.1638671875 3.1548828125 8.2 3.3
L 8.25 3.55
Q 8.2548828125 3.6005859375 8.25 3.65
L 8.25 5.4
Q 8.2494140625 5.4638671875 8.2 5.5 8.3591796875 6.1306640625 8.5 6.85 8.825 7.850390625 9.4 9.8
L 9.4 9.8
Q 9.9669921875 11.6923828125 9.75 13 9.7259765625 13.1677734375 9.6 13.25 9.52109375 13.3865234375 9.35 13.4 9.237109375 13.4673828125 9.1 13.4 8.85 13.3681640625 8.2 13.45
L 8.15 13.45
Q 7.2224609375 13.512890625 6.8 13.1
L 6.8 13.1
Q 6.4435546875 12.7802734375 6.3 12 5.7041015625 9.2568359375 4.9 6.35 1.984375 6.626953125 -0.1 7
L -0.1 6.95 -1.25 7.25 -2.15 14.15
Q -2.17890625 14.355859375 -2.35 14.45 -2.4646484375 14.599609375 -2.65 14.6
L -4.6 14.6
Q -4.733984375 14.598046875 -4.85 14.5 -4.9767578125 14.45 -5.05 14.3 -5.1107421875 14.2080078125 -5.1 14.05 -5.00546875 11.9685546875 -4.55 7.35 -4.5736328125 7.326953125 -4.6 7.3 -4.7482421875 7.1552734375 -4.75 6.95
L -4.75 4.95
Q -4.74453125 4.76796875 -4.65 4.6 -4.517578125 4.4853515625 -4.35 4.45 -4.2828125 4.4365234375 -4.25 4.4 -4.1828125 4.0615234375 -4.15 3.7 -3.6380859375 -0.4474609375 -3.15 -2.55
L -3.15 -2.55
Q -1.7921875 -6.9533203125 -1.4 -9.25 -1.389453125 -9.2623046875 -1.4 -9.3 -1.095703125 -10.21015625 -1 -10.4 -0.9509765625 -10.399609375 -0.95 -10.45 -0.3755859375 -11.20625 1.25 -10.95 2.0474609375 -10.8185546875 2.3 -10.6 2.777734375 -10.273046875 2.95 -9.6
M 16.6 -9.65
Q 17.0048828125 -9.477734375 17.55 -8.7 17.576171875 -8.6505859375 17.6 -8.65 20.0123046875 -3.976953125 23.05 3.25 25.192578125 -2.1912109375 27.6 -7.4
L 27.55 -7.4
Q 27.8322265625 -8.01171875 28.2 -8.35 28.675 -8.775 29.7 -8.65 30.576171875 -8.609765625 30.8 -8.65 30.967578125 -8.6771484375 31.1 -8.6 31.2736328125 -8.5244140625 31.35 -8.4 32.1189453125 -6.923046875 32.55 -4.9
L 32.6 -4.9
Q 32.7994140625 -3.943359375 33.2 -1.4
L 33.9 4.1
Q 34.2376953125 6.344921875 34.4 6.85
L 34.4 6.9 34.75 8.1
Q 35.1109375 9.2099609375 34.95 10.35 34.929296875 10.5318359375 34.8 10.65 34.710546875 10.7650390625 34.55 10.8 34.408984375 10.8337890625 34.25 10.75 34.0728515625 10.726953125 33.45 10.8 32.5755859375 10.870703125 32.15 10.55
L 32.2 10.55
Q 31.644921875 10.321875 31.5 9.3
L 31.5 9.35
Q 31.0123046875 7.29921875 30.4 2.4 30.0046875 -0.7806640625 29.5 -2.9 25.5462890625 6.55625 24.55 9 24.5103515625 9.1775390625 24.35 9.25 24.250390625 9.355859375 24.1 9.35
L 21.8 9.35
Q 21.63515625 9.3466796875 21.5 9.25 21.373046875 9.166015625 21.3 9 18.9775390625 2.2142578125 15.9 -3.7 15.2896484375 2.3751953125 14.85 9.15
L 14.85 9.2
Q 14.6541015625 11.5427734375 14.8 13.2 14.81640625 13.375390625 14.7 13.5 14.634765625 13.668359375 14.45 13.7 14.31171875 13.780859375 14.15 13.7 13.9009765625 13.6673828125 13.15 13.75
L 13.15 13.75
Q 12.0482421875 13.8955078125 11.7 13.3
L 11.65 13.25
Q 11.3556640625 12.844140625 11.5 12.05 12.1025390625 2.2455078125 13.25 -8.35
L 13.25 -8.4
Q 13.2658203125 -9.2111328125 13.7 -9.5 13.987109375 -9.75 14.65 -9.75
L 15.8 -9.75
Q 16.48984375 -9.7513671875 16.6 -9.65
M 37.8 -7.4
Q 37.86953125 -7.43515625 37.95 -7.5
L 37.95 -8.25
Q 37.955859375 -8.4322265625 38.05 -8.6 38.1822265625 -8.7138671875 38.35 -8.75
L 40.3 -9.15
Q 41.267578125 -9.350390625 43.1 -9.55 46.1734375 -9.8494140625 46.45 -9.9
L 47.35 -10.05 47.4 -10.05
Q 48.221875 -10.15546875 49.85 -10.05 50.065625 -10.0388671875 50.2 -9.9 50.3396484375 -9.7638671875 50.35 -9.6
L 50.4 -7.95
Q 50.4048828125 -6.8638671875 49.75 -6.55 49.6484375 -6.4462890625 49.5 -6.45
L 47.5 -6.5
Q 47.2947265625 -6.5046875 47.15 -6.65
L 47.1 -6.7
Q 44.3494140625 -6.4830078125 42.8 -6.25
L 42.8 -6.25
Q 42.2578125 -6.201953125 41.6 -6
L 41.6 -6 41.1 -5.85
Q 41.0751953125 -5.81171875 41.05 -5.8 40.9720703125 -5.785546875 40.85 -5.8 41.2283203125 -3.479296875 41.3 -0.55
L 43.7 -0.85
Q 44.862109375 -1.031640625 45.65 -1.3
L 46.2 -1.6
Q 46.317578125 -1.6556640625 46.45 -1.65
L 48.55 -1.65
Q 48.7552734375 -1.6482421875 48.9 -1.5 49.0482421875 -1.3552734375 49.05 -1.15
L 49.05 0.65
Q 49.0548828125 0.6994140625 49.05 0.75
L 49 1
Q 48.983203125 1.0640625 48.95 1.1 48.86953125 1.4720703125 48.3 1.5
L 47.75 1.75
Q 47.3375 1.93046875 46.9 1.95
L 42.1 2.6
Q 41.9953125 2.7482421875 41.8 2.75
L 41.4 2.75
Q 41.4 3.374609375 41.4 4.05 41.403515625 8.4751953125 41.6 10.25 46.0560546875 9.9361328125 50 10.2
L 50 10.05
Q 49.998046875 9.882421875 50.1 9.75 50.2072265625 9.6169921875 50.35 9.55 52.503125 9.0041015625 54.35 10.4 54.4453125 10.4705078125 54.5 10.55 54.551171875 10.6822265625 54.55 10.8
L 54.55 12.9
Q 54.5458984375 13.0826171875 54.4 13.2 54.3060546875 13.3662109375 54.1 13.4 52.3865234375 13.7115234375 48.75 13.35 45.2998046875 13.0134765625 43.6 13.35
L 43.6 13.3
Q 42.425 13.625 41.8 13.75
L 41.8 13.8
Q 40.6341796875 14.0216796875 39.8 13.85 39.7615234375 13.8412109375 39.7 13.8
L 39.2 13.6
Q 39.1265625 13.5796875 39.05 13.5 38.9703125 13.4234375 38.9 13.3
L 38.7 12.8
Q 38.708984375 12.7873046875 38.7 12.75 38.3943359375 11.310546875 38.4 9.15 38.449609375 5.365625 38.4 3.45
L 38.4 3.45
Q 38.3978515625 0.09375 38.1 -2.2 37.5390625 -5.6498046875 37.65 -7.05 37.66015625 -7.2302734375 37.8 -7.4
M 59.8 -11.4
L 59.8 -11.4
Q 63.9818359375 -12.993359375 69.1 -11.25 69.76171875 -10.9677734375 70.05 -10.6 70.45859375 -10.1650390625 70.4 -9.3 70.3513671875 -8.497265625 70.35 -8.35 70.415625 -8.18671875 70.35 -8.05 70.3330078125 -7.9142578125 70.2 -7.85 70.1033203125 -7.7255859375 69.95 -7.7 68.59296875 -7.5390625 67.4 -7.95 67.3748046875 -7.9369140625 67.35 -7.95
L 66.05 -8.5 66.05 -8.5
Q 64.1041015625 -9.2095703125 62.2 -8.55 60.479296875 -7.862890625 59.45 -6.35 60.22265625 -5.706640625 61.35 -5.2 62.1912109375 -4.8615234375 63.95 -4.25
L 64 -4.2
Q 66.680859375 -3.0669921875 69 -0.85
L 69 -0.85
Q 70.433984375 0.6794921875 71 1.95
L 71 1.9
Q 72.0263671875 4.0732421875 71.55 6.65 71.1228515625 9.027734375 69.45 10.85
L 69.45 10.9
Q 67.8955078125 12.5845703125 65.5 13.4 63.2775390625 14.257421875 60.85 14.05 58.955859375 13.933203125 58.05 12.9
L 58 12.85
Q 57.2017578125 12.0697265625 57.2 10.35
L 57.2 10.3
Q 57.2486328125 8.807421875 57.2 8 57.187109375 7.8916015625 57.25 7.75 57.3220703125 7.6484375 57.45 7.55 57.578515625 7.4998046875 57.7 7.5
L 59.7 7.55
Q 59.932421875 7.551171875 60.05 7.7 60.2134765625 7.859765625 60.2 8.05 60.11953125 10.087109375 61.25 10.7 62.14453125 11.0740234375 63.5 10.4
L 63.55 10.4
Q 66.855859375 8.98359375 68.05 6.4 68.0611328125 6.375390625 68.05 6.35 68.424609375 5.761328125 68.35 5.15 68.3478515625 5.1373046875 68.35 5.1 68.331640625 4.425390625 67.75 3.55 65.5400390625 0.203125 59.9 -1.95 56.977734375 -2.961328125 56.3 -4.5
L 56.3 -4.5
Q 55.88828125 -5.352734375 56 -6.55 56.1646484375 -8.29375 57.15 -9.6
L 57.15 -9.65
Q 58.0814453125 -10.6650390625 59.8 -11.4
M -69.75 -13.25
Q -68.878125 -12.786328125 -68.25 -12.65
L -67.2 -12.45 -67.2 -12.45
Q -66.068359375 -12.1796875 -64.45 -11.6 -64.373046875 -11.55390625 -64.35 -11.55 -63.9416015625 -11.283984375 -63.8 -11.15 -62.178515625 -11.7255859375 -60.9 -11.9 -59.5853515625 -12.10625 -57.7 -12
L -57.65 -12
Q -56.6640625 -11.90078125 -54.65 -11.8 -51.78515625 -11.7921875 -50.95 -11.4
L -50.95 -11.4
Q -50.011328125 -10.9697265625 -49.1 -10.05 -46.8162109375 -7.7783203125 -45.75 -4.65
L -45.75 -4.6
Q -44.68515625 -1.4384765625 -45.15 1.75 -45.4828125 3.83828125 -46.45 4.7
L -46.5 4.7
Q -47.591796875 5.7640625 -49.7 5.65
L -49.7 5.65
Q -51.9869140625 5.4603515625 -54.3 4.1
L -54.9 4.85
Q -54.94609375 4.9154296875 -55 4.95
L -55.75 5.55 -55.8 5.55
Q -55.8818359375 5.6384765625 -55.95 5.65 -55.95625 5.7615234375 -56.05 5.85 -56.0994140625 5.9177734375 -56.2 5.95
L -56.85 6.2 -57.45 6.7
Q -57.474609375 6.7140625 -57.5 6.7
L -57.85 6.9
Q -57.8751953125 6.937890625 -57.9 6.95
L -59.55 7.7
Q -59.6341796875 7.7431640625 -59.75 7.75
L -60.45 7.75
Q -60.3345703125 10.2076171875 -60.7 11.5 -61.434375 14.8125 -64.05 15.7 -65.0400390625 16.1029296875 -66.75 16.1 -68.166796875 16.10546875 -68.9 15.95
L -68.95 15.9
Q -71.3193359375 15.2876953125 -72.7 12.85 -73.6244140625 11.2904296875 -74.15 8.3 -74.912109375 3.500390625 -74.15 -1.4 -73.7240234375 -3.84140625 -73 -5.1
L -73 -5.1
Q -72.41015625 -6.1955078125 -71.4 -6.6
L -71.4 -6.65
Q -71.006640625 -6.76953125 -70.3 -6.8 -70.050390625 -7.3734375 -69.55 -7.95
L -69.55 -7.95
Q -69.0525390625 -8.483984375 -68.1 -9.1 -69.234375 -9.43046875 -69.6 -9.5
L -70.55 -9.7
Q -71.15234375 -9.8060546875 -72 -10.25
L -72 -10.3 -72.75 -10.75
Q -72.801953125 -10.745703125 -72.85 -10.8
L -73.45 -11.35
Q -73.477734375 -11.359375 -73.5 -11.4
L -73.9 -11.95
Q -74.148046875 -12.2146484375 -74.15 -12.45
L -74.15 -12.45 -74.2 -12.8
Q -74.2025390625 -12.8126953125 -74.2 -12.85
L -74.2 -14.4
Q -74.197265625 -14.5345703125 -74.15 -14.65 -74.0625 -14.77578125 -73.95 -14.85 -73.8203125 -14.91015625 -73.7 -14.9
L -71.85 -14.85 -71.5 -14.8
Q -71.2724609375 -14.7685546875 -71.15 -14.6
L -71 -14.4
Q -70.973046875 -14.363671875 -70.95 -14.35 -70.6427734375 -13.795703125 -69.8 -13.25 -69.75 -13.2369140625 -69.75 -13.25
M -20.95 -7.4
Q -24.507421875 -5.63828125 -26.35 -4.15 -29.6388671875 -1.190234375 -30.5 2.85 -31.3623046875 7.2408203125 -29.15 10.7 -27.780859375 12.85859375 -25.75 13.45 -24.533984375 13.7814453125 -22.7 13.45 -19.7416015625 12.96796875 -17.65 11.55 -15.683984375 10.26484375 -14.9 8.45
L -17.05 8.8
Q -19.4087890625 9.212109375 -20.6 9.1 -20.7927734375 9.088671875 -20.95 8.95 -21.053515625 8.8005859375 -21.05 8.6
L -21.05 6.5
Q -21.0482421875 6.3154296875 -20.95 6.15 -20.8056640625 6.030859375 -20.65 6
L -17.65 5.55
Q -15.8041015625 5.3107421875 -14.4 4.9
L -12.95 4.55
Q -12.887109375 4.5611328125 -12.85 4.55 -12.4453125 4.498046875 -10.5 4.5 -10.365234375 4.501171875 -10.25 4.55 -10.1224609375 4.6498046875 -10.05 4.75 -9.9884765625 4.8919921875 -10 5 -10.043359375 5.7966796875 -9.85 7.3
L -9.25 11.25 -9.3 11.2
Q -9.040625 12.091796875 -8.95 12.25
L -9 12.25 -8.65 12.85
Q -8.6107421875 12.875390625 -8.6 12.9 -8.4048828125 13.3193359375 -8.4 14.1
L -8.4 14.15
Q -8.4828125 14.8828125 -8.45 15.1 -8.423828125 15.240625 -8.5 15.35 -8.5310546875 15.5099609375 -8.65 15.6 -8.7611328125 15.6861328125 -8.9 15.7 -9.8822265625 15.8126953125 -10.7 15.65
L -10.75 15.6 -11.1 15.5
Q -11.1265625 15.516015625 -11.2 15.5 -11.86484375 15.188671875 -12.15 14.1 -12.1400390625 14.08671875 -12.15 14.05 -12.3072265625 12.5283203125 -12.45 11.6 -13.2662109375 13.1 -14.7 14.15 -17.074609375 15.92421875 -21.65 16.6 -27.008984375 17.3322265625 -29.75 15.5 -32.06484375 14.0421875 -33.2 10.75 -33.8990234375 8.437109375 -33.8 5
L -33.8 4.95
Q -33.7966796875 0.255859375 -32.25 -2.9 -29.9880859375 -7.2154296875 -23.75 -10.1 -20.8345703125 -11.40859375 -18.7 -11.35
L -18.7 -11.35
Q -17.2685546875 -11.298828125 -16.05 -10.65
L -16 -10.65
Q -14.712890625 -9.903125 -14.1 -8.7
L -14.1 -8.65
Q -13.546484375 -7.483203125 -13.65 -4.85 -13.6560546875 -4.6326171875 -13.8 -4.5 -13.9478515625 -4.3548828125 -14.15 -4.35
L -16.15 -4.35
Q -16.3328125 -4.3541015625 -16.5 -4.5 -16.6162109375 -4.5818359375 -16.65 -4.75 -16.874609375 -6.0537109375 -17.35 -6.85 -17.85390625 -7.7783203125 -18.8 -8
L -18.8 -8
Q -19.58203125 -8.0896484375 -20.95 -7.4
M -65.45 -6.35
Q -65.4865234375 -6.3037109375 -65.55 -6.3 -65.485546875 -6.2666015625 -65.45 -6.25 -65.3107421875 -6.194921875 -65.25 -6.1 -65.146875 -5.9494140625 -65.15 -5.8
L -65.15 -3.85
Q -65.148046875 -3.662890625 -65.3 -3.55 -65.4068359375 -3.37578125 -65.6 -3.35 -67.158984375 -3.1931640625 -68.45 -3.6
L -68.4 -3.55
Q -68.976953125 -3.6759765625 -69.15 -3.7
L -69.15 -3.65
Q -69.515234375 -3.544140625 -69.9 -3 -71.82734375 0.056640625 -71.3 5.2 -71.064453125 7.7060546875 -70.4 9.25 -69.509765625 11.3935546875 -68 12.4
L -67.95 12.45
Q -67.4142578125 12.8328125 -67.1 12.9
L -67.05 12.9
Q -66.4001953125 12.90625 -65.65 12.35 -64.7244140625 11.705078125 -64.25 10.9
L -64.25 10.9
Q -63.4609375 9.4390625 -63.55 6.3 -63.56015625 6.1791015625 -63.5 6.05 -63.42578125 5.9375 -63.3 5.85 -63.1845703125 5.8025390625 -63.05 5.8
L -62.6 5.8 -62.6 5.35
Q -62.5939453125 5.1998046875 -62.5 5.05 -62.416015625 4.9390625 -62.3 4.85
L -61 4.35 -58.65 2.95 -58.05 2.5
Q -57.2701171875 1.9013671875 -56.7 1 -56.59609375 0.9142578125 -56.5 0.85 -56.3564453125 0.7939453125 -56.25 0.8
L -55 0.85 -55 0.8
Q -54.85625 0.6806640625 -54.7 0.65 -52.7892578125 0.37265625 -51.15 1.4 -50.825 1.625 -50.25 2
L -50.25 2
Q -49.8626953125 2.2166015625 -49.55 2.2 -49.11328125 2.1552734375 -48.8 1.7
L -48.8 1.65
Q -48.08203125 0.768359375 -48.25 -0.65
L -48.25 -0.7
Q -48.3029296875 -1.65625 -49 -3.2 -50.2107421875 -5.888671875 -51.85 -7.45
L -51.85 -7.45
Q -52.6529296875 -8.1546875 -53.55 -8.5 -53.991796875 -8.6525390625 -55.5 -8.75 -58.354296875 -8.8455078125 -59.4 -8.7 -62.095703125 -8.3103515625 -65.45 -6.35
M -68.65 -0.2
Q -68.6384765625 -0.2912109375 -68.6 -0.4 -68.4501953125 -0.6896484375 -68.1 -0.9 -68.1 -0.908984375 -68.1 -0.95
L -68.1 -1
Q -68.0607421875 -1.6787109375 -68.1 -1.9 -68.1203125 -2.054296875 -68.05 -2.2 -67.99765625 -2.3416015625 -67.9 -2.45 -67.736328125 -2.5068359375 -67.6 -2.5
L -65.9 -2.45 -65.55 -2.4
Q -65.402734375 -2.378515625 -65.3 -2.3 -64.666015625 -2.4080078125 -63.4 -2.3 -63.2064453125 -2.288671875 -63.1 -2.15 -62.946484375 -2.00078125 -62.95 -1.8
L -62.95 -0.25 -63 0.15
Q -63.0115234375 0.241015625 -63.05 0.3 -63.080078125 0.4970703125 -63.6 0.75 -63.565625 1.1107421875 -63.6 1.55 -63.63828125 2.0947265625 -63.6 2.3 -63.580859375 2.45390625 -63.65 2.6 -63.703515625 2.7404296875 -63.85 2.8 -63.9501953125 2.9046875 -64.1 2.9
L -65.75 2.9
Q -65.7873046875 2.9025390625 -65.85 2.9
L -66.2 2.85
Q -66.2255859375 2.8443359375 -66.3 2.8 -66.5689453125 2.719921875 -66.75 2.4 -67.347265625 2.5279296875 -68.25 2.45 -68.4427734375 2.438671875 -68.6 2.3 -68.703515625 2.1505859375 -68.7 1.95
L -68.7 0.2 -68.65 -0.2
M -54.45 -7.95
Q -54.30390625 -7.8033203125 -54.3 -7.6
L -54.3 -5.65
Q -54.3029296875 -5.5166015625 -54.4 -5.4 -54.4375 -5.2869140625 -54.55 -5.25 -54.6669921875 -5.152734375 -54.8 -5.15
L -56.9 -5.2
Q -57.1056640625 -5.2044921875 -57.25 -5.35 -57.39609375 -5.4966796875 -57.4 -5.7
L -57.4 -7.65
Q -57.3970703125 -7.7833984375 -57.35 -7.9 -57.2625 -8.0130859375 -57.15 -8.1 -57.033203125 -8.147265625 -56.9 -8.15
L -54.8 -8.1
Q -54.5943359375 -8.0955078125 -54.45 -7.95
M -53.2 -6.3
L -51.2 -6.3
Q -50.9947265625 -6.2982421875 -50.85 -6.15 -50.7017578125 -6.0052734375 -50.7 -5.8
L -50.7 -3.7
Q -50.7017578125 -3.4947265625 -50.85 -3.35 -50.9947265625 -3.2017578125 -51.2 -3.2
L -53.2 -3.2
Q -53.4052734375 -3.2017578125 -53.55 -3.35 -53.6982421875 -3.4947265625 -53.7 -3.7
L -53.7 -5.8
Q -53.6982421875 -6.0052734375 -53.55 -6.15 -53.4052734375 -6.2982421875 -53.2 -6.3
M -57.6 -4.6
L -55.95 -4.55
Q -55.73203125 -4.5447265625 -55.6 -4.4 -55.4544921875 -4.2533203125 -55.45 -4.05
L -55.45 -2.05
Q -55.45 -1.90234375 -55.55 -1.8 -55.5994140625 -1.6587890625 -55.75 -1.6
L -56.05 -1.45
Q -56.1314453125 -1.39609375 -56.25 -1.4
L -58.25 -1.45
Q -58.4552734375 -1.4546875 -58.6 -1.6 -58.74609375 -1.7466796875 -58.75 -1.95
L -58.75 -4
Q -58.75 -4.13515625 -58.7 -4.25 -58.60078125 -4.3787109375 -58.5 -4.45 -58.2076171875 -4.6013671875 -57.6 -4.6
M -54.8 -0.35
L -54.8 -2.45
Q -54.7970703125 -2.5833984375 -54.75 -2.7 -54.6625 -2.8130859375 -54.55 -2.9 -54.42109375 -2.947265625 -54.3 -2.95
L -52.35 -2.9
Q -52.1322265625 -2.8953125 -52 -2.75 -51.85390625 -2.6033203125 -51.85 -2.4
L -51.85 -0.35
Q -51.8517578125 -0.1447265625 -52 0 -52.1447265625 0.1482421875 -52.35 0.15
L -54.3 0.15
Q -54.5052734375 0.1482421875 -54.65 0 -54.7982421875 -0.1447265625 -54.8 -0.35
M 2.5 -1.05
L 1.05 -4.75
Q -0.114453125 -0.9912109375 -0.5 1.2
L -0.85 3.7
Q -0.3173828125 3.6587890625 0.2 3.6 0.6470703125 3.5501953125 2.8 3.35
L 2.8 3.35
Q 3.446484375 3.31796875 4 3.25 3.3150390625 1.1591796875 2.5 -1.05
M 7.6 3.2
L 7.6 3.1 7.55 3.1
Q 7.5966796875 3.1580078125 7.6 3.2 Z"/>

<path fill="#7B7B7B" stroke="none" d="
M -26.35 -4.15
Q -24.507421875 -5.63828125 -20.95 -7.4 -19.58203125 -8.0896484375 -18.8 -8
L -18.8 -8
Q -17.85390625 -7.7783203125 -17.35 -6.85 -16.874609375 -6.0537109375 -16.65 -4.75 -16.6162109375 -4.5818359375 -16.5 -4.5 -16.3328125 -4.3541015625 -16.15 -4.35
L -14.15 -4.35
Q -13.9478515625 -4.3548828125 -13.8 -4.5 -13.6560546875 -4.6326171875 -13.65 -4.85 -13.546484375 -7.483203125 -14.1 -8.65
L -14.1 -8.7
Q -14.712890625 -9.903125 -16 -10.65
L -16.05 -10.65
Q -17.2685546875 -11.298828125 -18.7 -11.35
L -18.7 -11.35
Q -20.8345703125 -11.40859375 -23.75 -10.1 -29.9880859375 -7.2154296875 -32.25 -2.9 -33.7966796875 0.255859375 -33.8 4.95
L -33.8 5
Q -33.8990234375 8.437109375 -33.2 10.75 -32.06484375 14.0421875 -29.75 15.5 -27.008984375 17.3322265625 -21.65 16.6 -17.074609375 15.92421875 -14.7 14.15 -13.2662109375 13.1 -12.45 11.6 -12.3072265625 12.5283203125 -12.15 14.05 -12.1400390625 14.08671875 -12.15 14.1 -11.86484375 15.188671875 -11.2 15.5 -11.1265625 15.516015625 -11.1 15.5
L -10.75 15.6 -10.7 15.65
Q -9.8822265625 15.8126953125 -8.9 15.7 -8.7611328125 15.6861328125 -8.65 15.6 -8.5310546875 15.5099609375 -8.5 15.35 -8.423828125 15.240625 -8.45 15.1 -8.4828125 14.8828125 -8.4 14.15
L -8.4 14.1
Q -8.4048828125 13.3193359375 -8.6 12.9 -8.6107421875 12.875390625 -8.65 12.85
L -9 12.25 -8.95 12.25
Q -9.040625 12.091796875 -9.3 11.2
L -9.25 11.25 -9.85 7.3
Q -10.043359375 5.7966796875 -10 5 -9.9884765625 4.8919921875 -10.05 4.75 -10.1224609375 4.6498046875 -10.25 4.55 -10.365234375 4.501171875 -10.5 4.5 -12.4453125 4.498046875 -12.85 4.55 -12.887109375 4.5611328125 -12.95 4.55
L -14.4 4.9
Q -15.8041015625 5.3107421875 -17.65 5.55
L -20.65 6
Q -20.8056640625 6.030859375 -20.95 6.15 -21.0482421875 6.3154296875 -21.05 6.5
L -21.05 8.6
Q -21.053515625 8.8005859375 -20.95 8.95 -20.7927734375 9.088671875 -20.6 9.1 -19.4087890625 9.212109375 -17.05 8.8
L -14.9 8.45
Q -15.683984375 10.26484375 -17.65 11.55 -19.7416015625 12.96796875 -22.7 13.45 -24.533984375 13.7814453125 -25.75 13.45 -27.780859375 12.85859375 -29.15 10.7 -31.3623046875 7.2408203125 -30.5 2.85 -29.6388671875 -1.190234375 -26.35 -4.15
M -68.25 -12.65
Q -68.878125 -12.786328125 -69.75 -13.25 -69.75 -13.2369140625 -69.8 -13.25 -70.6427734375 -13.795703125 -70.95 -14.35 -70.973046875 -14.363671875 -71 -14.4
L -71.15 -14.6
Q -71.2724609375 -14.7685546875 -71.5 -14.8
L -71.85 -14.85 -73.7 -14.9
Q -73.8203125 -14.91015625 -73.95 -14.85 -74.0625 -14.77578125 -74.15 -14.65 -74.197265625 -14.5345703125 -74.2 -14.4
L -74.2 -12.85
Q -74.2025390625 -12.8126953125 -74.2 -12.8
L -74.15 -12.45 -74.15 -12.45
Q -74.148046875 -12.2146484375 -73.9 -11.95
L -73.5 -11.4
Q -73.477734375 -11.359375 -73.45 -11.35
L -72.85 -10.8
Q -72.801953125 -10.745703125 -72.75 -10.75
L -72 -10.3 -72 -10.25
Q -71.15234375 -9.8060546875 -70.55 -9.7
L -69.6 -9.5
Q -69.234375 -9.43046875 -68.1 -9.1 -69.0525390625 -8.483984375 -69.55 -7.95
L -69.55 -7.95
Q -70.050390625 -7.3734375 -70.3 -6.8 -71.006640625 -6.76953125 -71.4 -6.65
L -71.4 -6.6
Q -72.41015625 -6.1955078125 -73 -5.1
L -73 -5.1
Q -73.7240234375 -3.84140625 -74.15 -1.4 -74.912109375 3.500390625 -74.15 8.3 -73.6244140625 11.2904296875 -72.7 12.85 -71.3193359375 15.2876953125 -68.95 15.9
L -68.9 15.95
Q -68.166796875 16.10546875 -66.75 16.1 -65.0400390625 16.1029296875 -64.05 15.7 -61.434375 14.8125 -60.7 11.5 -60.3345703125 10.2076171875 -60.45 7.75
L -59.75 7.75
Q -59.6341796875 7.7431640625 -59.55 7.7
L -57.9 6.95
Q -57.8751953125 6.937890625 -57.85 6.9
L -57.5 6.7
Q -57.474609375 6.7140625 -57.45 6.7
L -56.85 6.2 -56.2 5.95
Q -56.0994140625 5.9177734375 -56.05 5.85 -55.95625 5.7615234375 -55.95 5.65 -55.8818359375 5.6384765625 -55.8 5.55
L -55.75 5.55 -55 4.95
Q -54.94609375 4.9154296875 -54.9 4.85
L -54.3 4.1
Q -51.9869140625 5.4603515625 -49.7 5.65
L -49.7 5.65
Q -47.591796875 5.7640625 -46.5 4.7
L -46.45 4.7
Q -45.4828125 3.83828125 -45.15 1.75 -44.68515625 -1.4384765625 -45.75 -4.6
L -45.75 -4.65
Q -46.8162109375 -7.7783203125 -49.1 -10.05 -50.011328125 -10.9697265625 -50.95 -11.4
L -50.95 -11.4
Q -51.78515625 -11.7921875 -54.65 -11.8 -56.6640625 -11.90078125 -57.65 -12
L -57.7 -12
Q -59.5853515625 -12.10625 -60.9 -11.9 -62.178515625 -11.7255859375 -63.8 -11.15 -63.9416015625 -11.283984375 -64.35 -11.55 -64.373046875 -11.55390625 -64.45 -11.6 -66.068359375 -12.1796875 -67.2 -12.45
L -67.2 -12.45 -68.25 -12.65
M -65.55 -6.3
Q -65.4865234375 -6.3037109375 -65.45 -6.35 -62.095703125 -8.3103515625 -59.4 -8.7 -58.354296875 -8.8455078125 -55.5 -8.75 -53.991796875 -8.6525390625 -53.55 -8.5 -52.6529296875 -8.1546875 -51.85 -7.45
L -51.85 -7.45
Q -50.2107421875 -5.888671875 -49 -3.2 -48.3029296875 -1.65625 -48.25 -0.7
L -48.25 -0.65
Q -48.08203125 0.768359375 -48.8 1.65
L -48.8 1.7
Q -49.11328125 2.1552734375 -49.55 2.2 -49.8626953125 2.2166015625 -50.25 2
L -50.25 2
Q -50.825 1.625 -51.15 1.4 -52.7892578125 0.37265625 -54.7 0.65 -54.85625 0.6806640625 -55 0.8
L -55 0.85 -56.25 0.8
Q -56.3564453125 0.7939453125 -56.5 0.85 -56.59609375 0.9142578125 -56.7 1 -57.2701171875 1.9013671875 -58.05 2.5
L -58.65 2.95 -61 4.35 -62.3 4.85
Q -62.416015625 4.9390625 -62.5 5.05 -62.5939453125 5.1998046875 -62.6 5.35
L -62.6 5.8 -63.05 5.8
Q -63.1845703125 5.8025390625 -63.3 5.85 -63.42578125 5.9375 -63.5 6.05 -63.56015625 6.1791015625 -63.55 6.3 -63.4609375 9.4390625 -64.25 10.9
L -64.25 10.9
Q -64.7244140625 11.705078125 -65.65 12.35 -66.4001953125 12.90625 -67.05 12.9
L -67.1 12.9
Q -67.4142578125 12.8328125 -67.95 12.45
L -68 12.4
Q -69.509765625 11.3935546875 -70.4 9.25 -71.064453125 7.7060546875 -71.3 5.2 -71.82734375 0.056640625 -69.9 -3 -69.515234375 -3.544140625 -69.15 -3.65
L -69.15 -3.7
Q -68.976953125 -3.6759765625 -68.4 -3.55
L -68.45 -3.6
Q -67.158984375 -3.1931640625 -65.6 -3.35 -65.4068359375 -3.37578125 -65.3 -3.55 -65.148046875 -3.662890625 -65.15 -3.85
L -65.15 -5.8
Q -65.146875 -5.9494140625 -65.25 -6.1 -65.3107421875 -6.194921875 -65.45 -6.25 -65.485546875 -6.2666015625 -65.55 -6.3
M -54.8 -2.45
L -54.8 -0.35
Q -54.7982421875 -0.1447265625 -54.65 0 -54.5052734375 0.1482421875 -54.3 0.15
L -52.35 0.15
Q -52.1447265625 0.1482421875 -52 0 -51.8517578125 -0.1447265625 -51.85 -0.35
L -51.85 -2.4
Q -51.85390625 -2.6033203125 -52 -2.75 -52.1322265625 -2.8953125 -52.35 -2.9
L -54.3 -2.95
Q -54.42109375 -2.947265625 -54.55 -2.9 -54.6625 -2.8130859375 -54.75 -2.7 -54.7970703125 -2.5833984375 -54.8 -2.45
M -55.95 -4.55
L -57.6 -4.6
Q -58.2076171875 -4.6013671875 -58.5 -4.45 -58.60078125 -4.3787109375 -58.7 -4.25 -58.75 -4.13515625 -58.75 -4
L -58.75 -1.95
Q -58.74609375 -1.7466796875 -58.6 -1.6 -58.4552734375 -1.4546875 -58.25 -1.45
L -56.25 -1.4
Q -56.1314453125 -1.39609375 -56.05 -1.45
L -55.75 -1.6
Q -55.5994140625 -1.6587890625 -55.55 -1.8 -55.45 -1.90234375 -55.45 -2.05
L -55.45 -4.05
Q -55.4544921875 -4.2533203125 -55.6 -4.4 -55.73203125 -4.5447265625 -55.95 -4.55
M -51.2 -6.3
L -53.2 -6.3
Q -53.4052734375 -6.2982421875 -53.55 -6.15 -53.6982421875 -6.0052734375 -53.7 -5.8
L -53.7 -3.7
Q -53.6982421875 -3.4947265625 -53.55 -3.35 -53.4052734375 -3.2017578125 -53.2 -3.2
L -51.2 -3.2
Q -50.9947265625 -3.2017578125 -50.85 -3.35 -50.7017578125 -3.4947265625 -50.7 -3.7
L -50.7 -5.8
Q -50.7017578125 -6.0052734375 -50.85 -6.15 -50.9947265625 -6.2982421875 -51.2 -6.3
M -54.3 -7.6
Q -54.30390625 -7.8033203125 -54.45 -7.95 -54.5943359375 -8.0955078125 -54.8 -8.1
L -56.9 -8.15
Q -57.033203125 -8.147265625 -57.15 -8.1 -57.2625 -8.0130859375 -57.35 -7.9 -57.3970703125 -7.7833984375 -57.4 -7.65
L -57.4 -5.7
Q -57.39609375 -5.4966796875 -57.25 -5.35 -57.1056640625 -5.2044921875 -56.9 -5.2
L -54.8 -5.15
Q -54.6669921875 -5.152734375 -54.55 -5.25 -54.4375 -5.2869140625 -54.4 -5.4 -54.3029296875 -5.5166015625 -54.3 -5.65
L -54.3 -7.6
M -68.6 -0.4
Q -68.6384765625 -0.2912109375 -68.65 -0.2
L -68.7 0.2 -68.7 1.95
Q -68.703515625 2.1505859375 -68.6 2.3 -68.4427734375 2.438671875 -68.25 2.45 -67.347265625 2.5279296875 -66.75 2.4 -66.5689453125 2.719921875 -66.3 2.8 -66.2255859375 2.8443359375 -66.2 2.85
L -65.85 2.9
Q -65.7873046875 2.9025390625 -65.75 2.9
L -64.1 2.9
Q -63.9501953125 2.9046875 -63.85 2.8 -63.703515625 2.7404296875 -63.65 2.6 -63.580859375 2.45390625 -63.6 2.3 -63.63828125 2.0947265625 -63.6 1.55 -63.565625 1.1107421875 -63.6 0.75 -63.080078125 0.4970703125 -63.05 0.3 -63.0115234375 0.241015625 -63 0.15
L -62.95 -0.25 -62.95 -1.8
Q -62.946484375 -2.00078125 -63.1 -2.15 -63.2064453125 -2.288671875 -63.4 -2.3 -64.666015625 -2.4080078125 -65.3 -2.3 -65.402734375 -2.378515625 -65.55 -2.4
L -65.9 -2.45 -67.6 -2.5
Q -67.736328125 -2.5068359375 -67.9 -2.45 -67.99765625 -2.3416015625 -68.05 -2.2 -68.1203125 -2.054296875 -68.1 -1.9 -68.0607421875 -1.6787109375 -68.1 -1
L -68.1 -0.95
Q -68.1 -0.908984375 -68.1 -0.9 -68.4501953125 -0.6896484375 -68.6 -0.4
M 59.8 -11.4
L 59.8 -11.4
Q 58.0814453125 -10.6650390625 57.15 -9.65
L 57.15 -9.6
Q 56.1646484375 -8.29375 56 -6.55 55.88828125 -5.352734375 56.3 -4.5
L 56.3 -4.5
Q 56.977734375 -2.961328125 59.9 -1.95 65.5400390625 0.203125 67.75 3.55 68.331640625 4.425390625 68.35 5.1 68.3478515625 5.1373046875 68.35 5.15 68.424609375 5.761328125 68.05 6.35 68.0611328125 6.375390625 68.05 6.4 66.855859375 8.98359375 63.55 10.4
L 63.5 10.4
Q 62.14453125 11.0740234375 61.25 10.7 60.11953125 10.087109375 60.2 8.05 60.2134765625 7.859765625 60.05 7.7 59.932421875 7.551171875 59.7 7.55
L 57.7 7.5
Q 57.578515625 7.4998046875 57.45 7.55 57.3220703125 7.6484375 57.25 7.75 57.187109375 7.8916015625 57.2 8 57.2486328125 8.807421875 57.2 10.3
L 57.2 10.35
Q 57.2017578125 12.0697265625 58 12.85
L 58.05 12.9
Q 58.955859375 13.933203125 60.85 14.05 63.2775390625 14.257421875 65.5 13.4 67.8955078125 12.5845703125 69.45 10.9
L 69.45 10.85
Q 71.1228515625 9.027734375 71.55 6.65 72.0263671875 4.0732421875 71 1.9
L 71 1.95
Q 70.433984375 0.6794921875 69 -0.85
L 69 -0.85
Q 66.680859375 -3.0669921875 64 -4.2
L 63.95 -4.25
Q 62.1912109375 -4.8615234375 61.35 -5.2 60.22265625 -5.706640625 59.45 -6.35 60.479296875 -7.862890625 62.2 -8.55 64.1041015625 -9.2095703125 66.05 -8.5
L 66.05 -8.5 67.35 -7.95
Q 67.3748046875 -7.9369140625 67.4 -7.95 68.59296875 -7.5390625 69.95 -7.7 70.1033203125 -7.7255859375 70.2 -7.85 70.3330078125 -7.9142578125 70.35 -8.05 70.415625 -8.18671875 70.35 -8.35 70.3513671875 -8.497265625 70.4 -9.3 70.45859375 -10.1650390625 70.05 -10.6 69.76171875 -10.9677734375 69.1 -11.25 63.9818359375 -12.993359375 59.8 -11.4
M 37.95 -7.5
Q 37.86953125 -7.43515625 37.8 -7.4 37.66015625 -7.2302734375 37.65 -7.05 37.5390625 -5.6498046875 38.1 -2.2 38.3978515625 0.09375 38.4 3.45
L 38.4 3.45
Q 38.449609375 5.365625 38.4 9.15 38.3943359375 11.310546875 38.7 12.75 38.708984375 12.7873046875 38.7 12.8
L 38.9 13.3
Q 38.9703125 13.4234375 39.05 13.5 39.1265625 13.5796875 39.2 13.6
L 39.7 13.8
Q 39.7615234375 13.8412109375 39.8 13.85 40.6341796875 14.0216796875 41.8 13.8
L 41.8 13.75
Q 42.425 13.625 43.6 13.3
L 43.6 13.35
Q 45.2998046875 13.0134765625 48.75 13.35 52.3865234375 13.7115234375 54.1 13.4 54.3060546875 13.3662109375 54.4 13.2 54.5458984375 13.0826171875 54.55 12.9
L 54.55 10.8
Q 54.551171875 10.6822265625 54.5 10.55 54.4453125 10.4705078125 54.35 10.4 52.503125 9.0041015625 50.35 9.55 50.2072265625 9.6169921875 50.1 9.75 49.998046875 9.882421875 50 10.05
L 50 10.2
Q 46.0560546875 9.9361328125 41.6 10.25 41.403515625 8.4751953125 41.4 4.05 41.4 3.374609375 41.4 2.75
L 41.8 2.75
Q 41.9953125 2.7482421875 42.1 2.6
L 46.9 1.95
Q 47.3375 1.93046875 47.75 1.75
L 48.3 1.5
Q 48.86953125 1.4720703125 48.95 1.1 48.983203125 1.0640625 49 1
L 49.05 0.75
Q 49.0548828125 0.6994140625 49.05 0.65
L 49.05 -1.15
Q 49.0482421875 -1.3552734375 48.9 -1.5 48.7552734375 -1.6482421875 48.55 -1.65
L 46.45 -1.65
Q 46.317578125 -1.6556640625 46.2 -1.6
L 45.65 -1.3
Q 44.862109375 -1.031640625 43.7 -0.85
L 41.3 -0.55
Q 41.2283203125 -3.479296875 40.85 -5.8 40.9720703125 -5.785546875 41.05 -5.8 41.0751953125 -5.81171875 41.1 -5.85
L 41.6 -6 41.6 -6
Q 42.2578125 -6.201953125 42.8 -6.25
L 42.8 -6.25
Q 44.3494140625 -6.4830078125 47.1 -6.7
L 47.15 -6.65
Q 47.2947265625 -6.5046875 47.5 -6.5
L 49.5 -6.45
Q 49.6484375 -6.4462890625 49.75 -6.55 50.4048828125 -6.8638671875 50.4 -7.95
L 50.35 -9.6
Q 50.3396484375 -9.7638671875 50.2 -9.9 50.065625 -10.0388671875 49.85 -10.05 48.221875 -10.15546875 47.4 -10.05
L 47.35 -10.05 46.45 -9.9
Q 46.1734375 -9.8494140625 43.1 -9.55 41.267578125 -9.350390625 40.3 -9.15
L 38.35 -8.75
Q 38.1822265625 -8.7138671875 38.05 -8.6 37.955859375 -8.4322265625 37.95 -8.25
L 37.95 -7.5
M 17.55 -8.7
Q 17.0048828125 -9.477734375 16.6 -9.65 16.48984375 -9.7513671875 15.8 -9.75
L 14.65 -9.75
Q 13.987109375 -9.75 13.7 -9.5 13.2658203125 -9.2111328125 13.25 -8.4
L 13.25 -8.35
Q 12.1025390625 2.2455078125 11.5 12.05 11.3556640625 12.844140625 11.65 13.25
L 11.7 13.3
Q 12.0482421875 13.8955078125 13.15 13.75
L 13.15 13.75
Q 13.9009765625 13.6673828125 14.15 13.7 14.31171875 13.780859375 14.45 13.7 14.634765625 13.668359375 14.7 13.5 14.81640625 13.375390625 14.8 13.2 14.6541015625 11.5427734375 14.85 9.2
L 14.85 9.15
Q 15.2896484375 2.3751953125 15.9 -3.7 18.9775390625 2.2142578125 21.3 9 21.373046875 9.166015625 21.5 9.25 21.63515625 9.3466796875 21.8 9.35
L 24.1 9.35
Q 24.250390625 9.355859375 24.35 9.25 24.5103515625 9.1775390625 24.55 9 25.5462890625 6.55625 29.5 -2.9 30.0046875 -0.7806640625 30.4 2.4 31.0123046875 7.29921875 31.5 9.35
L 31.5 9.3
Q 31.644921875 10.321875 32.2 10.55
L 32.15 10.55
Q 32.5755859375 10.870703125 33.45 10.8 34.0728515625 10.726953125 34.25 10.75 34.408984375 10.8337890625 34.55 10.8 34.710546875 10.7650390625 34.8 10.65 34.929296875 10.5318359375 34.95 10.35 35.1109375 9.2099609375 34.75 8.1
L 34.4 6.9 34.4 6.85
Q 34.2376953125 6.344921875 33.9 4.1
L 33.2 -1.4
Q 32.7994140625 -3.943359375 32.6 -4.9
L 32.55 -4.9
Q 32.1189453125 -6.923046875 31.35 -8.4 31.2736328125 -8.5244140625 31.1 -8.6 30.967578125 -8.6771484375 30.8 -8.65 30.576171875 -8.609765625 29.7 -8.65 28.675 -8.775 28.2 -8.35 27.8322265625 -8.01171875 27.55 -7.4
L 27.6 -7.4
Q 25.192578125 -2.1912109375 23.05 3.25 20.0123046875 -3.976953125 17.6 -8.65 17.576171875 -8.6505859375 17.55 -8.7
M 2.95 -9.65
L 2.95 -9.6
Q 2.777734375 -10.273046875 2.3 -10.6 2.0474609375 -10.8185546875 1.25 -10.95 -0.3755859375 -11.20625 -0.95 -10.45 -0.9509765625 -10.399609375 -1 -10.4 -1.095703125 -10.21015625 -1.4 -9.3 -1.389453125 -9.2623046875 -1.4 -9.25 -1.7921875 -6.9533203125 -3.15 -2.55
L -3.15 -2.55
Q -3.6380859375 -0.4474609375 -4.15 3.7 -4.1828125 4.0615234375 -4.25 4.4 -4.2828125 4.4365234375 -4.35 4.45 -4.517578125 4.4853515625 -4.65 4.6 -4.74453125 4.76796875 -4.75 4.95
L -4.75 6.95
Q -4.7482421875 7.1552734375 -4.6 7.3 -4.5736328125 7.326953125 -4.55 7.35 -5.00546875 11.9685546875 -5.1 14.05 -5.1107421875 14.2080078125 -5.05 14.3 -4.9767578125 14.45 -4.85 14.5 -4.733984375 14.598046875 -4.6 14.6
L -2.65 14.6
Q -2.4646484375 14.599609375 -2.35 14.45 -2.17890625 14.355859375 -2.15 14.15
L -1.25 7.25 -0.1 6.95 -0.1 7
Q 1.984375 6.626953125 4.9 6.35 5.7041015625 9.2568359375 6.3 12 6.4435546875 12.7802734375 6.8 13.1
L 6.8 13.1
Q 7.2224609375 13.512890625 8.15 13.45
L 8.2 13.45
Q 8.85 13.3681640625 9.1 13.4 9.237109375 13.4673828125 9.35 13.4 9.52109375 13.3865234375 9.6 13.25 9.7259765625 13.1677734375 9.75 13 9.9669921875 11.6923828125 9.4 9.8
L 9.4 9.8
Q 8.825 7.850390625 8.5 6.85 8.3591796875 6.1306640625 8.2 5.5 8.2494140625 5.4638671875 8.25 5.4
L 8.25 3.65
Q 8.2548828125 3.6005859375 8.25 3.55
L 8.2 3.3
Q 8.1638671875 3.1548828125 8.05 3.05 7.9451171875 2.9361328125 7.8 2.9
L 7.55 2.85 7.5 2.85
Q 7.1830078125 1.5296875 6.65 0.1 5.12578125 -4.3865234375 2.95 -9.65
M 7.6 3.1
L 7.6 3.2
Q 7.5966796875 3.1580078125 7.55 3.1
L 7.6 3.1
M 1.05 -4.75
L 2.5 -1.05
Q 3.3150390625 1.1591796875 4 3.25 3.446484375 3.31796875 2.8 3.35
L 2.8 3.35
Q 0.6470703125 3.5501953125 0.2 3.6 -0.3173828125 3.6587890625 -0.85 3.7
L -0.5 1.2
Q -0.114453125 -0.9912109375 1.05 -4.75 Z"/>
</g>
</defs>

<g transform="matrix( 1, 0, 0, 1, 83.4,26) ">
<g transform="matrix( 1, 0, 0, 1, 0,0) ">
<use xlink:href="#games_0_Layer0_0_FILL"/>
</g>
</g>
</svg>
