
<svg xmlns="http://www.w3.org/2000/svg" version="1.1" xmlns:xlink="http://www.w3.org/1999/xlink" preserveAspectRatio="none" x="0px" y="0px" width="141px" height="110px" viewBox="0 0 141 110">
<defs>
<g id="Layer0_0_FILL">
<path fill="#FFFFFF" fill-opacity="0.24705882352941178" stroke="none" d="
M 128.55 39.95
Q 125.75 37.55 122.55 36.05 116.3 33.2 108.7 33.8 109.15 30.15 107.65 26.25 106.25 22.7 103.65 19.5 98.85 13.45 91.15 9.6 83.75 6 75.65 5.45 67.75 4.95 59.75 7.35 52.05 9.75 45.35 14.55 41.1 17.6 39.25 20.8 37.6 23.8 37.15 28.65 36.6 36.15 39.6 40.15 26.5 42.95 13.5 54.3 9.7 57.65 8.15 60.4 7.1 62.5 6.65 64.65 6.2 66.25 5.9 69.05 5.3 74.35 6.15 77.55 7.35 81.9 11.1 85.05 14.8 88 19.35 88.8 20.85 89.05 25.75 89.3 29.5 89.45 32.05 90.1 31 94.4 31 96.5 31.05 100.2 33.3 102.45 35.15 104.25 38.55 104.6 44.1 105.25 49.9 102.15 54.45 99.6 56.7 95.85 57.9 93.75 58.2 91.4 59.9 92.1 61.5 92.5 71 95.15 81.3 93.95 89.85 92.8 97.2 89.35 96.95 90.05 96.9 90.75 96.9 92.7 97.8 94.55 98.75 96.35 100.3 97.65 103.15 99.9 107.7 100.5 111.3 100.95 113.9 100.05 116.2 99.3 118.15 97.5 120 95.9 121.2 93.45 123.3 89.25 123 83.65
L 123 82.1
Q 123.1 81.25 123.4 80.7 123.9 80.1 124.3 79.85
L 125.3 79.2
Q 128.25 77.45 130.45 74.8 132.75 71.95 133.85 68.8 134.85 65.8 135.15 61.55 135.9 51.7 132.8 45.6 131.25 42.55 128.55 39.95
M 84.3 12.2
Q 89.15 14.35 94.05 18.25 100.15 23.2 102.7 28.5 103.95 31.05 103.95 33.15 103.85 34.5 103.4 36.35 102.95 38.3 103.05 39.5 104.75 40.25 107.35 39.55
L 111.9 38.35
Q 114.75 38.1 118.2 39.8 123.8 42.45 127.2 47.65 130.7 52.95 130.7 58.95 130.65 65.1 126.75 70.15 122.75 75.35 116.9 76.55 116 78.15 116.95 80.7
L 118.4 84.75
Q 119 88.7 114.45 92.95 111.9 95.3 109.75 95.65 107.5 95.9 105.55 94.5 103.7 93.25 102.55 91.05 101.6 89.2 101.15 88.65 100.7 88.15 100.2 87.8 104.85 85.2 107.3 82.25 111.85 76.85 112.45 66.45 112.8 61.2 111.75 58 110.7 55 107.35 51.15 103.75 47.05 100.65 45.15 98.35 43.9 94.65 42.75 90.75 41.7 88.3 40.85 84.6 39.35 82.9 38.95 76.1 37.15 67.15 40.75 59.8 43.65 54.75 48.4 49.2 53.85 46.85 61.45 44.45 69.1 45.95 76.65 47.25 83.35 51.1 87.05 52.4 88.5 54.35 89.55
L 54.05 90.35
Q 53.15 92.25 51.85 93.55 50.6 94.9 48.85 96.05
L 45.55 98.1
Q 43.65 99.1 43 99.3 41.55 99.85 40.4 99.8 38.65 99.65 37.35 98.4 36.05 97.2 35.9 95.4 35.75 93.75 36.8 92.25 37.85 90.7 39.55 90.3
L 39.9 86.25
Q 37.05 85.85 32.35 85.55 27.3 85.25 24.8 84.8 20.5 84.1 17.55 82.45 13.85 80.5 12 77.45 10.85 75.5 10.5 73.45 10.15 71.3 10.5 69.1 11.2 65.6 13.85 62.3 15.95 59.85 19.6 56.9 27 50.95 33.05 48.05 41.05 44.25 48.75 44.8
L 49.1 40.4
Q 45.4 38.25 43.4 35.25 42.3 33.45 41.95 31.65 41.45 29.6 41.9 27.8 42.8 23.35 49 19.2 54.85 15.15 61.8 12.5 68.25 10 73.3 9.9 78.75 9.85 84.3 12.2
M 86 44.35
Q 86.3 45.4 87.7 46.2 88.3 46.5 90.35 47.1 97.15 48.95 103.3 56.3 105.55 59.05 106.7 61.65 107.8 64.6 107.5 67.75 107.2 70.9 105.8 73.7 103.15 78.85 97.25 82.65 93.8 84.7 89.05 86.5 76.9 91.05 67.45 89.3 61.85 88.25 57.35 84.9 52.55 81.25 50.85 76.25 49.25 71.7 50.3 66.55 51.2 61.75 54.15 57.5 59.25 50.35 69.75 45.6 74.25 43.5 77.75 43.05 82.5 42.45 86 44.35
M 73.8 57.65
Q 73.4 57.2 72.4 57.25 71.3 57.35 70.9 57.25 70.8 57.8 70.8 59.3
L 70.9 61.4 70.65 65.65
Q 70.45 68.15 70.6 69.85
L 73.8 69.95
Q 74.4 64.25 74 58.55 74 57.9 73.8 57.65
M 83.05 57.2
Q 82.55 56.65 81.6 56.85 80.5 57 80.1 56.85
L 80.15 66.15
Q 80.15 68.3 80.45 69.25
L 83.65 69.35 83.55 66.25
Q 83.3 61.1 83.3 58.4 83.3 57.55 83.05 57.2 Z"/>
</g>
</defs>

<g transform="matrix( 1, 0, 0, 1, 0,0) ">
<use xlink:href="#Layer0_0_FILL"/>
</g>
</svg>
