
<svg xmlns="http://www.w3.org/2000/svg" version="1.1" xmlns:xlink="http://www.w3.org/1999/xlink" preserveAspectRatio="none" x="0px" y="0px" width="1882px" height="1125px" viewBox="0 0 1882 1125">
<defs>
<g id="ayo_can_i_get_some_head_0_Layer0_0_FILL">
<path fill="#FFFFFF" fill-opacity="0.4" stroke="none" d="
M 33.55 -73.75
Q 21.6 -79.7 8.4 -80.55 -4.5 -81.35 -17.45 -77.4 -29.95 -73.5 -40.8 -65.7 -47.85 -60.65 -50.7 -55.55 -53.4 -50.75 -54.1 -42.8 -55.05 -30.75 -50.15 -24.2 -71.35 -19.65 -92.55 -1.15 -98.7 4.25 -101.2 8.75 -102.75 11.65 -103.7 15.6 -104.35 18.35 -104.9 22.75 -105.85 31.5 -104.45 36.6 -102.55 43.65 -96.4 48.75 -90.5 53.55 -83 54.85 -80.25 55.35 -72.65 55.65 -66.15 55.95 -62.45 57 -64.15 63.85 -64.1 67.4 -63.95 73.55 -60.4 77 -57.4 79.9 -51.85 80.55 -42.7 81.55 -33.45 76.5 -26 72.45 -22.4 66.3 -20.45 62.9 -19.95 59.1 -17.45 60.1 -14.55 60.9 1.05 65.2 17.55 63.2 31.25 61.45 43.4 55.75 43 56.8 42.95 58.05 42.85 61.2 44.4 64.2 45.9 67.1 48.45 69.2 53.1 72.9 60.45 73.85 66.3 74.55 70.5 73.15 74.3 71.9 77.45 69 80.45 66.25 82.35 62.45 85.8 55.6 85.35 46.5 85.3 44.7 85.3 44 85.45 42.6 86 41.7 86.5 40.95 87.4 40.35 87.65 40.15 89.05 39.3 93.85 36.45 97.45 32.1 101.1 27.65 102.9 22.4 104.55 17.6 105.05 10.6 106.25 -5.5 101.2 -15.3 98.65 -20.35 94.3 -24.45 90 -28.3 84.6 -30.8 74.45 -35.4 62.05 -34.45 62.8 -40.4 60.35 -46.75 58.2 -52.3 53.9 -57.7 45.8 -67.75 33.55 -73.75
M 4.6 -73.3
Q 13.3 -73.45 22.45 -69.55 30.45 -66.05 38.25 -59.7 48.2 -51.65 52.35 -43.05 54.35 -38.8 54.35 -35.5 54.3 -33.9 53.5 -30.3 52.75 -27.05 52.9 -25.2 55.55 -23.95 59.9 -25.1 66.95 -27.05 67.25 -27.05 71.8 -27.5 77.5 -24.75 86.5 -20.45 92.15 -12 97.85 -3.3 97.8 6.4 97.75 16.3 91.4 24.6 84.9 33 75.4 35 73.9 37.55 75.45 41.7 75.85 42.8 76.75 44.95 77.55 46.9 77.8 48.25 78.8 54.7 71.45 61.6 67.3 65.4 63.75 65.95 60.3 66.4 56.95 64.1 53.95 62 52.1 58.5 50.65 55.65 49.8 54.6 49 53.7 48.25 53.25 55.75 49.05 59.85 44.25 67.15 35.5 68.2 18.55 68.75 9.95 67 4.85 65.3 -0.2 59.9 -6.3 54.2 -12.9 49 -16 45.25 -18.15 39.25 -19.9 32.35 -21.8 28.95 -23 23.25 -25.35 20.2 -26.1 9.15 -29 -5.4 -23.15 -17.45 -18.4 -25.5 -10.75 -34.5 -2.05 -38.4 10.4 -42.25 22.85 -39.85 35.15 -37.75 45.85 -31.5 52.05 -29.35 54.35 -26.15 56.1 -26.4 56.7 -26.7 57.35 -27.95 60.2 -30.25 62.6 -32.25 64.65 -35.1 66.65 -36.95 67.9 -40.5 69.95 -43.05 71.35 -44.6 71.95 -46.85 72.8 -48.85 72.7 -51.65 72.55 -53.8 70.45 -55.95 68.35 -56.15 65.6 -56.4 62.85 -54.7 60.45 -52.95 57.95 -50.25 57.3
L -49.7 50.75
Q -53.75 50.1 -61.9 49.6 -70.2 49.1 -74.2 48.4 -80.9 47.3 -86 44.55 -91.95 41.4 -94.95 36.45 -96.75 33.45 -97.4 29.95 -98.05 26.4 -97.4 22.9 -96.35 17.3 -91.95 11.85 -88.7 7.95 -82.6 3.05 -70.55 -6.7 -60.75 -11.3 -47.6 -17.5 -35.3 -16.6
L -34.7 -23.75
Q -40.85 -27.3 -43.95 -32.15 -45.7 -34.9 -46.35 -38 -47.1 -41.15 -46.45 -44.2 -44.9 -51.5 -34.85 -58.2 -25.15 -64.85 -14.1 -69.1 -3.45 -73.2 4.6 -73.3
M 11.85 -19.45
Q 19.4 -20.45 25.2 -17.35 25.75 -15.5 28 -14.35 29.1 -13.8 32.3 -12.9 43.35 -9.85 53.3 2.1 57.2 6.85 58.8 10.75 60.6 15.35 60.15 20.7 59.7 25.7 57.35 30.35 53.1 38.65 43.5 44.85 38 48.2 30.2 51.15 10.3 58.5 -4.9 55.7 -14.15 53.95 -21.3 48.5 -29.05 42.65 -31.85 34.5 -34.45 27.2 -32.8 18.75 -31.3 10.85 -26.5 4 -18.2 -7.65 -1.2 -15.3 6.1 -18.7 11.85 -19.45
M 5.75 5.75
Q 5.75 4.75 5.4 4.3 4.85 3.5 3.15 3.6 1.25 3.8 0.7 3.6 0.5 4.95 0.55 6.95 0.6 8.1 0.7 10.35 0.7 12.1 0.3 17.25 -0.05 21.55 0.2 24.1
L 5.4 24.25
Q 6.35 14.7 5.75 5.75
M 20.85 5.5
Q 20.85 4.05 20.4 3.5 19.7 2.65 18.05 2.95 16.2 3.2 15.6 3
L 15.7 18.1
Q 15.7 21.5 16.2 23.1
L 21.4 23.25 21.2 18.2
Q 20.85 10.75 20.85 5.5 Z"/>
</g>
</defs>

<g transform="matrix( 0.823883056640625, 0, 0, 0.823883056640625, 942.75,562.5) ">
<g transform="matrix( 0.7529754638671875, 0, 0, 0.7529754638671875, -1055.75,-477.8) ">
<g transform="matrix( 1, 0, 0, 1, 0,0) ">
<use xlink:href="#ayo_can_i_get_some_head_0_Layer0_0_FILL"/>
</g>
</g>

<g transform="matrix( 0.7529754638671875, 0, 0, 0.7529754638671875, -1055.75,-341.25) ">
<g transform="matrix( 1, 0, 0, 1, 0,0) ">
<use xlink:href="#ayo_can_i_get_some_head_0_Layer0_0_FILL"/>
</g>
</g>

<g transform="matrix( 0.7529754638671875, 0, 0, 0.7529754638671875, -1055.75,-204.7) ">
<g transform="matrix( 1, 0, 0, 1, 0,0) ">
<use xlink:href="#ayo_can_i_get_some_head_0_Layer0_0_FILL"/>
</g>
</g>

<g transform="matrix( 0.7529754638671875, 0, 0, 0.7529754638671875, -1055.75,-68.1) ">
<g transform="matrix( 1, 0, 0, 1, 0,0) ">
<use xlink:href="#ayo_can_i_get_some_head_0_Layer0_0_FILL"/>
</g>
</g>

<g transform="matrix( 0.7529754638671875, 0, 0, 0.7529754638671875, -1055.75,68.1) ">
<g transform="matrix( 1, 0, 0, 1, 0,0) ">
<use xlink:href="#ayo_can_i_get_some_head_0_Layer0_0_FILL"/>
</g>
</g>

<g transform="matrix( 0.7529754638671875, 0, 0, 0.7529754638671875, -1055.75,204.7) ">
<g transform="matrix( 1, 0, 0, 1, 0,0) ">
<use xlink:href="#ayo_can_i_get_some_head_0_Layer0_0_FILL"/>
</g>
</g>

<g transform="matrix( 0.7529754638671875, 0, 0, 0.7529754638671875, -1055.75,341.25) ">
<g transform="matrix( 1, 0, 0, 1, 0,0) ">
<use xlink:href="#ayo_can_i_get_some_head_0_Layer0_0_FILL"/>
</g>
</g>

<g transform="matrix( 0.7529754638671875, 0, 0, 0.7529754638671875, -1055.75,477.8) ">
<g transform="matrix( 1, 0, 0, 1, 0,0) ">
<use xlink:href="#ayo_can_i_get_some_head_0_Layer0_0_FILL"/>
</g>
</g>

<g transform="matrix( 0.7529754638671875, 0, 0, 0.7529754638671875, -1055.75,614.35) ">
<g transform="matrix( 1, 0, 0, 1, 0,0) ">
<use xlink:href="#ayo_can_i_get_some_head_0_Layer0_0_FILL"/>
</g>
</g>

<g transform="matrix( 0.7529754638671875, 0, 0, 0.7529754638671875, -1055.75,-614.35) ">
<g transform="matrix( 1, 0, 0, 1, 0,0) ">
<use xlink:href="#ayo_can_i_get_some_head_0_Layer0_0_FILL"/>
</g>
</g>

<g transform="matrix( 0.7529754638671875, 0, 0, 0.7529754638671875, -880.25,-477.8) ">
<g transform="matrix( 1, 0, 0, 1, 0,0) ">
<use xlink:href="#ayo_can_i_get_some_head_0_Layer0_0_FILL"/>
</g>
</g>

<g transform="matrix( 0.7529754638671875, 0, 0, 0.7529754638671875, -880.25,-341.25) ">
<g transform="matrix( 1, 0, 0, 1, 0,0) ">
<use xlink:href="#ayo_can_i_get_some_head_0_Layer0_0_FILL"/>
</g>
</g>

<g transform="matrix( 0.7529754638671875, 0, 0, 0.7529754638671875, -880.25,-204.7) ">
<g transform="matrix( 1, 0, 0, 1, 0,0) ">
<use xlink:href="#ayo_can_i_get_some_head_0_Layer0_0_FILL"/>
</g>
</g>

<g transform="matrix( 0.7529754638671875, 0, 0, 0.7529754638671875, -880.25,-68.1) ">
<g transform="matrix( 1, 0, 0, 1, 0,0) ">
<use xlink:href="#ayo_can_i_get_some_head_0_Layer0_0_FILL"/>
</g>
</g>

<g transform="matrix( 0.7529754638671875, 0, 0, 0.7529754638671875, -880.25,68.1) ">
<g transform="matrix( 1, 0, 0, 1, 0,0) ">
<use xlink:href="#ayo_can_i_get_some_head_0_Layer0_0_FILL"/>
</g>
</g>

<g transform="matrix( 0.7529754638671875, 0, 0, 0.7529754638671875, -880.25,204.7) ">
<g transform="matrix( 1, 0, 0, 1, 0,0) ">
<use xlink:href="#ayo_can_i_get_some_head_0_Layer0_0_FILL"/>
</g>
</g>

<g transform="matrix( 0.7529754638671875, 0, 0, 0.7529754638671875, -880.25,341.25) ">
<g transform="matrix( 1, 0, 0, 1, 0,0) ">
<use xlink:href="#ayo_can_i_get_some_head_0_Layer0_0_FILL"/>
</g>
</g>

<g transform="matrix( 0.7529754638671875, 0, 0, 0.7529754638671875, -880.25,477.8) ">
<g transform="matrix( 1, 0, 0, 1, 0,0) ">
<use xlink:href="#ayo_can_i_get_some_head_0_Layer0_0_FILL"/>
</g>
</g>

<g transform="matrix( 0.7529754638671875, 0, 0, 0.7529754638671875, -880.25,614.35) ">
<g transform="matrix( 1, 0, 0, 1, 0,0) ">
<use xlink:href="#ayo_can_i_get_some_head_0_Layer0_0_FILL"/>
</g>
</g>

<g transform="matrix( 0.7529754638671875, 0, 0, 0.7529754638671875, -880.25,-614.35) ">
<g transform="matrix( 1, 0, 0, 1, 0,0) ">
<use xlink:href="#ayo_can_i_get_some_head_0_Layer0_0_FILL"/>
</g>
</g>

<g transform="matrix( 0.7529754638671875, 0, 0, 0.7529754638671875, -704.65,-477.8) ">
<g transform="matrix( 1, 0, 0, 1, 0,0) ">
<use xlink:href="#ayo_can_i_get_some_head_0_Layer0_0_FILL"/>
</g>
</g>

<g transform="matrix( 0.7529754638671875, 0, 0, 0.7529754638671875, -704.65,-341.25) ">
<g transform="matrix( 1, 0, 0, 1, 0,0) ">
<use xlink:href="#ayo_can_i_get_some_head_0_Layer0_0_FILL"/>
</g>
</g>

<g transform="matrix( 0.7529754638671875, 0, 0, 0.7529754638671875, -704.65,-204.7) ">
<g transform="matrix( 1, 0, 0, 1, 0,0) ">
<use xlink:href="#ayo_can_i_get_some_head_0_Layer0_0_FILL"/>
</g>
</g>

<g transform="matrix( 0.7529754638671875, 0, 0, 0.7529754638671875, -704.65,-68.1) ">
<g transform="matrix( 1, 0, 0, 1, 0,0) ">
<use xlink:href="#ayo_can_i_get_some_head_0_Layer0_0_FILL"/>
</g>
</g>

<g transform="matrix( 0.7529754638671875, 0, 0, 0.7529754638671875, -704.65,68.1) ">
<g transform="matrix( 1, 0, 0, 1, 0,0) ">
<use xlink:href="#ayo_can_i_get_some_head_0_Layer0_0_FILL"/>
</g>
</g>

<g transform="matrix( 0.7529754638671875, 0, 0, 0.7529754638671875, -704.65,204.7) ">
<g transform="matrix( 1, 0, 0, 1, 0,0) ">
<use xlink:href="#ayo_can_i_get_some_head_0_Layer0_0_FILL"/>
</g>
</g>

<g transform="matrix( 0.7529754638671875, 0, 0, 0.7529754638671875, -704.65,341.25) ">
<g transform="matrix( 1, 0, 0, 1, 0,0) ">
<use xlink:href="#ayo_can_i_get_some_head_0_Layer0_0_FILL"/>
</g>
</g>

<g transform="matrix( 0.7529754638671875, 0, 0, 0.7529754638671875, -704.65,477.8) ">
<g transform="matrix( 1, 0, 0, 1, 0,0) ">
<use xlink:href="#ayo_can_i_get_some_head_0_Layer0_0_FILL"/>
</g>
</g>

<g transform="matrix( 0.7529754638671875, 0, 0, 0.7529754638671875, -704.65,614.35) ">
<g transform="matrix( 1, 0, 0, 1, 0,0) ">
<use xlink:href="#ayo_can_i_get_some_head_0_Layer0_0_FILL"/>
</g>
</g>

<g transform="matrix( 0.7529754638671875, 0, 0, 0.7529754638671875, -704.65,-614.35) ">
<g transform="matrix( 1, 0, 0, 1, 0,0) ">
<use xlink:href="#ayo_can_i_get_some_head_0_Layer0_0_FILL"/>
</g>
</g>

<g transform="matrix( 0.7529754638671875, 0, 0, 0.7529754638671875, -529.1,-477.8) ">
<g transform="matrix( 1, 0, 0, 1, 0,0) ">
<use xlink:href="#ayo_can_i_get_some_head_0_Layer0_0_FILL"/>
</g>
</g>

<g transform="matrix( 0.7529754638671875, 0, 0, 0.7529754638671875, -529.1,-341.25) ">
<g transform="matrix( 1, 0, 0, 1, 0,0) ">
<use xlink:href="#ayo_can_i_get_some_head_0_Layer0_0_FILL"/>
</g>
</g>

<g transform="matrix( 0.7529754638671875, 0, 0, 0.7529754638671875, -529.1,-204.7) ">
<g transform="matrix( 1, 0, 0, 1, 0,0) ">
<use xlink:href="#ayo_can_i_get_some_head_0_Layer0_0_FILL"/>
</g>
</g>

<g transform="matrix( 0.7529754638671875, 0, 0, 0.7529754638671875, -529.1,-68.1) ">
<g transform="matrix( 1, 0, 0, 1, 0,0) ">
<use xlink:href="#ayo_can_i_get_some_head_0_Layer0_0_FILL"/>
</g>
</g>

<g transform="matrix( 0.7529754638671875, 0, 0, 0.7529754638671875, -529.1,68.1) ">
<g transform="matrix( 1, 0, 0, 1, 0,0) ">
<use xlink:href="#ayo_can_i_get_some_head_0_Layer0_0_FILL"/>
</g>
</g>

<g transform="matrix( 0.7529754638671875, 0, 0, 0.7529754638671875, -529.1,204.7) ">
<g transform="matrix( 1, 0, 0, 1, 0,0) ">
<use xlink:href="#ayo_can_i_get_some_head_0_Layer0_0_FILL"/>
</g>
</g>

<g transform="matrix( 0.7529754638671875, 0, 0, 0.7529754638671875, -529.1,341.25) ">
<g transform="matrix( 1, 0, 0, 1, 0,0) ">
<use xlink:href="#ayo_can_i_get_some_head_0_Layer0_0_FILL"/>
</g>
</g>

<g transform="matrix( 0.7529754638671875, 0, 0, 0.7529754638671875, -529.1,477.8) ">
<g transform="matrix( 1, 0, 0, 1, 0,0) ">
<use xlink:href="#ayo_can_i_get_some_head_0_Layer0_0_FILL"/>
</g>
</g>

<g transform="matrix( 0.7529754638671875, 0, 0, 0.7529754638671875, -529.1,614.35) ">
<g transform="matrix( 1, 0, 0, 1, 0,0) ">
<use xlink:href="#ayo_can_i_get_some_head_0_Layer0_0_FILL"/>
</g>
</g>

<g transform="matrix( 0.7529754638671875, 0, 0, 0.7529754638671875, -529.1,-614.35) ">
<g transform="matrix( 1, 0, 0, 1, 0,0) ">
<use xlink:href="#ayo_can_i_get_some_head_0_Layer0_0_FILL"/>
</g>
</g>

<g transform="matrix( 0.7529754638671875, 0, 0, 0.7529754638671875, -353.55,-477.8) ">
<g transform="matrix( 1, 0, 0, 1, 0,0) ">
<use xlink:href="#ayo_can_i_get_some_head_0_Layer0_0_FILL"/>
</g>
</g>

<g transform="matrix( 0.7529754638671875, 0, 0, 0.7529754638671875, -353.55,-341.25) ">
<g transform="matrix( 1, 0, 0, 1, 0,0) ">
<use xlink:href="#ayo_can_i_get_some_head_0_Layer0_0_FILL"/>
</g>
</g>

<g transform="matrix( 0.7529754638671875, 0, 0, 0.7529754638671875, -353.55,-204.7) ">
<g transform="matrix( 1, 0, 0, 1, 0,0) ">
<use xlink:href="#ayo_can_i_get_some_head_0_Layer0_0_FILL"/>
</g>
</g>

<g transform="matrix( 0.7529754638671875, 0, 0, 0.7529754638671875, -353.55,-68.1) ">
<g transform="matrix( 1, 0, 0, 1, 0,0) ">
<use xlink:href="#ayo_can_i_get_some_head_0_Layer0_0_FILL"/>
</g>
</g>

<g transform="matrix( 0.7529754638671875, 0, 0, 0.7529754638671875, -353.55,68.1) ">
<g transform="matrix( 1, 0, 0, 1, 0,0) ">
<use xlink:href="#ayo_can_i_get_some_head_0_Layer0_0_FILL"/>
</g>
</g>

<g transform="matrix( 0.7529754638671875, 0, 0, 0.7529754638671875, -353.55,204.7) ">
<g transform="matrix( 1, 0, 0, 1, 0,0) ">
<use xlink:href="#ayo_can_i_get_some_head_0_Layer0_0_FILL"/>
</g>
</g>

<g transform="matrix( 0.7529754638671875, 0, 0, 0.7529754638671875, -353.55,341.25) ">
<g transform="matrix( 1, 0, 0, 1, 0,0) ">
<use xlink:href="#ayo_can_i_get_some_head_0_Layer0_0_FILL"/>
</g>
</g>

<g transform="matrix( 0.7529754638671875, 0, 0, 0.7529754638671875, -353.55,477.8) ">
<g transform="matrix( 1, 0, 0, 1, 0,0) ">
<use xlink:href="#ayo_can_i_get_some_head_0_Layer0_0_FILL"/>
</g>
</g>

<g transform="matrix( 0.7529754638671875, 0, 0, 0.7529754638671875, -353.55,614.35) ">
<g transform="matrix( 1, 0, 0, 1, 0,0) ">
<use xlink:href="#ayo_can_i_get_some_head_0_Layer0_0_FILL"/>
</g>
</g>

<g transform="matrix( 0.7529754638671875, 0, 0, 0.7529754638671875, -353.55,-614.35) ">
<g transform="matrix( 1, 0, 0, 1, 0,0) ">
<use xlink:href="#ayo_can_i_get_some_head_0_Layer0_0_FILL"/>
</g>
</g>

<g transform="matrix( 0.7529754638671875, 0, 0, 0.7529754638671875, -177.95,-477.8) ">
<g transform="matrix( 1, 0, 0, 1, 0,0) ">
<use xlink:href="#ayo_can_i_get_some_head_0_Layer0_0_FILL"/>
</g>
</g>

<g transform="matrix( 0.7529754638671875, 0, 0, 0.7529754638671875, -177.95,-341.25) ">
<g transform="matrix( 1, 0, 0, 1, 0,0) ">
<use xlink:href="#ayo_can_i_get_some_head_0_Layer0_0_FILL"/>
</g>
</g>

<g transform="matrix( 0.7529754638671875, 0, 0, 0.7529754638671875, -177.95,-204.7) ">
<g transform="matrix( 1, 0, 0, 1, 0,0) ">
<use xlink:href="#ayo_can_i_get_some_head_0_Layer0_0_FILL"/>
</g>
</g>

<g transform="matrix( 0.7529754638671875, 0, 0, 0.7529754638671875, -177.95,-68.1) ">
<g transform="matrix( 1, 0, 0, 1, 0,0) ">
<use xlink:href="#ayo_can_i_get_some_head_0_Layer0_0_FILL"/>
</g>
</g>

<g transform="matrix( 0.7529754638671875, 0, 0, 0.7529754638671875, -177.95,68.1) ">
<g transform="matrix( 1, 0, 0, 1, 0,0) ">
<use xlink:href="#ayo_can_i_get_some_head_0_Layer0_0_FILL"/>
</g>
</g>

<g transform="matrix( 0.7529754638671875, 0, 0, 0.7529754638671875, -177.95,204.7) ">
<g transform="matrix( 1, 0, 0, 1, 0,0) ">
<use xlink:href="#ayo_can_i_get_some_head_0_Layer0_0_FILL"/>
</g>
</g>

<g transform="matrix( 0.7529754638671875, 0, 0, 0.7529754638671875, -177.95,341.25) ">
<g transform="matrix( 1, 0, 0, 1, 0,0) ">
<use xlink:href="#ayo_can_i_get_some_head_0_Layer0_0_FILL"/>
</g>
</g>

<g transform="matrix( 0.7529754638671875, 0, 0, 0.7529754638671875, -177.95,477.8) ">
<g transform="matrix( 1, 0, 0, 1, 0,0) ">
<use xlink:href="#ayo_can_i_get_some_head_0_Layer0_0_FILL"/>
</g>
</g>

<g transform="matrix( 0.7529754638671875, 0, 0, 0.7529754638671875, -177.95,614.35) ">
<g transform="matrix( 1, 0, 0, 1, 0,0) ">
<use xlink:href="#ayo_can_i_get_some_head_0_Layer0_0_FILL"/>
</g>
</g>

<g transform="matrix( 0.7529754638671875, 0, 0, 0.7529754638671875, -177.95,-614.35) ">
<g transform="matrix( 1, 0, 0, 1, 0,0) ">
<use xlink:href="#ayo_can_i_get_some_head_0_Layer0_0_FILL"/>
</g>
</g>

<g transform="matrix( 0.7529754638671875, 0, 0, 0.7529754638671875, -2.4,-477.8) ">
<g transform="matrix( 1, 0, 0, 1, 0,0) ">
<use xlink:href="#ayo_can_i_get_some_head_0_Layer0_0_FILL"/>
</g>
</g>

<g transform="matrix( 0.7529754638671875, 0, 0, 0.7529754638671875, -2.4,-341.25) ">
<g transform="matrix( 1, 0, 0, 1, 0,0) ">
<use xlink:href="#ayo_can_i_get_some_head_0_Layer0_0_FILL"/>
</g>
</g>

<g transform="matrix( 0.7529754638671875, 0, 0, 0.7529754638671875, -2.4,-204.7) ">
<g transform="matrix( 1, 0, 0, 1, 0,0) ">
<use xlink:href="#ayo_can_i_get_some_head_0_Layer0_0_FILL"/>
</g>
</g>

<g transform="matrix( 0.7529754638671875, 0, 0, 0.7529754638671875, -2.4,-68.1) ">
<g transform="matrix( 1, 0, 0, 1, 0,0) ">
<use xlink:href="#ayo_can_i_get_some_head_0_Layer0_0_FILL"/>
</g>
</g>

<g transform="matrix( 0.7529754638671875, 0, 0, 0.7529754638671875, -2.4,68.1) ">
<g transform="matrix( 1, 0, 0, 1, 0,0) ">
<use xlink:href="#ayo_can_i_get_some_head_0_Layer0_0_FILL"/>
</g>
</g>

<g transform="matrix( 0.7529754638671875, 0, 0, 0.7529754638671875, -2.4,204.7) ">
<g transform="matrix( 1, 0, 0, 1, 0,0) ">
<use xlink:href="#ayo_can_i_get_some_head_0_Layer0_0_FILL"/>
</g>
</g>

<g transform="matrix( 0.7529754638671875, 0, 0, 0.7529754638671875, -2.4,341.25) ">
<g transform="matrix( 1, 0, 0, 1, 0,0) ">
<use xlink:href="#ayo_can_i_get_some_head_0_Layer0_0_FILL"/>
</g>
</g>

<g transform="matrix( 0.7529754638671875, 0, 0, 0.7529754638671875, -2.4,477.8) ">
<g transform="matrix( 1, 0, 0, 1, 0,0) ">
<use xlink:href="#ayo_can_i_get_some_head_0_Layer0_0_FILL"/>
</g>
</g>

<g transform="matrix( 0.7529754638671875, 0, 0, 0.7529754638671875, -2.4,614.35) ">
<g transform="matrix( 1, 0, 0, 1, 0,0) ">
<use xlink:href="#ayo_can_i_get_some_head_0_Layer0_0_FILL"/>
</g>
</g>

<g transform="matrix( 0.7529754638671875, 0, 0, 0.7529754638671875, -2.4,-614.35) ">
<g transform="matrix( 1, 0, 0, 1, 0,0) ">
<use xlink:href="#ayo_can_i_get_some_head_0_Layer0_0_FILL"/>
</g>
</g>

<g transform="matrix( 0.7529754638671875, 0, 0, 0.7529754638671875, 172.9,-477.8) ">
<g transform="matrix( 1, 0, 0, 1, 0,0) ">
<use xlink:href="#ayo_can_i_get_some_head_0_Layer0_0_FILL"/>
</g>
</g>

<g transform="matrix( 0.7529754638671875, 0, 0, 0.7529754638671875, 172.9,-341.25) ">
<g transform="matrix( 1, 0, 0, 1, 0,0) ">
<use xlink:href="#ayo_can_i_get_some_head_0_Layer0_0_FILL"/>
</g>
</g>

<g transform="matrix( 0.7529754638671875, 0, 0, 0.7529754638671875, 172.9,-204.7) ">
<g transform="matrix( 1, 0, 0, 1, 0,0) ">
<use xlink:href="#ayo_can_i_get_some_head_0_Layer0_0_FILL"/>
</g>
</g>

<g transform="matrix( 0.7529754638671875, 0, 0, 0.7529754638671875, 172.9,-68.1) ">
<g transform="matrix( 1, 0, 0, 1, 0,0) ">
<use xlink:href="#ayo_can_i_get_some_head_0_Layer0_0_FILL"/>
</g>
</g>

<g transform="matrix( 0.7529754638671875, 0, 0, 0.7529754638671875, 172.9,68.1) ">
<g transform="matrix( 1, 0, 0, 1, 0,0) ">
<use xlink:href="#ayo_can_i_get_some_head_0_Layer0_0_FILL"/>
</g>
</g>

<g transform="matrix( 0.7529754638671875, 0, 0, 0.7529754638671875, 172.9,204.7) ">
<g transform="matrix( 1, 0, 0, 1, 0,0) ">
<use xlink:href="#ayo_can_i_get_some_head_0_Layer0_0_FILL"/>
</g>
</g>

<g transform="matrix( 0.7529754638671875, 0, 0, 0.7529754638671875, 172.9,341.25) ">
<g transform="matrix( 1, 0, 0, 1, 0,0) ">
<use xlink:href="#ayo_can_i_get_some_head_0_Layer0_0_FILL"/>
</g>
</g>

<g transform="matrix( 0.7529754638671875, 0, 0, 0.7529754638671875, 172.9,477.8) ">
<g transform="matrix( 1, 0, 0, 1, 0,0) ">
<use xlink:href="#ayo_can_i_get_some_head_0_Layer0_0_FILL"/>
</g>
</g>

<g transform="matrix( 0.7529754638671875, 0, 0, 0.7529754638671875, 172.9,614.35) ">
<g transform="matrix( 1, 0, 0, 1, 0,0) ">
<use xlink:href="#ayo_can_i_get_some_head_0_Layer0_0_FILL"/>
</g>
</g>

<g transform="matrix( 0.7529754638671875, 0, 0, 0.7529754638671875, 172.9,-614.35) ">
<g transform="matrix( 1, 0, 0, 1, 0,0) ">
<use xlink:href="#ayo_can_i_get_some_head_0_Layer0_0_FILL"/>
</g>
</g>

<g transform="matrix( 0.7529754638671875, 0, 0, 0.7529754638671875, 348.55,-477.8) ">
<g transform="matrix( 1, 0, 0, 1, 0,0) ">
<use xlink:href="#ayo_can_i_get_some_head_0_Layer0_0_FILL"/>
</g>
</g>

<g transform="matrix( 0.7529754638671875, 0, 0, 0.7529754638671875, 348.55,-341.25) ">
<g transform="matrix( 1, 0, 0, 1, 0,0) ">
<use xlink:href="#ayo_can_i_get_some_head_0_Layer0_0_FILL"/>
</g>
</g>

<g transform="matrix( 0.7529754638671875, 0, 0, 0.7529754638671875, 348.55,-204.7) ">
<g transform="matrix( 1, 0, 0, 1, 0,0) ">
<use xlink:href="#ayo_can_i_get_some_head_0_Layer0_0_FILL"/>
</g>
</g>

<g transform="matrix( 0.7529754638671875, 0, 0, 0.7529754638671875, 348.55,-68.1) ">
<g transform="matrix( 1, 0, 0, 1, 0,0) ">
<use xlink:href="#ayo_can_i_get_some_head_0_Layer0_0_FILL"/>
</g>
</g>

<g transform="matrix( 0.7529754638671875, 0, 0, 0.7529754638671875, 348.55,68.1) ">
<g transform="matrix( 1, 0, 0, 1, 0,0) ">
<use xlink:href="#ayo_can_i_get_some_head_0_Layer0_0_FILL"/>
</g>
</g>

<g transform="matrix( 0.7529754638671875, 0, 0, 0.7529754638671875, 348.55,204.7) ">
<g transform="matrix( 1, 0, 0, 1, 0,0) ">
<use xlink:href="#ayo_can_i_get_some_head_0_Layer0_0_FILL"/>
</g>
</g>

<g transform="matrix( 0.7529754638671875, 0, 0, 0.7529754638671875, 348.55,341.25) ">
<g transform="matrix( 1, 0, 0, 1, 0,0) ">
<use xlink:href="#ayo_can_i_get_some_head_0_Layer0_0_FILL"/>
</g>
</g>

<g transform="matrix( 0.7529754638671875, 0, 0, 0.7529754638671875, 348.55,477.8) ">
<g transform="matrix( 1, 0, 0, 1, 0,0) ">
<use xlink:href="#ayo_can_i_get_some_head_0_Layer0_0_FILL"/>
</g>
</g>

<g transform="matrix( 0.7529754638671875, 0, 0, 0.7529754638671875, 348.55,614.35) ">
<g transform="matrix( 1, 0, 0, 1, 0,0) ">
<use xlink:href="#ayo_can_i_get_some_head_0_Layer0_0_FILL"/>
</g>
</g>

<g transform="matrix( 0.7529754638671875, 0, 0, 0.7529754638671875, 348.55,-614.35) ">
<g transform="matrix( 1, 0, 0, 1, 0,0) ">
<use xlink:href="#ayo_can_i_get_some_head_0_Layer0_0_FILL"/>
</g>
</g>

<g transform="matrix( 0.7529754638671875, 0, 0, 0.7529754638671875, 524.1,-477.8) ">
<g transform="matrix( 1, 0, 0, 1, 0,0) ">
<use xlink:href="#ayo_can_i_get_some_head_0_Layer0_0_FILL"/>
</g>
</g>

<g transform="matrix( 0.7529754638671875, 0, 0, 0.7529754638671875, 524.1,-341.25) ">
<g transform="matrix( 1, 0, 0, 1, 0,0) ">
<use xlink:href="#ayo_can_i_get_some_head_0_Layer0_0_FILL"/>
</g>
</g>

<g transform="matrix( 0.7529754638671875, 0, 0, 0.7529754638671875, 524.1,-204.7) ">
<g transform="matrix( 1, 0, 0, 1, 0,0) ">
<use xlink:href="#ayo_can_i_get_some_head_0_Layer0_0_FILL"/>
</g>
</g>

<g transform="matrix( 0.7529754638671875, 0, 0, 0.7529754638671875, 524.1,-68.1) ">
<g transform="matrix( 1, 0, 0, 1, 0,0) ">
<use xlink:href="#ayo_can_i_get_some_head_0_Layer0_0_FILL"/>
</g>
</g>

<g transform="matrix( 0.7529754638671875, 0, 0, 0.7529754638671875, 524.1,68.1) ">
<g transform="matrix( 1, 0, 0, 1, 0,0) ">
<use xlink:href="#ayo_can_i_get_some_head_0_Layer0_0_FILL"/>
</g>
</g>

<g transform="matrix( 0.7529754638671875, 0, 0, 0.7529754638671875, 524.1,204.7) ">
<g transform="matrix( 1, 0, 0, 1, 0,0) ">
<use xlink:href="#ayo_can_i_get_some_head_0_Layer0_0_FILL"/>
</g>
</g>

<g transform="matrix( 0.7529754638671875, 0, 0, 0.7529754638671875, 524.1,341.25) ">
<g transform="matrix( 1, 0, 0, 1, 0,0) ">
<use xlink:href="#ayo_can_i_get_some_head_0_Layer0_0_FILL"/>
</g>
</g>

<g transform="matrix( 0.7529754638671875, 0, 0, 0.7529754638671875, 524.1,477.8) ">
<g transform="matrix( 1, 0, 0, 1, 0,0) ">
<use xlink:href="#ayo_can_i_get_some_head_0_Layer0_0_FILL"/>
</g>
</g>

<g transform="matrix( 0.7529754638671875, 0, 0, 0.7529754638671875, 524.1,614.35) ">
<g transform="matrix( 1, 0, 0, 1, 0,0) ">
<use xlink:href="#ayo_can_i_get_some_head_0_Layer0_0_FILL"/>
</g>
</g>

<g transform="matrix( 0.7529754638671875, 0, 0, 0.7529754638671875, 524.1,-614.35) ">
<g transform="matrix( 1, 0, 0, 1, 0,0) ">
<use xlink:href="#ayo_can_i_get_some_head_0_Layer0_0_FILL"/>
</g>
</g>

<g transform="matrix( 0.7529754638671875, 0, 0, 0.7529754638671875, 699.7,-477.8) ">
<g transform="matrix( 1, 0, 0, 1, 0,0) ">
<use xlink:href="#ayo_can_i_get_some_head_0_Layer0_0_FILL"/>
</g>
</g>

<g transform="matrix( 0.7529754638671875, 0, 0, 0.7529754638671875, 699.7,-341.25) ">
<g transform="matrix( 1, 0, 0, 1, 0,0) ">
<use xlink:href="#ayo_can_i_get_some_head_0_Layer0_0_FILL"/>
</g>
</g>

<g transform="matrix( 0.7529754638671875, 0, 0, 0.7529754638671875, 699.7,-204.7) ">
<g transform="matrix( 1, 0, 0, 1, 0,0) ">
<use xlink:href="#ayo_can_i_get_some_head_0_Layer0_0_FILL"/>
</g>
</g>

<g transform="matrix( 0.7529754638671875, 0, 0, 0.7529754638671875, 699.7,-68.1) ">
<g transform="matrix( 1, 0, 0, 1, 0,0) ">
<use xlink:href="#ayo_can_i_get_some_head_0_Layer0_0_FILL"/>
</g>
</g>

<g transform="matrix( 0.7529754638671875, 0, 0, 0.7529754638671875, 699.7,68.1) ">
<g transform="matrix( 1, 0, 0, 1, 0,0) ">
<use xlink:href="#ayo_can_i_get_some_head_0_Layer0_0_FILL"/>
</g>
</g>

<g transform="matrix( 0.7529754638671875, 0, 0, 0.7529754638671875, 699.7,204.7) ">
<g transform="matrix( 1, 0, 0, 1, 0,0) ">
<use xlink:href="#ayo_can_i_get_some_head_0_Layer0_0_FILL"/>
</g>
</g>

<g transform="matrix( 0.7529754638671875, 0, 0, 0.7529754638671875, 699.7,341.25) ">
<g transform="matrix( 1, 0, 0, 1, 0,0) ">
<use xlink:href="#ayo_can_i_get_some_head_0_Layer0_0_FILL"/>
</g>
</g>

<g transform="matrix( 0.7529754638671875, 0, 0, 0.7529754638671875, 699.7,477.8) ">
<g transform="matrix( 1, 0, 0, 1, 0,0) ">
<use xlink:href="#ayo_can_i_get_some_head_0_Layer0_0_FILL"/>
</g>
</g>

<g transform="matrix( 0.7529754638671875, 0, 0, 0.7529754638671875, 699.7,614.35) ">
<g transform="matrix( 1, 0, 0, 1, 0,0) ">
<use xlink:href="#ayo_can_i_get_some_head_0_Layer0_0_FILL"/>
</g>
</g>

<g transform="matrix( 0.7529754638671875, 0, 0, 0.7529754638671875, 699.7,-614.35) ">
<g transform="matrix( 1, 0, 0, 1, 0,0) ">
<use xlink:href="#ayo_can_i_get_some_head_0_Layer0_0_FILL"/>
</g>
</g>

<g transform="matrix( 0.7529754638671875, 0, 0, 0.7529754638671875, 875.25,-477.8) ">
<g transform="matrix( 1, 0, 0, 1, 0,0) ">
<use xlink:href="#ayo_can_i_get_some_head_0_Layer0_0_FILL"/>
</g>
</g>

<g transform="matrix( 0.7529754638671875, 0, 0, 0.7529754638671875, 875.25,-341.25) ">
<g transform="matrix( 1, 0, 0, 1, 0,0) ">
<use xlink:href="#ayo_can_i_get_some_head_0_Layer0_0_FILL"/>
</g>
</g>

<g transform="matrix( 0.7529754638671875, 0, 0, 0.7529754638671875, 875.25,-204.7) ">
<g transform="matrix( 1, 0, 0, 1, 0,0) ">
<use xlink:href="#ayo_can_i_get_some_head_0_Layer0_0_FILL"/>
</g>
</g>

<g transform="matrix( 0.7529754638671875, 0, 0, 0.7529754638671875, 875.25,-68.1) ">
<g transform="matrix( 1, 0, 0, 1, 0,0) ">
<use xlink:href="#ayo_can_i_get_some_head_0_Layer0_0_FILL"/>
</g>
</g>

<g transform="matrix( 0.7529754638671875, 0, 0, 0.7529754638671875, 875.25,68.1) ">
<g transform="matrix( 1, 0, 0, 1, 0,0) ">
<use xlink:href="#ayo_can_i_get_some_head_0_Layer0_0_FILL"/>
</g>
</g>

<g transform="matrix( 0.7529754638671875, 0, 0, 0.7529754638671875, 875.25,204.7) ">
<g transform="matrix( 1, 0, 0, 1, 0,0) ">
<use xlink:href="#ayo_can_i_get_some_head_0_Layer0_0_FILL"/>
</g>
</g>

<g transform="matrix( 0.7529754638671875, 0, 0, 0.7529754638671875, 875.25,341.25) ">
<g transform="matrix( 1, 0, 0, 1, 0,0) ">
<use xlink:href="#ayo_can_i_get_some_head_0_Layer0_0_FILL"/>
</g>
</g>

<g transform="matrix( 0.7529754638671875, 0, 0, 0.7529754638671875, 875.25,477.8) ">
<g transform="matrix( 1, 0, 0, 1, 0,0) ">
<use xlink:href="#ayo_can_i_get_some_head_0_Layer0_0_FILL"/>
</g>
</g>

<g transform="matrix( 0.7529754638671875, 0, 0, 0.7529754638671875, 875.25,614.35) ">
<g transform="matrix( 1, 0, 0, 1, 0,0) ">
<use xlink:href="#ayo_can_i_get_some_head_0_Layer0_0_FILL"/>
</g>
</g>

<g transform="matrix( 0.7529754638671875, 0, 0, 0.7529754638671875, 875.25,-614.35) ">
<g transform="matrix( 1, 0, 0, 1, 0,0) ">
<use xlink:href="#ayo_can_i_get_some_head_0_Layer0_0_FILL"/>
</g>
</g>

<g transform="matrix( 0.7529754638671875, 0, 0, 0.7529754638671875, 1051.55,-477.8) ">
<g transform="matrix( 1, 0, 0, 1, 0,0) ">
<use xlink:href="#ayo_can_i_get_some_head_0_Layer0_0_FILL"/>
</g>
</g>

<g transform="matrix( 0.7529754638671875, 0, 0, 0.7529754638671875, 1051.55,-341.25) ">
<g transform="matrix( 1, 0, 0, 1, 0,0) ">
<use xlink:href="#ayo_can_i_get_some_head_0_Layer0_0_FILL"/>
</g>
</g>

<g transform="matrix( 0.7529754638671875, 0, 0, 0.7529754638671875, 1051.55,-204.7) ">
<g transform="matrix( 1, 0, 0, 1, 0,0) ">
<use xlink:href="#ayo_can_i_get_some_head_0_Layer0_0_FILL"/>
</g>
</g>

<g transform="matrix( 0.7529754638671875, 0, 0, 0.7529754638671875, 1051.55,-68.1) ">
<g transform="matrix( 1, 0, 0, 1, 0,0) ">
<use xlink:href="#ayo_can_i_get_some_head_0_Layer0_0_FILL"/>
</g>
</g>

<g transform="matrix( 0.7529754638671875, 0, 0, 0.7529754638671875, 1051.55,68.1) ">
<g transform="matrix( 1, 0, 0, 1, 0,0) ">
<use xlink:href="#ayo_can_i_get_some_head_0_Layer0_0_FILL"/>
</g>
</g>

<g transform="matrix( 0.7529754638671875, 0, 0, 0.7529754638671875, 1051.55,204.7) ">
<g transform="matrix( 1, 0, 0, 1, 0,0) ">
<use xlink:href="#ayo_can_i_get_some_head_0_Layer0_0_FILL"/>
</g>
</g>

<g transform="matrix( 0.7529754638671875, 0, 0, 0.7529754638671875, 1051.55,341.25) ">
<g transform="matrix( 1, 0, 0, 1, 0,0) ">
<use xlink:href="#ayo_can_i_get_some_head_0_Layer0_0_FILL"/>
</g>
</g>

<g transform="matrix( 0.7529754638671875, 0, 0, 0.7529754638671875, 1051.55,477.8) ">
<g transform="matrix( 1, 0, 0, 1, 0,0) ">
<use xlink:href="#ayo_can_i_get_some_head_0_Layer0_0_FILL"/>
</g>
</g>

<g transform="matrix( 0.7529754638671875, 0, 0, 0.7529754638671875, 1051.55,614.35) ">
<g transform="matrix( 1, 0, 0, 1, 0,0) ">
<use xlink:href="#ayo_can_i_get_some_head_0_Layer0_0_FILL"/>
</g>
</g>

<g transform="matrix( 0.7529754638671875, 0, 0, 0.7529754638671875, 1051.55,-614.35) ">
<g transform="matrix( 1, 0, 0, 1, 0,0) ">
<use xlink:href="#ayo_can_i_get_some_head_0_Layer0_0_FILL"/>
</g>
</g>
</g>
</svg>
