<?xml version="1.0"?>
<svg width="100" height="146" xmlns="http://www.w3.org/2000/svg" xmlns:svg="http://www.w3.org/2000/svg" clip-rule="evenodd" fill-rule="evenodd" stroke-linejoin="round" version="1.1" xml:space="preserve">
 <g class="layer">
  <title>Layer 1</title>
  <g id="svg_17" transform="matrix(0.416667 0 0 0.416667 0.219583 0.0402921)">
   <g id="Layer_2">
    <g id="Layer_1-2">
     <path d="m118.23,170.77c-21.84,0.19 -43.68,-0.79 -65.41,-2.95c-8.77,-0.77 -17.48,-2.1 -26.08,-3.98c-15.92,-3.75 -27.27,-18.07 -27.27,-34.43c0,-14.42 8.82,-27.46 22.21,-32.83c2.83,-1.13 3.25,-2.6 3.26,-5.24c0.34,-47.83 36.31,-79.71 67.78,-88.13c51.71,-13.86 104.12,17.14 116.1,69.07c1.53,6.74 2.25,13.63 2.15,20.53c-0.25,1.51 0.75,2.96 2.25,3.27c15.42,5.78 24.47,20.45 23.05,37.1c-1.27,15.13 -13.75,28.32 -29.35,31.2c-19.43,3.59 -39.08,5 -58.8,5.85c-9.97,0.47 -19.93,0.54 -29.89,0.54z" fill="rgb(235,157,92)" fill-rule="nonzero" id="svg_18"/>
     <path d="m117.81,315.34c3.05,-7.78 5.88,-14.95 8.68,-22.12c12.89,-33.03 25.77,-66.07 38.64,-99.12c0.41,-1.67 1.97,-2.83 3.69,-2.74c9.93,-0.55 19.8,-1.82 30.17,-3.21c-2.03,5.27 -3.91,10.19 -5.83,15.1c-17.07,43.72 -34.14,87.43 -51.2,131.14c-3.65,9.37 -10.93,13.85 -20.35,15.02c-8.48,1.07 -16.39,-0.8 -22.86,-6.91c-1.97,-1.83 -3.51,-4.08 -4.5,-6.58c-18.81,-48.26 -37.64,-96.52 -56.48,-144.77c-0.35,-0.88 -0.66,-1.77 -1.13,-2.97c4.84,0.58 9.37,1.12 13.91,1.66c5.13,0.57 10.27,1.25 15.42,1.44c2.64,0.09 3.81,1 4.73,3.38c13.49,34.84 27.07,69.65 40.73,104.45c2.07,5.21 4.1,10.41 6.38,16.23z" fill="rgb(235,157,92)" fill-rule="nonzero" id="svg_19"/>
    </g>
   </g>
  </g>
 </g>
</svg>