
<svg xmlns="http://www.w3.org/2000/svg" version="1.1" xmlns:xlink="http://www.w3.org/1999/xlink" preserveAspectRatio="none" x="0px" y="0px" width="376px" height="319px" viewBox="0 0 376 319">
<defs>
<g id="Layer0_0_FILL">
<path fill="#000000" stroke="none" d="
M 357.4 85.15
Q 356.85 69.1 346.4 53.15 342.1 46.5 335.85 39.75 330.8 34.25 323.55 27.75 308.85 14.55 296.55 8.5 279.6 0.1 259.15 0 239.75 -0.1 221.1 7.25 210.5 11.4 203.15 17.2 194.45 24.1 190.85 32.9 185.2 25.9 177.4 21.15 169.55 16.4 160.8 14.65 152.7 13 141.2 13.55 114.05 14.7 84.5 23.6 67.75 28.65 58.1 34.55 49.55 39.75 40.8 48.65 21.5 68.35 11.6 94.15 5.5 110.2 6.25 122.5 6.7 130.05 9.7 136.55 12.9 143.55 18.4 147.9 26.4 154.2 40.2 155.55 31.55 160.75 22.25 172.1 8.8 188.55 3.5 204.15 0.4 213.35 0.05 222.5 -0.35 232.25 2.4 240.85 5 249.05 9.8 254.2 13.85 258.55 19.85 261.35 23.2 262.85 27.05 263.9
L 30.9 276.95
Q 33.45 285.65 34.45 289.7 36.25 296.85 37.1 302.6 37.3 304.3 38 305.05
L 38.2 313.85
Q 38.3 315.3 38.75 315.8 39.3 316.45 40.95 316.55 96.3 319.55 151.05 318.65
L 151.05 319.25
Q 154.6 319.6 159 318.85 161.6 318.4 166.8 317.05
L 173.55 315.2
Q 177 314.3 179.9 313.35 184 311.95 184.7 311.75 187 311.15 191.8 310.65 201 309.55 206.45 307 206.65 303.9 206.7 300.9 207.2 306.6 208.7 312.2 208.9 312.2 212 312.35 214 312.45 215.25 312.1 216.45 311.85 219.2 310.3 221.5 309.05 226.8 306.85 245.1 299.3 269.35 289.55 273.95 287.75 276.4 286.45 277.95 285.65 278.85 284.75
L 283.25 284.75
Q 283.35 284.65 283.4 284.55 283.45 284.45 283.5 284.35 284.15 283.15 283.85 280.75 283.2 275 280.5 263.8
L 275.15 241.9
Q 272.85 232.5 271.85 228.75 270.85 225 269.85 221.7 269.95 221.45 270 221.25 270.25 220.4 270.05 219.6 269.85 218.75 269.2 218.3 269 218.15 268.7 218.1 268.4 217.25 268.15 216.45 278.95 210.15 288.65 202.4
L 289.35 203.1
Q 290.65 204.5 291.65 205 292.9 205.6 295.35 205.5
L 297.15 205.5
Q 298.25 205.8 299.5 206 301.7 206.3 305.35 206.35 313.8 206.5 321.45 206.15 329.25 205.8 334.85 205 342.05 204 347.9 202 362.3 197.15 369.45 186.75 375.25 178.35 375.9 166.5 376.5 156.35 373.25 144.75 370.15 133.7 365.25 127.25 362.25 123.2 358.35 120.45 354.15 117.55 349.6 116.6 357.95 100.4 357.4 85.15
M 346.9 74.15
Q 349.7 81.15 349.95 86.05 350.2 90.8 348.45 96.35 347.15 100.4 344.3 106.05 341.35 111.95 340.45 114.45 338.75 119.35 339.45 123.3 343.95 123.15 348.45 125.35 352.6 127.35 355.95 130.95 361.1 136.5 365.2 147.1 369.45 158.35 368.45 166 367.65 172.2 363.55 178.5 359.2 185.15 353.2 189.45 346.35 194.35 336.3 196.7 329.1 198.35 317.7 199.1 309.9 199.6 305.75 198.9 301.8 198.1 299.85 197.8 297.2 197.35 295.2 197.45
L 294.9 197.1
Q 305.4 187.7 310.35 179.4 315.75 170.1 317.05 158.7 318.3 147.55 315.45 136.45 310.65 117.85 295.55 101.4 287.75 92.9 278.35 86.45 268.85 79.95 258.45 76.1 247.75 72.1 236.7 71.15 231.8 70.75 227.05 71 227.05 70.85 227.05 70.75 225.45 70.6 221.45 70.9
L 207.9 72.25
Q 200.65 72.95 197.2 74
L 197.2 74.15
Q 196.05 74.15 194.8 74.2 179.85 74.9 165.65 79.7 151.55 84.55 139.6 93.05 127.75 101.55 118.75 113.3 109.75 125.05 104.6 138.85 100.7 149.2 99.3 159.95 97.25 175.2 100.8 189.55 103.2 199.5 108.05 207.55 89.2 205.05 56.55 201.4
L 36.45 199.15
Q 27.9 198.2 23.05 198.55 18.4 198.9 14.8 200.45 16 198.2 17.4 195.85 25.1 182.85 33.05 174.2 42.8 163.55 53.85 158.25 56.2 157.05 56.9 156.25 57.85 155.1 57.95 153.2 58 151.95 57.65 149.8 54.7 149.1 45.35 148.4 37.65 147.8 33.35 146 28.25 143.9 22.1 137.75 17.3 132.95 15.55 129.2 13 123.8 13.9 116.5 14.6 111 17.45 103.55 26.25 80.4 39.7 63.9 55.2 44.95 75.35 35.95 82.4 32.85 93.75 29.6 117.1 22.95 135.35 21.25 147.75 20.1 156.05 21.85 166.65 24.1 175.8 31.55 184.45 38.55 190.05 48.7
L 197.1 48.85
Q 196.45 42.75 199.25 36.6 201.85 30.9 206.8 26.35 211.05 22.45 217.2 19.15 221.75 16.7 228.85 13.85 241.9 8.7 250.35 7.55 259.85 6.25 270.1 8.35 279.55 10.25 288.9 14.9 303.75 22.25 320.95 38.3 327.85 44.75 332.1 49.75 341.55 60.95 346.9 74.15
M 218.5 76.65
Q 220.9 76.55 222.1 76.4 222.5 76.35 222.9 76.3 242.4 77.55 261.2 87.05 283.5 98.3 297.75 117.7 308.15 131.8 309.7 144.65 310.75 152.95 308.35 161.5 306.15 169.4 301.15 176.7 296.9 183.1 290.4 189.2 288.75 190.7 286.95 192.3 285.2 192.4 284.55 192.25 284.65 192.85 284.6 194.25 281.3 196.9 277.45 199.75 255.65 215.65 232.4 224.25 206.9 233.6 181.6 233.55 176.25 233.5 171.25 233.05 171.3 232.8 171.4 232.55 172.55 229 172.85 227.6 173.5 224.75 173.2 222.5 173.15 222.5 173.05 222.55 173.1 222.45 173.1 222.4 173.85 220.2 172.85 218.4 149.1 213.3 119.35 209.1 118.45 208.1 117.6 207.1 109.45 197.3 106.85 186.1 103.6 172.2 108.4 154.75 113.55 135.7 125.45 119.75 137.3 103.75 154 93.5 172.65 82.1 191.65 80.85 202.65 80.25 209.35 84 211.55 85.25 215.95 88.15 219.9 90.25 222.8 89.45 222.2 85.3 219.05 81.75 216.5 78.85 213.05 77.1 215.65 76.85 218.5 76.65
M 160.95 224.65
Q 161.2 224.65 161.45 224.7 161.35 225.3 161.3 225.9 160.9 228.55 160.35 231.45 159.65 235 158.8 238.95 158 242.2 157.1 245.75 157 246.1 156.9 246.45 156.75 247.05 155 253.2 153.7 257.65 151.6 264.95 151.175 266.425 150.75 267.9 144.45 290.1 143.3 305.3 142 305.15 140.6 305 133.2 304.35 123.6 303.75 82.95 301.35 42.85 302.2 42.6 295.55 41 287.8 39.75 281.95 36.5 270.35 36.4 270 36.3 269.7 35.75 267.675 35.2 265.65 35.15 265.55 35.1 265.4 33.55 259.95 32.25 255.45 30.05 247.825 27.85 240.2 27.85 240.05 27.8 239.95 22.85 222.95 18.6 209.7 50.6 208.75 90.3 213.6 100.6 214.85 115.15 217.1 122.7 218.25 131.4 219.65 137.75 220.7 144.75 221.85 152.45 223.15 160.95 224.65
M 157.35 294.65
Q 157.8 294.7 158.3 294.8 158.45 294.8 158.65 294.85 163.3 295.45 167.95 296.05 173.15 296.7 178.95 297.35
L 163.4 300.8
Q 158.65 301.85 156.3 302.5 156.15 302.55 156.05 302.6 156.15 301.65 156.35 300.35 156.4 299.95 156.5 299.5 156.825 297.65 157.15 295.8 157.25 295.25 157.35 294.65
M 11.3 207.75
Q 11.5 207.8 11.7 207.85 11.6 210.4 12.15 213.3 12.7 216.4 14.85 223.1 16.65 228.6 20.3 240.95
L 23.8 252.9
Q 19.4 250.2 15.85 246.4 9.7 239.9 7.95 231.85 6.1 223.35 9.25 213.3 10.05 210.65 11.3 207.75
M 44.1 309.55
Q 56.5 308.75 68.9 308.65 81.95 308.55 98.3 309.35 108.2 309.85 127.7 311.2
L 148.85 312.65
Q 146.45 312.95 142.8 312.95 93.4 313.95 44.1 310.55
L 44.1 309.55
M 155.3 310.2
Q 155.35 309.85 155.35 309.55 156.75 309.25 159.85 308.45 165.8 306.9 172.7 305.95
L 177.9 305.2
Q 178.65 305.05 183.7 303.9 189.15 302.55 200.05 300.85 199.25 301.55 197.7 301.95 194.45 302.95 188.2 303.6 181.6 304.35 178.7 305.1 175.4 306.15 173.75 306.65 170.1 307.85 163.1 309.6
L 155.1 311.6 155.3 310.2
M 261.2 220.25
Q 260.4 221.15 259.6 222.5 244.5 246.1 218.8 267.45 220.35 263.15 221.5 259.4
L 226.7 239.25
Q 227.35 236.75 227.5 235.4 227.6 234.45 227.55 233.65 235.55 231.35 243.4 228.3 252.6 224.7 261.2 220.25
M 263.7 231.3
Q 264.4 230.2 265 229.25
L 276.45 276.4
Q 252.3 274.9 228.75 277.45 221.95 278.2 219.2 278.5 232.8 267.65 242.85 257.4 255.4 244.6 263.7 231.3
M 217.7 236.2
Q 217.55 236.35 217.4 236.6 214.85 240.65 209.6 245.2 203.45 250.15 200.55 252.75 199.15 254.05 195.35 257.8 192.15 261 190.1 262.7 186.9 265.35 180.4 269.4 173.45 273.7 170.6 275.95 167.55 278.55 165.4 280.3 165.6 278.55 165.4 276
L 161.4 275.9 165.35 257.6
Q 170.05 254.25 172.85 250.15 174.95 247.05 175.85 243.55 176.3 241.95 176.45 240.4 180.05 240.45 183.85 240.35 201.1 239.85 217.7 236.2
M 194.8 270.75
Q 197.4 268.65 201.6 264.5 206.25 259.85 208.25 258.1 208.3 258.05 214.25 253.2 215.35 252.3 216.3 251.45 215.7 253.6 215.35 254.75 214 259.15 210.05 269.15 208.75 272.45 207.95 274.05 206.95 275.85 206.65 276.85 206.65 276.9 206.65 276.95 205.75 277.6 204.9 278.2 201.6 278.65 197.85 279.55 188.35 282.2 183.6 283.25 180.3 284 174.95 284.8 175.5 284.3 176.1 283.75 179.1 281.25 185.45 277.2 191.95 273.05 194.8 270.75
M 205.2 288.6
Q 201 289.45 206.95 287.95 213.45 286.25 213.35 285.5 213.3 285.1 213.25 284.7 214 284.7 214.85 284.7 217.25 284.7 222.8 284.15 228.4 283.6 260.3 284.05
L 214.65 302.65
Q 212.75 295.9 212.95 289.05
L 208.2 288.95
Q 207.4 288.85 207 289.2 206.7 289.5 206.6 290.4 206.5 291.8 206.5 293.2 206.4 292.4 206.3 291.35 201.4 291.65 199.75 291.65 202.4 290.3 205.2 288.6
M 206.25 293.75
L 205.95 293.75 205.95 292.55
Q 206.05 293.15 206.25 293.75
M 201.15 297.75
Q 201.15 299.4 200.55 300.25 200.5 300.3 200.45 300.4 200.45 299.15 200.45 297.75
L 201.15 297.75
M 206.05 289.2
Q 206 288.8 206 288.45 205.7 288.5 205.45 288.55 205.45 288.9 206.05 289.2
M 137.85 184.2
Q 136.45 182.95 132.95 183.45 132.7 188.5 134.95 194.4 136.35 198.15 139.95 204.65 140.65 205.95 141.2 206.45 142.75 207.75 146.65 207.25 147.35 204.25 146.3 201.45 145.9 200.4 145.05 198.95 143.65 196.7 143.6 196.55 142.65 194.75 141.6 192.25
L 139.1 186.3
Q 138.3 184.65 137.85 184.2
M 224.6 190.5
Q 222 190.6 221.45 190.5
L 221.45 194.6
Q 222.45 194.75 222.65 195.95 222.75 196.55 222.45 197.85 221.05 203.55 218.45 208.85 214.15 217.85 207.95 222.35 204.3 224.95 200.1 225.95 195.65 227 191.6 225.9 189.35 225.15 188.2 224.85 186.25 224.35 184.8 224.65 184.9 225.2 184.8 226.95 184.7 228.35 185.1 229.1 185.6 229.95 187 230.5 190.95 232.15 197 231.95 208.9 231.75 215.4 226.25 217.9 224.15 220.9 219.75 229.15 207 228.6 194.6 228.5 192.1 227.4 191.15 226.45 190.4 224.6 190.5
M 182.5 174.75
Q 182.2 177.4 182.7 179.9 182.95 181.2 183.45 182.4 183.85 183.35 184.9 185.1 185.25 185.85 186.5 189.2
L 188.25 193.15
Q 191.85 200.65 194 204.2 195.05 205.85 195.95 206.25 196.1 206.3 197.05 206.55 198.65 206.8 201.95 206.7 201.85 206.05 202 203.85 202.15 202.05 201.6 201.1 201.5 200.95 200.2 199.5 199.65 198.9 198.55 197.15 196.8 194 192.8 185.6
L 191.25 182.3
Q 189.15 177.9 188.3 176.3 187.8 175.25 187.2 175 186.85 174.8 186 174.8
L 182.5 174.75
M 214.65 123.4
Q 213.55 121.9 212.35 120.7 210.4 118.8 208 117.7 205.6 116.55 201.7 115.75 198.3 114.95 196.6 114.75 193.5 114.3 190.6 114.5 189 114.6 188.3 115
L 188.3 119
Q 190.65 118.9 193.6 119.6 194.1 119.75 198.8 121.1 201.3 121.8 202.45 122.35 203.55 122.95 205.55 124.55 207.9 126.5 208.85 127.7 209.95 129.05 211.7 132.5 212.8 134.6 213.15 136 213.55 137.55 213.45 140.75 214 140.6 215.85 140.8 217.35 140.95 218.05 140.35 218.7 139.8 218.9 138.25 219.35 134.15 218.25 130.35 217.2 126.85 214.65 123.4 Z"/>

<path fill="#03A9F4" stroke="none" d="
M 265 229.25
Q 264.4 230.2 263.7 231.3 255.4 244.6 242.85 257.4 232.8 267.65 219.2 278.5 221.95 278.2 228.75 277.45 252.3 274.9 276.45 276.4
L 265 229.25
M 259.6 222.5
Q 260.4 221.15 261.2 220.25 252.6 224.7 243.4 228.3 235.55 231.35 227.55 233.65 227.6 234.45 227.5 235.4 227.35 236.75 226.7 239.25
L 221.5 259.4
Q 220.35 263.15 218.8 267.45 244.5 246.1 259.6 222.5 Z"/>

<path fill="#666666" stroke="none" d="
M 155.35 309.55
Q 155.35 309.85 155.3 310.2
L 155.1 311.6 163.1 309.6
Q 170.1 307.85 173.75 306.65 175.4 306.15 178.7 305.1 181.6 304.35 188.2 303.6 194.45 302.95 197.7 301.95 199.25 301.55 200.05 300.85 189.15 302.55 183.7 303.9 178.65 305.05 177.9 305.2
L 172.7 305.95
Q 165.8 306.9 159.85 308.45 156.75 309.25 155.35 309.55
M 158.3 294.8
Q 157.8 294.7 157.35 294.65 157.25 295.25 157.15 295.8 156.825 297.65 156.5 299.5 156.4 299.95 156.35 300.35 156.15 301.65 156.05 302.6 156.15 302.55 156.3 302.5 158.65 301.85 163.4 300.8
L 178.95 297.35
Q 173.15 296.7 167.95 296.05 163.3 295.45 158.65 294.85 158.45 294.8 158.3 294.8 Z"/>

<path fill="#999999" stroke="none" d="
M 68.9 308.65
Q 56.5 308.75 44.1 309.55
L 44.1 310.55
Q 93.4 313.95 142.8 312.95 146.45 312.95 148.85 312.65
L 127.7 311.2
Q 108.2 309.85 98.3 309.35 81.95 308.55 68.9 308.65
M 161.45 224.7
Q 161.2 224.65 160.95 224.65 152.45 223.15 144.75 221.85 137.75 220.7 131.4 219.65 122.7 218.25 115.15 217.1 100.6 214.85 90.3 213.6 50.6 208.75 18.6 209.7 22.85 222.95 27.8 239.95 27.85 240.05 27.85 240.2 30.05 247.825 32.25 255.45 33.55 259.95 35.1 265.4 35.15 265.55 35.2 265.65 35.75 267.675 36.3 269.7 36.4 270 36.5 270.35 39.75 281.95 41 287.8 42.6 295.55 42.85 302.2 82.95 301.35 123.6 303.75 133.2 304.35 140.6 305 142 305.15 143.3 305.3 144.45 290.1 150.75 267.9 151.175 266.425 151.6 264.95 153.7 257.65 155 253.2 156.75 247.05 156.9 246.45 157 246.1 157.1 245.75 158 242.2 158.8 238.95 159.65 235 160.35 231.45 160.9 228.55 161.3 225.9 161.35 225.3 161.45 224.7 Z"/>

<path fill="#795548" stroke="none" d="
M 11.7 207.85
Q 11.5 207.8 11.3 207.75 10.05 210.65 9.25 213.3 6.1 223.35 7.95 231.85 9.7 239.9 15.85 246.4 19.4 250.2 23.8 252.9
L 20.3 240.95
Q 16.65 228.6 14.85 223.1 12.7 216.4 12.15 213.3 11.6 210.4 11.7 207.85
M 349.95 86.05
Q 349.7 81.15 346.9 74.15 341.55 60.95 332.1 49.75 327.85 44.75 320.95 38.3 303.75 22.25 288.9 14.9 279.55 10.25 270.1 8.35 259.85 6.25 250.35 7.55 241.9 8.7 228.85 13.85 221.75 16.7 217.2 19.15 211.05 22.45 206.8 26.35 201.85 30.9 199.25 36.6 196.45 42.75 197.1 48.85
L 190.05 48.7
Q 184.45 38.55 175.8 31.55 166.65 24.1 156.05 21.85 147.75 20.1 135.35 21.25 117.1 22.95 93.75 29.6 82.4 32.85 75.35 35.95 55.2 44.95 39.7 63.9 26.25 80.4 17.45 103.55 14.6 111 13.9 116.5 13 123.8 15.55 129.2 17.3 132.95 22.1 137.75 28.25 143.9 33.35 146 37.65 147.8 45.35 148.4 54.7 149.1 57.65 149.8 58 151.95 57.95 153.2 57.85 155.1 56.9 156.25 56.2 157.05 53.85 158.25 42.8 163.55 33.05 174.2 25.1 182.85 17.4 195.85 16 198.2 14.8 200.45 18.4 198.9 23.05 198.55 27.9 198.2 36.45 199.15
L 56.55 201.4
Q 89.2 205.05 108.05 207.55 103.2 199.5 100.8 189.55 97.25 175.2 99.3 159.95 100.7 149.2 104.6 138.85 109.75 125.05 118.75 113.3 127.75 101.55 139.6 93.05 151.55 84.55 165.65 79.7 179.85 74.9 194.8 74.2 196.05 74.15 197.2 74.15
L 197.2 74
Q 200.65 72.95 207.9 72.25
L 221.45 70.9
Q 225.45 70.6 227.05 70.75 227.05 70.85 227.05 71 231.8 70.75 236.7 71.15 247.75 72.1 258.45 76.1 268.85 79.95 278.35 86.45 287.75 92.9 295.55 101.4 310.65 117.85 315.45 136.45 318.3 147.55 317.05 158.7 315.75 170.1 310.35 179.4 305.4 187.7 294.9 197.1
L 295.2 197.45
Q 297.2 197.35 299.85 197.8 301.8 198.1 305.75 198.9 309.9 199.6 317.7 199.1 329.1 198.35 336.3 196.7 346.35 194.35 353.2 189.45 359.2 185.15 363.55 178.5 367.65 172.2 368.45 166 369.45 158.35 365.2 147.1 361.1 136.5 355.95 130.95 352.6 127.35 348.45 125.35 343.95 123.15 339.45 123.3 338.75 119.35 340.45 114.45 341.35 111.95 344.3 106.05 347.15 100.4 348.45 96.35 350.2 90.8 349.95 86.05 Z"/>

<path fill="#FFE0BD" stroke="none" d="
M 222.1 76.4
Q 220.9 76.55 218.5 76.65 215.65 76.85 213.05 77.1 216.5 78.85 219.05 81.75 222.2 85.3 222.8 89.45 219.9 90.25 215.95 88.15 211.55 85.25 209.35 84 202.65 80.25 191.65 80.85 172.65 82.1 154 93.5 137.3 103.75 125.45 119.75 113.55 135.7 108.4 154.75 103.6 172.2 106.85 186.1 109.45 197.3 117.6 207.1 118.45 208.1 119.35 209.1 149.1 213.3 172.85 218.4 173.85 220.2 173.1 222.4 173.1 222.45 173.05 222.55 173.15 222.5 173.2 222.5 173.5 224.75 172.85 227.6 172.55 229 171.4 232.55 171.3 232.8 171.25 233.05 176.25 233.5 181.6 233.55 206.9 233.6 232.4 224.25 255.65 215.65 277.45 199.75 281.3 196.9 284.6 194.25 284.65 192.85 284.55 192.25 285.2 192.4 286.95 192.3 288.75 190.7 290.4 189.2 296.9 183.1 301.15 176.7 306.15 169.4 308.35 161.5 310.75 152.95 309.7 144.65 308.15 131.8 297.75 117.7 283.5 98.3 261.2 87.05 242.4 77.55 222.9 76.3 222.5 76.35 222.1 76.4
M 212.35 120.7
Q 213.55 121.9 214.65 123.4 217.2 126.85 218.25 130.35 219.35 134.15 218.9 138.25 218.7 139.8 218.05 140.35 217.35 140.95 215.85 140.8 214 140.6 213.45 140.75 213.55 137.55 213.15 136 212.8 134.6 211.7 132.5 209.95 129.05 208.85 127.7 207.9 126.5 205.55 124.55 203.55 122.95 202.45 122.35 201.3 121.8 198.8 121.1 194.1 119.75 193.6 119.6 190.65 118.9 188.3 119
L 188.3 115
Q 189 114.6 190.6 114.5 193.5 114.3 196.6 114.75 198.3 114.95 201.7 115.75 205.6 116.55 208 117.7 210.4 118.8 212.35 120.7
M 182.7 179.9
Q 182.2 177.4 182.5 174.75
L 186 174.8
Q 186.85 174.8 187.2 175 187.8 175.25 188.3 176.3 189.15 177.9 191.25 182.3
L 192.8 185.6
Q 196.8 194 198.55 197.15 199.65 198.9 200.2 199.5 201.5 200.95 201.6 201.1 202.15 202.05 202 203.85 201.85 206.05 201.95 206.7 198.65 206.8 197.05 206.55 196.1 206.3 195.95 206.25 195.05 205.85 194 204.2 191.85 200.65 188.25 193.15
L 186.5 189.2
Q 185.25 185.85 184.9 185.1 183.85 183.35 183.45 182.4 182.95 181.2 182.7 179.9
M 221.45 190.5
Q 222 190.6 224.6 190.5 226.45 190.4 227.4 191.15 228.5 192.1 228.6 194.6 229.15 207 220.9 219.75 217.9 224.15 215.4 226.25 208.9 231.75 197 231.95 190.95 232.15 187 230.5 185.6 229.95 185.1 229.1 184.7 228.35 184.8 226.95 184.9 225.2 184.8 224.65 186.25 224.35 188.2 224.85 189.35 225.15 191.6 225.9 195.65 227 200.1 225.95 204.3 224.95 207.95 222.35 214.15 217.85 218.45 208.85 221.05 203.55 222.45 197.85 222.75 196.55 222.65 195.95 222.45 194.75 221.45 194.6
L 221.45 190.5
M 132.95 183.45
Q 136.45 182.95 137.85 184.2 138.3 184.65 139.1 186.3
L 141.6 192.25
Q 142.65 194.75 143.6 196.55 143.65 196.7 145.05 198.95 145.9 200.4 146.3 201.45 147.35 204.25 146.65 207.25 142.75 207.75 141.2 206.45 140.65 205.95 139.95 204.65 136.35 198.15 134.95 194.4 132.7 188.5 132.95 183.45 Z"/>
</g>
</defs>

<g transform="matrix( 1, 0, 0, 1, 0,0) ">
<use xlink:href="#Layer0_0_FILL"/>
</g>
</svg>
